<svg xmlns="http://www.w3.org/2000/svg" xmlns:xlink="http://www.w3.org/1999/xlink" id="body_43" preserveAspectRatio="xMinYMin meet" viewBox="0 0 792 1056"><defs><clipPath id="1"><path id="" clip-rule="evenodd" transform="matrix(1 0 0 1 0 0)" d="M0 792L0 0L0 0L594 0L594 0L594 792L594 792L0 792z" /></clipPath><clipPath id="2"><path id="" clip-rule="evenodd" transform="matrix(1 0 0 1 0 0)" d="M0 792L594 792L594 792L594 0L594 0L0 0z" /></clipPath><clipPath id="3"><path id="" clip-rule="evenodd" transform="matrix(1 0 0 1 0 0)" d="M122.4 448.511L471.6 448.511L471.6 448.511L471.6 63L471.6 63L122.4 63z" /></clipPath><clipPath id="4"><path id="" clip-rule="evenodd" transform="matrix(1 0 0 1 0 0)" d="M0 792L594 792L594 792L594 0L594 0L0 0z" /></clipPath><clipPath id="5"><path id="" clip-rule="evenodd" transform="matrix(1 0 0 1 0 0)" d="M0 792L594 792L594 792L594 0L594 0L0 0z" /></clipPath></defs><g transform="matrix(1.333333 0 0 1.333333 0 0)"><g clip-path="url(#1)"><g clip-path="url(#2)"></g><g clip-path="url(#3)"><g transform="matrix(0.4796703 0 0 0.4800896 122.4 63)"><g transform="matrix(1 0 0 1 0 0)"><image x="0" y="0" xlink:href="img_69.png" width="728" height="803" /></g></g></g><g clip-path="url(#4)"></g><g clip-path="url(#5)"></g></g></g></svg>