<svg xmlns="http://www.w3.org/2000/svg" xmlns:xlink="http://www.w3.org/1999/xlink" id="body_3" preserveAspectRatio="xMinYMin meet" viewBox="0 0 792 1056"><defs><clipPath id="1"><path id="" clip-rule="evenodd" transform="matrix(1 0 0 1 0 0)" d="M0 792L0 0L0 0L594 0L594 0L594 792L594 792L0 792z" /></clipPath><clipPath id="2"><path id="" clip-rule="evenodd" transform="matrix(1 0 0 1 0 0)" d="M232.859 742L361.141 742L361.141 742L361.141 686.736L361.141 686.736L232.859 686.736z" /></clipPath><clipPath id="3"><path id="" clip-rule="evenodd" transform="matrix(1 0 0 1 0 0)" d="M232.859 742L361.141 742L361.141 742L361.141 686.736L361.141 686.736L232.859 686.736z" /></clipPath></defs><g transform="matrix(1.333333 0 0 1.333333 0 0)"><g clip-path="url(#1)"><g clip-path="url(#2)"><path id="1" transform="matrix(1 0 0 -1 0 792)" d="M343.326 73.035L343.326 74.855L344.736 77.22501L344.226 77.29501L343.116 75.305L342.116 77.29501L341.476 77.175L342.746 74.855L342.746 73.035L343.326 73.035zM346.146 72.965C 347.036 72.965 347.636 73.645 347.636 74.575C 347.636 75.54501 346.916 76.105 346.146 76.105C 345.396 76.105 344.676 75.54501 344.676 74.575C 344.676 73.645 345.266 72.965 346.146 72.965M346.146 75.72501C 346.826 75.72501 347.056 75.11501 347.056 74.575C 347.056 74.005 346.856 73.345 346.146 73.345C 345.446 73.345 345.256 74.005 345.256 74.575C 345.256 75.11501 345.476 75.72501 346.146 75.72501M348.846 76.035L348.316 76.035L348.316 76.035L348.316 73.035L348.316 73.035L348.856 73.035L348.856 73.035L348.856 74.645C 348.856 75.315 349.086 75.595 349.366 75.595C 349.496 75.595 349.636 75.525 349.766 75.465L349.766 75.465L350.016 75.815C 349.846 76.01501 349.646 76.105 349.516 76.105C 349.386 76.105 349.186 76.01501 349.066 75.895L349.066 75.895L348.846 75.665L348.846 75.665L348.846 76.035zM350.406 73.035L350.946 73.035L350.946 74.675L350.956 74.675L352.276 72.97501L352.816 73.22501L351.546 74.745L352.616 75.86501L352.216 76.095L351.036 74.825L350.946 74.825L350.946 77.44501L350.406 77.44501L350.406 73.035z" stroke="none" fill="#221E1F" fill-rule="nonzero" /><path id="2" transform="matrix(1 0 0 -1 0 792)" d="M304.071 73.036L306.401 73.036L306.401 73.456L304.651 73.456L304.651 77.22601L304.071 77.22601L304.071 73.036zM308.171 72.966C 309.061 72.966 309.651 73.646 309.651 74.576C 309.651 75.54601 308.921 76.106 308.171 76.106C 307.411 76.106 306.691 75.54601 306.691 74.576C 306.691 73.646 307.291 72.966 308.171 72.966M308.171 75.72601C 308.851 75.72601 309.071 75.106 309.071 74.576C 309.071 74.006 308.891 73.346 308.171 73.346C 307.461 73.346 307.271 74.006 307.271 74.576C 307.271 75.106 307.491 75.72601 308.171 75.72601M310.871 76.036L310.331 76.036L310.331 76.036L310.331 73.036L310.331 73.036L310.871 73.036L310.871 73.036L310.871 74.846C 310.871 75.416 311.261 75.716 311.691 75.716C 312.191 75.716 312.421 75.416 312.421 74.856L312.421 74.856L312.421 73.036L312.421 73.036L312.961 73.036L312.961 73.036L312.961 74.966C 312.961 75.72601 312.591 76.106 311.891 76.106C 311.591 76.106 311.151 75.966 310.871 75.666L310.871 75.666L310.871 76.036zM315.071 73.346C 314.501 73.346 314.221 73.956 314.221 74.596C 314.221 75.22601 314.491 75.72601 315.111 75.72601C 315.691 75.72601 316.001 75.19601 316.001 74.646C 316.001 73.966 315.721 73.346 315.071 73.346M316.001 73.036L316.541 73.036L316.541 73.036L316.541 77.44601L316.541 77.44601L316.001 77.44601L316.001 77.44601L316.001 75.666L316.001 75.666L315.991 75.666C 315.801 75.956 315.441 76.106 315.031 76.106C 314.201 76.106 313.641 75.346 313.641 74.576C 313.641 73.606 314.161 72.966 314.971 72.966C 315.461 72.966 315.791 73.216 315.991 73.506L315.991 73.506L316.001 73.506L316.001 73.506L316.001 73.036zM318.691 72.966C 319.591 72.966 320.171 73.646 320.171 74.576C 320.171 75.54601 319.441 76.106 318.691 76.106C 317.931 76.106 317.211 75.54601 317.211 74.576C 317.211 73.646 317.811 72.966 318.691 72.966M318.691 75.72601C 319.371 75.72601 319.591 75.106 319.591 74.576C 319.591 74.006 319.401 73.346 318.691 73.346C 317.991 73.346 317.791 74.006 317.791 74.576C 317.791 75.106 318.011 75.72601 318.691 75.72601M321.391 76.036L320.851 76.036L320.851 76.036L320.851 73.036L320.851 73.036L321.391 73.036L321.391 73.036L321.391 74.846C 321.391 75.416 321.791 75.716 322.211 75.716C 322.701 75.716 322.941 75.416 322.941 74.856L322.941 74.856L322.941 73.036L322.941 73.036L323.491 73.036L323.491 73.036L323.491 74.966C 323.491 75.72601 323.101 76.106 322.411 76.106C 322.101 76.106 321.671 75.966 321.391 75.666L321.391 75.666L321.391 76.036zM331.551 77.22601L331.071 77.22601L331.071 77.22601L331.071 73.886L331.071 73.886L331.061 73.886C 330.771 74.306 329.221 76.146 328.301 77.22601L328.301 77.22601L327.871 77.22601L327.871 77.22601L327.871 73.036L327.871 73.036L328.351 73.036L328.351 73.036L328.351 76.376L328.351 76.376L328.361 76.376C 328.611 76.01601 330.191 74.126 331.091 73.036L331.091 73.036L331.551 73.036L331.551 73.036L331.551 77.22601zM334.871 74.496C 334.931 75.286 334.631 76.106 333.711 76.106C 333.041 76.106 332.291 75.646 332.291 74.596C 332.291 73.54601 332.911 72.966 333.851 72.966C 334.161 72.966 334.531 73.08601 334.841 73.306L334.841 73.306L334.691 73.606C 334.491 73.44601 334.141 73.346 333.861 73.346C 333.271 73.346 332.841 73.896 332.851 74.496L332.851 74.496L334.871 74.496zM332.891 74.856C 332.901 75.246 333.131 75.72601 333.711 75.72601C 334.191 75.72601 334.391 75.326 334.391 74.856L334.391 74.856L332.891 74.856zM337.281 76.036C 336.991 75.326 336.691 74.606 336.401 73.746L336.401 73.746L336.391 73.746C 336.151 74.626 335.901 75.356 335.651 76.096L335.651 76.096L335.131 75.966L335.131 75.966L336.161 73.036L336.161 73.036L336.521 73.036C 336.811 73.776 337.101 74.526 337.391 75.376L337.391 75.376L337.411 75.376C 337.701 74.526 338.011 73.776 338.311 73.036L338.311 73.036L338.671 73.036L338.671 73.036L339.741 76.01601L339.741 76.01601L339.241 76.096C 339.001 75.356 338.761 74.626 338.521 73.746L338.521 73.746L338.511 73.746C 338.221 74.606 337.931 75.326 337.631 76.036L337.631 76.036L337.281 76.036z" stroke="none" fill="#221E1F" fill-rule="nonzero" /><path id="3" transform="matrix(1 0 0 -1 0 792)" d="M290.137 73.54601C 290.137 73.356 290.147 73.15601 290.217 73.036L290.217 73.036L290.807 73.036C 290.707 73.246 290.677 73.54601 290.677 73.76601L290.677 73.76601L290.677 75.08601C 290.677 75.966 290.017 76.106 289.557 76.106C 289.147 76.106 288.837 75.986 288.537 75.69601L288.537 75.69601L288.747 75.426C 288.957 75.606 289.197 75.756 289.537 75.756C 289.827 75.756 290.107 75.51601 290.137 75.15601L290.137 75.15601L289.407 74.926C 288.797 74.746 288.337 74.40601 288.337 73.886C 288.337 73.326 288.697 72.966 289.197 72.966C 289.467 72.966 289.727 73.146 289.937 73.356L289.937 73.356L290.137 73.54601zM290.137 74.79601C 290.207 73.856 289.717 73.386 289.327 73.386C 289.117 73.386 288.897 73.576 288.897 73.896C 288.897 74.26601 289.147 74.496 289.617 74.646L289.617 74.646L290.137 74.79601zM292.207 76.926L291.667 76.756L291.667 76.756L291.667 76.036L291.667 76.036L291.247 76.036L291.247 76.036L291.247 75.72601L291.247 75.72601L291.667 75.72601L291.667 75.72601L291.667 73.926C 291.667 73.306 291.957 72.966 292.557 72.966C 292.757 72.966 292.997 73.036 293.167 73.15601L293.167 73.15601L293.037 73.456C 292.937 73.396 292.827 73.356 292.627 73.356C 292.297 73.356 292.207 73.606 292.207 74.026L292.207 74.026L292.207 75.72601L292.207 75.72601L292.997 75.72601L292.997 75.72601L292.997 76.036L292.997 76.036L292.207 76.036L292.207 76.036L292.207 76.926zM294.897 72.966C 295.777 72.966 296.367 73.646 296.367 74.576C 296.367 75.54601 295.637 76.106 294.897 76.106C 294.127 76.106 293.407 75.54601 293.407 74.576C 293.407 73.646 294.007 72.966 294.897 72.966M294.897 75.72601C 295.567 75.72601 295.797 75.106 295.797 74.576C 295.797 74.006 295.597 73.346 294.897 73.346C 294.197 73.346 293.997 74.006 293.997 74.576C 293.997 75.106 294.217 75.72601 294.897 75.72601M297.587 76.036L297.057 76.036L297.057 76.036L297.057 73.036L297.057 73.036L297.597 73.036L297.597 73.036L297.597 74.846C 297.597 75.416 297.977 75.716 298.407 75.716C 298.897 75.716 299.137 75.416 299.137 74.856L299.137 74.856L299.137 73.036L299.137 73.036L299.677 73.036L299.677 73.036L299.677 74.966C 299.677 75.72601 299.307 76.106 298.617 76.106C 298.297 76.106 297.867 75.966 297.587 75.666L297.587 75.666L297.587 76.036z" stroke="none" fill="#221E1F" fill-rule="nonzero" /><path id="4" transform="matrix(1 0 0 -1 0 792)" d="M271.358 75.01501L271.828 75.01501C 272.298 75.01501 272.798 74.805 272.798 74.215C 272.798 73.715 272.398 73.455 271.918 73.455L271.918 73.455L271.358 73.455L271.358 73.455L271.358 75.01501zM271.958 73.035C 272.828 73.035 273.428 73.555 273.428 74.255C 273.428 74.925 272.858 75.285 272.308 75.29501L272.308 75.29501L272.308 75.305C 272.638 75.375 273.178 75.69501 273.178 76.375C 273.178 76.925 272.698 77.22501 272.078 77.22501L272.078 77.22501L270.778 77.22501L270.778 77.22501L270.778 73.035L270.778 73.035L271.958 73.035zM271.358 76.815L271.848 76.815C 272.328 76.815 272.588 76.605 272.588 76.22501C 272.588 75.785 272.148 75.425 271.638 75.425L271.638 75.425L271.358 75.425L271.358 75.425L271.358 76.815zM275.428 72.965C 276.318 72.965 276.908 73.645 276.908 74.575C 276.908 75.54501 276.188 76.105 275.428 76.105C 274.678 76.105 273.958 75.54501 273.958 74.575C 273.958 73.645 274.548 72.965 275.428 72.965M275.428 75.72501C 276.108 75.72501 276.328 75.11501 276.328 74.575C 276.328 74.005 276.138 73.345 275.428 73.345C 274.728 73.345 274.538 74.005 274.538 74.575C 274.538 75.11501 274.758 75.72501 275.428 75.72501M279.748 73.575C 279.518 73.425 279.278 73.355 279.018 73.355C 278.288 73.355 277.978 73.94501 277.978 74.575C 277.978 75.385 278.528 75.715 279.028 75.715C 279.248 75.715 279.478 75.625 279.638 75.555L279.638 75.555L279.818 75.86501C 279.598 76.025 279.328 76.105 279.018 76.105C 277.888 76.105 277.388 75.29501 277.388 74.54501C 277.388 74.125 277.578 72.965 278.998 72.965C 279.248 72.965 279.608 73.065 279.898 73.275L279.898 73.275L279.748 73.575zM282.078 73.54501C 282.078 73.355 282.088 73.165 282.158 73.035L282.158 73.035L282.748 73.035C 282.648 73.255 282.618 73.525 282.618 73.76501L282.618 73.76501L282.618 75.08501C 282.618 75.965 281.958 76.105 281.498 76.105C 281.088 76.105 280.778 75.985 280.478 75.705L280.478 75.705L280.688 75.425C 280.898 75.61501 281.128 75.755 281.478 75.755C 281.778 75.755 282.048 75.51501 282.078 75.15501L282.078 75.15501L281.348 74.925C 280.728 74.72501 280.278 74.40501 280.278 73.885C 280.278 73.325 280.628 72.965 281.128 72.965C 281.408 72.965 281.678 73.145 281.878 73.355L281.878 73.355L282.078 73.54501zM282.078 74.79501C 282.148 73.855 281.658 73.385 281.278 73.385C 281.058 73.385 280.838 73.58501 280.838 73.895C 280.838 74.275 281.088 74.495 281.558 74.645L281.558 74.645L282.078 74.79501zM285.848 76.815L286.348 76.815C 286.738 76.815 287.058 76.61501 287.058 76.105C 287.058 75.745 286.928 75.19501 286.178 75.19501L286.178 75.19501L285.848 75.19501L285.848 75.19501L285.848 76.815zM285.268 73.035L285.848 73.035L285.848 73.035L285.848 74.775L285.848 74.775L286.458 74.775L286.458 74.775L287.438 72.965L287.438 72.965L288.028 73.145L288.028 73.145L286.988 74.925C 287.388 75.18501 287.688 75.525 287.688 76.15501C 287.688 76.885 287.148 77.22501 286.458 77.22501L286.458 77.22501L285.268 77.22501L285.268 77.22501L285.268 73.035z" stroke="none" fill="#221E1F" fill-rule="nonzero" /><path id="5" transform="matrix(1 0 0 -1 0 792)" d="M302.889 59.553C 303.859 59.553 304.499 60.283 304.499 61.293C 304.499 62.343 303.709 62.953 302.889 62.953C 302.069 62.953 301.309 62.343 301.309 61.293C 301.309 60.283 301.939 59.553 302.889 59.553M302.889 62.543C 303.629 62.543 303.869 61.873 303.869 61.293C 303.869 60.683 303.659 59.963 302.889 59.963C 302.129 59.963 301.929 60.683 301.929 61.293C 301.929 61.873 302.169 62.543 302.889 62.543M305.859 59.623L305.859 62.543L305.859 62.543L306.639 62.543L306.639 62.543L306.639 62.873L306.639 62.873L305.859 62.873L305.859 62.873L305.859 63.463C 305.859 63.993 306.189 64.013 306.289 64.013C 306.419 64.013 306.509 63.993 306.609 63.973L306.609 63.973L306.739 64.273C 306.589 64.373 306.389 64.393 306.219 64.393C 305.859 64.393 305.269 64.143 305.269 63.273L305.269 63.273L305.269 62.873L305.269 62.873L304.749 62.873L304.749 62.873L304.749 62.543L304.749 62.543L305.269 62.543L305.269 62.543L305.269 59.623L305.269 59.623L305.859 59.623zM309.749 63.853L309.169 63.663L309.169 63.663L309.169 62.873L309.169 62.873L308.709 62.873L308.709 62.873L308.709 62.543L308.709 62.543L309.169 62.543L309.169 62.543L309.169 60.593C 309.169 59.923 309.479 59.553 310.129 59.553C 310.349 59.553 310.589 59.623 310.789 59.753L310.789 59.753L310.649 60.083C 310.539 60.023 310.419 59.973 310.209 59.973C 309.839 59.973 309.749 60.243 309.749 60.713L309.749 60.713L309.749 62.543L309.749 62.543L310.609 62.543L310.609 62.543L310.609 62.873L310.609 62.873L309.749 62.873L309.749 62.873L309.749 63.853zM311.849 64.393L311.279 64.393L311.279 64.393L311.279 59.623L311.279 59.623L311.859 59.623L311.859 59.623L311.859 61.583C 311.859 62.213 312.279 62.523 312.739 62.523C 313.269 62.523 313.529 62.213 313.529 61.593L313.529 61.593L313.529 59.623L313.529 59.623L314.109 59.623L314.109 59.623L314.109 61.723C 314.109 62.543 313.709 62.953 312.959 62.953C 312.629 62.953 312.159 62.793 311.849 62.473L311.849 62.473L311.849 64.393zM317.649 61.213C 317.719 62.063 317.389 62.953 316.389 62.953C 315.659 62.953 314.859 62.443 314.859 61.313C 314.859 60.173 315.529 59.553 316.539 59.553C 316.879 59.553 317.279 59.683 317.619 59.923L317.619 59.923L317.449 60.243C 317.219 60.073 316.859 59.963 316.559 59.963C 315.919 59.963 315.449 60.563 315.459 61.213L315.459 61.213L317.649 61.213zM315.499 61.603C 315.519 62.023 315.769 62.543 316.389 62.543C 316.889 62.543 317.119 62.113 317.119 61.603L317.119 61.603L315.499 61.603z" stroke="none" fill="#221E1F" fill-rule="nonzero" /><path id="6" transform="matrix(1 0 0 -1 0 792)" d="M263.687 59.632L264.277 59.632L264.277 62.882L263.687 62.882L263.687 59.632zM263.977 63.562C 264.267 63.562 264.347 63.772 264.347 63.942C 264.347 64.112 264.217 64.292 263.977 64.292C 263.747 64.292 263.607 64.112 263.607 63.942C 263.607 63.772 263.697 63.562 263.977 63.562M266.987 62.662C 266.837 62.822 266.507 62.962 266.197 62.962C 265.617 62.962 265.117 62.632 265.117 62.112C 265.117 61.672 265.437 61.462 265.807 61.192C 266.117 60.962 266.457 60.802 266.457 60.422C 266.457 60.112 266.177 59.962 265.897 59.962C 265.637 59.962 265.387 60.112 265.197 60.292L265.197 60.292L264.907 59.962C 265.127 59.712 265.537 59.562 265.917 59.562C 266.507 59.562 267.047 59.922 267.047 60.462C 267.047 60.922 266.777 61.192 266.367 61.502C 265.987 61.782 265.687 61.922 265.687 62.192C 265.687 62.472 265.957 62.562 266.167 62.562C 266.347 62.562 266.537 62.512 266.767 62.362L266.767 62.362L266.987 62.662zM271.357 60.182C 271.357 59.972 271.367 59.762 271.447 59.632L271.447 59.632L272.077 59.632C 271.967 59.862 271.937 60.172 271.937 60.422L271.937 60.422L271.937 61.852C 271.937 62.802 271.237 62.962 270.737 62.962C 270.277 62.962 269.947 62.822 269.637 62.512L269.637 62.512L269.857 62.222C 270.087 62.422 270.337 62.572 270.707 62.572C 271.037 62.572 271.337 62.322 271.357 61.922L271.357 61.922L270.567 61.672C 269.887 61.472 269.407 61.112 269.407 60.562C 269.407 59.942 269.787 59.562 270.337 59.562C 270.637 59.562 270.917 59.762 271.147 59.972L271.147 59.972L271.357 60.182zM271.357 61.532C 271.437 60.512 270.897 60.002 270.487 60.002C 270.247 60.002 270.017 60.222 270.017 60.562C 270.017 60.962 270.277 61.212 270.797 61.372L270.797 61.372L271.357 61.532zM273.457 62.872L272.877 62.872L272.877 62.872L272.877 59.632L272.877 59.632L273.467 59.632L273.467 59.632L273.467 61.582C 273.467 62.212 273.887 62.532 274.357 62.532C 274.877 62.532 275.137 62.212 275.137 61.592L275.137 61.592L275.137 59.632L275.137 59.632L275.737 59.632L275.737 59.632L275.737 61.722C 275.737 62.542 275.317 62.962 274.577 62.962C 274.237 62.962 273.767 62.802 273.457 62.472L273.457 62.472L273.457 62.872zM278.557 59.632L279.137 59.632L279.137 62.882L278.557 62.882L278.557 59.632zM278.847 63.562C 279.137 63.562 279.217 63.772 279.217 63.942C 279.217 64.112 279.077 64.292 278.847 64.292C 278.607 64.292 278.477 64.112 278.477 63.942C 278.477 63.772 278.557 63.562 278.847 63.562M280.677 62.872L280.097 62.872L280.097 62.872L280.097 59.632L280.097 59.632L280.687 59.632L280.687 59.632L280.687 61.562C 280.687 62.182 280.997 62.502 281.497 62.502C 281.977 62.502 282.237 62.172 282.237 61.562L282.237 61.562L282.237 59.632L282.237 59.632L282.817 59.632L282.817 59.632L282.817 61.582C 282.817 62.242 283.157 62.502 283.647 62.502C 284.247 62.502 284.367 62.032 284.367 61.562L284.367 61.562L284.367 59.632L284.367 59.632L284.947 59.632L284.947 59.632L284.947 61.802C 284.937 62.492 284.567 62.962 283.847 62.962C 283.477 62.962 283.037 62.762 282.737 62.472C 282.537 62.742 282.207 62.962 281.697 62.962C 281.337 62.962 280.947 62.792 280.677 62.472L280.677 62.472L280.677 62.872zM287.507 59.962C 286.777 59.962 286.497 60.562 286.497 61.192C 286.497 62.022 286.857 62.542 287.517 62.542C 288.127 62.542 288.417 61.932 288.417 61.342C 288.417 60.762 288.217 59.962 287.507 59.962M286.497 62.872L285.907 62.872L285.907 62.872L285.907 58.002L285.907 58.002L286.497 58.002L286.497 58.002L286.497 60.062L286.497 60.062L286.507 60.062C 286.747 59.742 287.097 59.562 287.507 59.562C 288.467 59.562 289.047 60.362 289.047 61.362C 289.047 61.822 288.847 62.962 287.577 62.962C 287.207 62.962 286.747 62.762 286.507 62.372L286.507 62.372L286.497 62.372L286.497 62.372L286.497 62.872zM290.367 62.872L289.797 62.872L289.797 62.872L289.797 59.632L289.797 59.632L290.377 59.632L290.377 59.632L290.377 61.372C 290.377 62.102 290.637 62.402 290.937 62.402C 291.077 62.402 291.217 62.332 291.357 62.262L291.357 62.262L291.637 62.632C 291.447 62.852 291.237 62.962 291.087 62.962C 290.947 62.962 290.737 62.862 290.597 62.722L290.597 62.722L290.367 62.472L290.367 62.472L290.367 62.872zM292.057 59.632L292.637 59.632L292.637 62.882L292.057 62.882L292.057 59.632zM292.347 63.562C 292.637 63.562 292.717 63.772 292.717 63.942C 292.717 64.112 292.577 64.292 292.347 64.292C 292.117 64.292 291.977 64.112 291.977 63.942C 291.977 63.772 292.057 63.562 292.347 63.562M294.177 62.872L293.607 62.872L293.607 62.872L293.607 59.632L293.607 59.632L294.187 59.632L294.187 59.632L294.187 61.582C 294.187 62.212 294.607 62.532 295.067 62.532C 295.597 62.532 295.857 62.212 295.857 61.592L295.857 61.592L295.857 59.632L295.857 59.632L296.447 59.632L296.447 59.632L296.447 61.722C 296.447 62.542 296.037 62.962 295.297 62.962C 294.957 62.962 294.487 62.802 294.177 62.472L294.177 62.472L294.177 62.872zM298.127 63.852L297.547 63.662L297.547 63.662L297.547 62.872L297.547 62.872L297.087 62.872L297.087 62.872L297.087 62.542L297.087 62.542L297.547 62.542L297.547 62.542L297.547 60.592C 297.547 59.922 297.857 59.562 298.507 59.562C 298.717 59.562 298.967 59.632 299.167 59.762L299.167 59.762L299.017 60.082C 298.917 60.022 298.787 59.972 298.577 59.972C 298.217 59.972 298.127 60.242 298.127 60.702L298.127 60.702L298.127 62.542L298.127 62.542L298.977 62.542L298.977 62.542L298.977 62.872L298.977 62.872L298.127 62.872L298.127 62.872L298.127 63.852z" stroke="none" fill="#221E1F" fill-rule="nonzero" /><path id="7" transform="matrix(1 0 0 -1 0 792)" d="M237.099 63.797C 236.799 64.027 236.359 64.247 235.699 64.247C 234.069 64.247 233.169 63.047 233.169 61.917C 233.169 60.667 233.999 59.547 235.619 59.547C 236.209 59.547 236.759 59.767 237.059 59.967L237.059 59.967L236.799 60.337C 236.539 60.167 236.159 60.007 235.659 60.007C 234.659 60.007 233.869 60.777 233.869 61.927C 233.869 62.997 234.529 63.797 235.659 63.797C 236.139 63.797 236.629 63.577 236.839 63.407L236.839 63.407L237.099 63.797zM238.479 63.727L239.019 63.727C 239.459 63.727 239.799 63.507 239.799 62.947C 239.799 62.567 239.659 61.967 238.839 61.967L238.839 61.967L238.479 61.967L238.479 61.967L238.479 63.727zM237.859 59.627L238.479 59.627L238.479 59.627L238.479 61.517L238.479 61.517L239.159 61.517L239.159 61.517L240.209 59.547L240.209 59.547L240.839 59.747L240.839 59.747L239.709 61.677C 240.159 61.967 240.469 62.337 240.469 63.007C 240.469 63.797 239.899 64.177 239.159 64.177L239.159 64.177L237.859 64.177L237.859 64.177L237.859 59.627zM245.169 63.797C 244.869 64.027 244.409 64.247 243.759 64.247C 242.129 64.247 241.229 63.047 241.229 61.917C 241.229 60.667 242.059 59.547 243.679 59.547C 244.269 59.547 244.809 59.767 245.109 59.967L245.109 59.967L244.869 60.337C 244.599 60.167 244.209 60.007 243.719 60.007C 242.719 60.007 241.929 60.777 241.929 61.927C 241.929 62.997 242.589 63.797 243.719 63.797C 244.199 63.797 244.689 63.577 244.909 63.407L244.909 63.407L245.169 63.797zM248.409 63.727L248.859 63.727C 249.519 63.727 249.799 63.347 249.799 62.847C 249.799 62.187 249.419 61.867 248.809 61.827L248.809 61.827L248.599 61.817L248.599 61.817L248.599 61.407L248.599 61.407L248.799 61.407C 249.819 61.407 250.479 62.097 250.479 62.867C 250.479 63.747 249.889 64.177 248.919 64.177L248.919 64.177L247.779 64.177L247.779 64.177L247.779 59.627L247.779 59.627L248.409 59.627L248.409 59.627L248.409 63.727zM251.779 62.877L251.209 62.877L251.209 62.877L251.209 59.627L251.209 59.627L251.789 59.627L251.789 59.627L251.789 61.377C 251.789 62.097 252.039 62.397 252.339 62.397C 252.489 62.397 252.629 62.327 252.769 62.267L252.769 62.267L253.039 62.637C 252.859 62.847 252.639 62.947 252.499 62.947C 252.359 62.947 252.159 62.847 252.009 62.717L252.009 62.717L251.779 62.477L251.779 62.477L251.779 62.877zM256.039 61.217C 256.109 62.067 255.779 62.947 254.789 62.947C 254.059 62.947 253.259 62.437 253.259 61.317C 253.259 60.167 253.919 59.547 254.929 59.547C 255.269 59.547 255.669 59.687 256.009 59.927L256.009 59.927L255.839 60.247C 255.609 60.077 255.259 59.967 254.959 59.967C 254.309 59.967 253.859 60.567 253.859 61.217L253.859 61.217L256.039 61.217zM253.889 61.607C 253.909 62.017 254.159 62.537 254.779 62.537C 255.299 62.537 255.509 62.107 255.509 61.607L255.509 61.607L253.889 61.607zM258.519 62.657C 258.359 62.827 258.039 62.947 257.719 62.947C 257.159 62.947 256.639 62.627 256.639 62.117C 256.639 61.677 256.969 61.467 257.339 61.187C 257.639 60.967 257.979 60.807 257.979 60.427C 257.979 60.107 257.699 59.967 257.429 59.967C 257.169 59.967 256.909 60.117 256.729 60.287L256.729 60.287L256.439 59.967C 256.659 59.707 257.069 59.547 257.439 59.547C 258.039 59.547 258.579 59.917 258.579 60.467C 258.579 60.917 258.309 61.187 257.889 61.507C 257.519 61.787 257.219 61.927 257.219 62.197C 257.219 62.467 257.489 62.567 257.689 62.567C 257.869 62.567 258.059 62.517 258.289 62.367L258.289 62.367L258.519 62.657zM261.049 62.657C 260.879 62.827 260.569 62.947 260.259 62.947C 259.679 62.947 259.169 62.627 259.169 62.117C 259.169 61.677 259.499 61.467 259.869 61.187C 260.169 60.967 260.509 60.807 260.509 60.427C 260.509 60.107 260.229 59.967 259.959 59.967C 259.699 59.967 259.439 60.117 259.259 60.287L259.259 60.287L258.969 59.967C 259.189 59.707 259.599 59.547 259.969 59.547C 260.569 59.547 261.109 59.917 261.109 60.467C 261.109 60.917 260.839 61.187 260.419 61.507C 260.049 61.787 259.759 61.927 259.759 62.197C 259.759 62.467 260.019 62.567 260.219 62.567C 260.399 62.567 260.589 62.517 260.819 62.367L260.819 62.367L261.049 62.657z" stroke="none" fill="#221E1F" fill-rule="nonzero" /><path id="8" transform="matrix(1 0 0 -1 0 792)" d="M306.983 54.875L306.403 54.875L306.403 54.875L306.403 51.625L306.403 51.625L306.993 51.625L306.993 51.625L306.993 53.585C 306.993 54.205 307.413 54.525 307.873 54.525C 308.403 54.525 308.663 54.205 308.663 53.595L308.663 53.595L308.663 51.625L308.663 51.625L309.243 51.625L309.243 51.625L309.243 53.715C 309.243 54.535 308.843 54.945 308.093 54.945C 307.753 54.945 307.283 54.795 306.983 54.475L306.983 54.475L306.983 54.875zM312.033 51.625L312.893 51.625L312.893 54.875L312.033 54.875L312.033 51.625zM312.463 55.305C 312.783 55.305 312.983 55.575 312.983 55.845C 312.983 56.105 312.753 56.345 312.453 56.345C 312.153 56.345 311.953 56.095 311.953 55.845C 311.953 55.575 312.153 55.305 312.463 55.305M314.643 54.875L313.783 54.875L313.783 54.875L313.783 51.625L313.783 51.625L314.643 51.625L314.643 51.625L314.643 53.565C 314.643 54.095 314.983 54.375 315.403 54.375C 315.853 54.375 316.053 54.075 316.053 53.625L316.053 53.625L316.053 51.625L316.053 51.625L316.913 51.625L316.913 51.625L316.913 53.715C 316.913 54.535 316.513 54.945 315.753 54.945C 315.343 54.945 314.933 54.805 314.643 54.495L314.643 54.495L314.643 54.875zM318.793 51.625L318.793 54.435L318.793 54.435L319.573 54.435L319.573 54.435L319.573 54.875L319.573 54.875L318.793 54.875L318.793 54.875L318.793 55.405C 318.793 55.815 319.073 55.895 319.213 55.895C 319.333 55.895 319.463 55.875 319.583 55.835L319.583 55.835L319.733 56.265C 319.503 56.375 319.253 56.405 319.053 56.405C 318.563 56.405 317.933 56.095 317.933 55.245L317.933 55.245L317.933 54.875L317.933 54.875L317.413 54.875L317.413 54.875L317.413 54.435L317.413 54.435L317.933 54.435L317.933 54.435L317.933 51.625L317.933 51.625L318.793 51.625zM321.613 51.545C 322.633 51.545 323.333 52.285 323.333 53.295C 323.333 54.345 322.493 54.945 321.613 54.945C 320.743 54.945 319.913 54.345 319.913 53.295C 319.913 52.285 320.593 51.545 321.613 51.545M321.613 52.025C 320.993 52.025 320.833 52.715 320.833 53.295C 320.833 53.825 321.023 54.475 321.613 54.475C 322.213 54.475 322.403 53.825 322.403 53.295C 322.403 52.715 322.243 52.025 321.613 52.025M324.883 54.875L324.023 54.875L324.023 54.875L324.023 51.625L324.023 51.625L324.893 51.625L324.893 51.625L324.893 53.235C 324.893 53.935 325.183 54.175 325.473 54.175C 325.653 54.175 325.743 54.135 325.893 54.065L325.893 54.065L326.213 54.665C 326.033 54.845 325.833 54.945 325.633 54.945C 325.363 54.945 325.173 54.695 325.073 54.565L325.073 54.565L324.893 54.305L324.893 54.305L324.883 54.305L324.883 54.305L324.883 54.875zM327.493 54.875L326.633 54.875L326.633 54.875L326.633 51.625L326.633 51.625L327.493 51.625L327.493 51.625L327.493 53.545C 327.493 54.095 327.753 54.375 328.153 54.375C 328.533 54.375 328.733 54.065 328.733 53.605L328.733 53.605L328.733 51.625L328.733 51.625L329.593 51.625L329.593 51.625L329.593 53.565C 329.593 54.125 329.853 54.375 330.273 54.375C 330.703 54.375 330.833 53.985 330.833 53.605L330.833 53.605L330.833 51.625L330.833 51.625L331.693 51.625L331.693 51.625L331.693 53.765C 331.683 54.515 331.303 54.965 330.563 54.945C 330.183 54.945 329.753 54.745 329.483 54.495C 329.293 54.795 328.933 54.945 328.533 54.945C 328.143 54.945 327.733 54.785 327.503 54.495L327.503 54.495L327.493 54.495L327.493 54.495L327.493 54.875zM334.373 52.095C 334.373 51.925 334.393 51.735 334.463 51.625L334.463 51.625L335.373 51.625C 335.273 51.865 335.243 52.165 335.243 52.415L335.243 52.415L335.243 53.745C 335.243 54.745 334.503 54.945 333.903 54.945C 333.453 54.945 333.063 54.845 332.663 54.515L332.663 54.515L332.933 54.105C 333.163 54.295 333.433 54.435 333.793 54.435C 334.073 54.435 334.343 54.245 334.383 53.945L334.383 53.945L333.633 53.715C 332.863 53.505 332.433 53.165 332.433 52.535C 332.433 51.935 332.843 51.545 333.343 51.545C 333.643 51.545 333.943 51.745 334.183 51.935L334.183 51.935L334.373 52.095zM334.383 53.515C 334.453 52.565 334.003 52.125 333.663 52.125C 333.453 52.125 333.263 52.325 333.263 52.605C 333.263 52.975 333.483 53.225 333.903 53.365L333.903 53.365L334.383 53.515zM339.573 51.965C 338.843 51.965 338.553 52.565 338.553 53.185C 338.553 54.025 338.913 54.535 339.573 54.535C 340.183 54.535 340.483 53.935 340.483 53.345C 340.483 52.745 340.273 51.965 339.573 51.965M337.973 51.625L338.553 51.625L338.553 51.625L338.553 52.065L338.553 52.065L338.563 52.065C 338.803 51.745 339.163 51.545 339.573 51.545C 340.533 51.545 341.113 52.365 341.113 53.345C 341.113 53.815 340.903 54.945 339.633 54.945C 339.273 54.945 338.803 54.745 338.563 54.365L338.563 54.365L338.553 54.365L338.553 54.365L338.553 56.405L338.553 56.405L337.973 56.405L337.973 56.405L337.973 51.625zM344.023 51.625L344.603 51.625L344.603 51.625L344.603 54.875L344.603 54.875L344.013 54.875L344.013 54.875L344.013 52.975C 344.013 52.345 343.643 51.975 343.193 51.975C 342.673 51.975 342.413 52.305 342.413 52.915L342.413 52.915L342.413 54.875L342.413 54.875L341.833 54.875L341.833 54.875L341.833 52.785C 341.833 51.965 342.233 51.545 342.973 51.545C 343.393 51.545 343.693 51.715 344.023 52.005L344.023 52.005L344.023 51.625zM347.333 54.655C 347.153 54.825 346.833 54.945 346.533 54.945C 345.943 54.945 345.443 54.625 345.443 54.115C 345.443 53.675 345.763 53.465 346.133 53.185C 346.443 52.965 346.783 52.805 346.783 52.425C 346.783 52.105 346.503 51.965 346.233 51.965C 345.963 51.965 345.713 52.115 345.533 52.285L345.533 52.285L345.243 51.965C 345.453 51.705 345.863 51.545 346.243 51.545C 346.833 51.545 347.373 51.915 347.373 52.465C 347.373 52.915 347.103 53.185 346.683 53.505C 346.313 53.785 346.013 53.925 346.013 54.195C 346.013 54.465 346.283 54.565 346.493 54.565C 346.663 54.565 346.853 54.515 347.093 54.365L347.093 54.365L347.333 54.655zM348.093 51.625L348.673 51.625L348.673 54.875L348.093 54.875L348.093 51.625zM348.383 55.545C 348.673 55.545 348.753 55.775 348.753 55.945C 348.753 56.115 348.633 56.295 348.383 56.295C 348.153 56.295 348.013 56.115 348.013 55.945C 348.013 55.775 348.103 55.545 348.383 55.545M350.213 54.875L349.643 54.875L349.643 54.875L349.643 51.625L349.643 51.625L350.233 51.625L350.233 51.625L350.233 53.585C 350.233 54.205 350.643 54.525 351.103 54.525C 351.633 54.525 351.893 54.205 351.893 53.595L351.893 53.595L351.893 51.625L351.893 51.625L352.483 51.625L352.483 51.625L352.483 53.715C 352.483 54.535 352.083 54.945 351.333 54.945C 350.993 54.945 350.533 54.795 350.213 54.475L350.213 54.475L350.213 54.875zM356.013 53.215C 356.083 54.065 355.753 54.945 354.763 54.945C 354.033 54.945 353.233 54.435 353.233 53.315C 353.233 52.175 353.893 51.545 354.903 51.545C 355.243 51.545 355.643 51.685 355.983 51.925L355.983 51.925L355.813 52.245C 355.593 52.075 355.233 51.965 354.933 51.965C 354.283 51.965 353.833 52.565 353.833 53.215L353.833 53.215L356.013 53.215zM353.863 53.605C 353.883 54.015 354.133 54.535 354.753 54.535C 355.273 54.535 355.483 54.105 355.483 53.605L355.483 53.605L353.863 53.605zM358.493 54.655C 358.333 54.825 358.013 54.945 357.693 54.945C 357.133 54.945 356.613 54.625 356.613 54.115C 356.613 53.675 356.943 53.465 357.313 53.185C 357.613 52.965 357.953 52.805 357.953 52.425C 357.953 52.105 357.673 51.965 357.403 51.965C 357.143 51.965 356.893 52.115 356.703 52.285L356.703 52.285L356.413 51.965C 356.633 51.705 357.043 51.545 357.413 51.545C 358.013 51.545 358.553 51.915 358.553 52.465C 358.553 52.915 358.283 53.185 357.863 53.505C 357.493 53.785 357.193 53.925 357.193 54.195C 357.193 54.465 357.463 54.565 357.673 54.565C 357.843 54.565 358.033 54.515 358.263 54.365L358.263 54.365L358.493 54.655zM361.023 54.655C 360.853 54.825 360.543 54.945 360.233 54.945C 359.653 54.945 359.143 54.625 359.143 54.115C 359.143 53.675 359.473 53.465 359.843 53.185C 360.143 52.965 360.483 52.805 360.483 52.425C 360.483 52.105 360.203 51.965 359.933 51.965C 359.673 51.965 359.413 52.115 359.233 52.285L359.233 52.285L358.943 51.965C 359.163 51.705 359.573 51.545 359.943 51.545C 360.543 51.545 361.083 51.915 361.083 52.465C 361.083 52.915 360.803 53.185 360.393 53.505C 360.023 53.785 359.733 53.925 359.733 54.195C 359.733 54.465 359.993 54.565 360.193 54.565C 360.373 54.565 360.563 54.515 360.793 54.365L360.793 54.365L361.023 54.655z" stroke="none" fill="#221E1F" fill-rule="nonzero" /><path id="9" transform="matrix(1 0 0 -1 0 792)" d="M284.257 53.71L284.257 52.17C 284.007 52.04 283.717 52 283.337 52C 282.347 52 281.557 52.78 281.557 53.92C 281.557 54.99 282.227 55.8 283.407 55.8C 283.907 55.8 284.327 55.62 284.597 55.44L284.597 55.44L284.857 55.81C 284.587 56.04 284.067 56.25 283.407 56.25C 281.767 56.25 280.867 55.06 280.867 53.91C 280.867 52.66 281.697 51.55 283.317 51.55C 283.897 51.55 284.447 51.7 284.887 51.85L284.887 51.85L284.887 53.71L284.887 53.71L284.257 53.71zM286.417 54.88L285.837 54.88L285.837 54.88L285.837 51.64L285.837 51.64L286.427 51.64L286.427 51.64L286.427 53.37C 286.427 54.1 286.687 54.4 286.967 54.4C 287.117 54.4 287.267 54.32 287.407 54.26L287.407 54.26L287.687 54.64C 287.487 54.85 287.287 54.95 287.137 54.95C 286.997 54.95 286.787 54.86 286.647 54.72L286.647 54.72L286.417 54.47L286.417 54.47L286.417 54.88zM289.487 51.55C 290.447 51.55 291.087 52.28 291.087 53.29C 291.087 54.34 290.297 54.95 289.487 54.95C 288.657 54.95 287.887 54.34 287.887 53.29C 287.887 52.28 288.527 51.55 289.487 51.55M289.487 54.54C 290.217 54.54 290.457 53.88 290.457 53.29C 290.457 52.68 290.247 51.96 289.487 51.96C 288.717 51.96 288.507 52.68 288.507 53.29C 288.507 53.88 288.747 54.54 289.487 54.54M293.997 51.64L294.587 51.64L294.587 51.64L294.587 54.88L294.587 54.88L293.997 54.88L293.997 54.88L293.997 52.98C 293.997 52.35 293.617 51.98 293.187 51.98C 292.647 51.98 292.387 52.3 292.387 52.91L292.387 52.91L292.387 54.88L292.387 54.88L291.807 54.88L291.807 54.88L291.807 52.78C 291.807 51.96 292.207 51.55 292.957 51.55C 293.387 51.55 293.667 51.72 293.997 52L293.997 52L293.997 51.64zM297.137 51.96C 296.407 51.96 296.127 52.56 296.127 53.19C 296.127 54.02 296.487 54.54 297.147 54.54C 297.747 54.54 298.047 53.92 298.047 53.34C 298.047 52.75 297.837 51.96 297.137 51.96M296.127 54.88L295.537 54.88L295.537 54.88L295.537 50L295.537 50L296.127 50L296.127 50L296.127 52.05L296.127 52.05L296.137 52.05C 296.387 51.74 296.727 51.55 297.137 51.55C 298.097 51.55 298.687 52.36 298.687 53.35C 298.687 53.82 298.467 54.95 297.207 54.95C 296.837 54.95 296.387 54.76 296.137 54.37L296.137 54.37L296.127 54.37L296.127 54.37L296.127 54.88zM299.397 50.48L300.107 51.7C 300.427 52.24 300.107 52.38 299.957 52.38C 299.707 52.38 299.637 52.24 299.467 51.77L299.467 51.77L299.037 50.62L299.037 50.62L299.397 50.48zM304.877 52.18C 304.877 51.97 304.887 51.76 304.967 51.64L304.967 51.64L305.607 51.64C 305.497 51.86 305.457 52.17 305.457 52.42L305.457 52.42L305.457 53.85C 305.457 54.8 304.747 54.95 304.257 54.95C 303.807 54.95 303.487 54.82 303.147 54.51L303.147 54.51L303.387 54.22C 303.607 54.42 303.847 54.57 304.227 54.57C 304.547 54.57 304.847 54.32 304.877 53.92L304.877 53.92L304.087 53.67C 303.417 53.47 302.937 53.11 302.937 52.55C 302.937 51.94 303.307 51.55 303.857 51.55C 304.157 51.55 304.437 51.75 304.667 51.98L304.667 51.98L304.877 52.18zM304.877 53.53C 304.957 52.52 304.417 52 304.007 52C 303.767 52 303.537 52.22 303.537 52.55C 303.537 52.96 303.807 53.21 304.317 53.37L304.317 53.37L304.877 53.53z" stroke="none" fill="#221E1F" fill-rule="nonzero" /><path id="10" transform="matrix(1 0 0 -1 0 792)" d="M255.145 52.525C 254.955 52.265 254.545 51.975 254.045 51.975C 253.355 51.975 253.025 52.545 253.025 52.965C 253.025 53.345 253.205 53.675 253.615 53.905L253.615 53.905L255.145 52.525zM253.985 54.365C 253.535 54.775 253.375 55.015 253.375 55.275C 253.375 55.545 253.585 55.795 254.005 55.795C 254.285 55.795 254.545 55.645 254.655 55.575L254.655 55.575L254.885 55.945C 254.605 56.145 254.305 56.245 253.955 56.245C 253.225 56.245 252.735 55.775 252.735 55.235C 252.735 54.775 253.075 54.465 253.325 54.215C 252.785 53.975 252.355 53.505 252.355 52.905C 252.355 52.625 252.555 51.545 253.975 51.545C 254.605 51.545 255.115 51.835 255.465 52.225L255.465 52.225L256.205 51.545L256.205 51.545L256.785 51.835L256.785 51.835L255.805 52.695C 256.105 53.305 256.025 54.045 255.805 54.425L255.805 54.425L256.555 54.425L256.555 54.425L256.755 54.825L256.755 54.825L254.805 54.825L254.805 54.825L254.615 54.425L254.615 54.425L255.245 54.425C 255.505 54.065 255.625 53.385 255.435 53.005L255.435 53.005L253.985 54.365zM261.835 56.175L259.585 56.175L259.585 51.625L260.215 51.625L260.215 53.535L261.805 53.535L261.805 53.995L260.215 53.995L260.215 55.725L261.835 55.725L261.835 56.175zM263.225 54.875L262.645 54.875L262.645 54.875L262.645 51.625L262.645 51.625L263.235 51.625L263.235 51.625L263.235 53.375C 263.235 54.095 263.485 54.395 263.775 54.395C 263.925 54.395 264.075 54.325 264.215 54.265L264.215 54.265L264.485 54.635C 264.305 54.845 264.085 54.945 263.945 54.945C 263.805 54.945 263.605 54.845 263.455 54.725L263.455 54.725L263.225 54.475L263.225 54.475L263.225 54.875zM266.635 52.175C 266.635 51.975 266.645 51.765 266.725 51.625L266.725 51.625L267.365 51.625C 267.255 51.865 267.215 52.175 267.215 52.415L267.215 52.415L267.215 53.845C 267.215 54.795 266.505 54.945 266.015 54.945C 265.565 54.945 265.225 54.825 264.905 54.515L264.905 54.515L265.135 54.215C 265.365 54.415 265.605 54.575 265.985 54.575C 266.305 54.575 266.605 54.315 266.635 53.925L266.635 53.925L265.845 53.675C 265.175 53.475 264.705 53.115 264.705 52.545C 264.705 51.935 265.065 51.545 265.615 51.545C 265.915 51.545 266.205 51.745 266.425 51.975L266.425 51.975L266.635 52.175zM266.635 53.525C 266.715 52.515 266.175 52.005 265.765 52.005C 265.525 52.005 265.305 52.215 265.305 52.565C 265.305 52.965 265.565 53.215 266.075 53.365L266.075 53.365L266.635 53.525zM268.735 54.875L268.165 54.875L268.165 54.875L268.165 51.625L268.165 51.625L268.745 51.625L268.745 51.625L268.745 53.585C 268.745 54.205 269.165 54.525 269.635 54.525C 270.155 54.525 270.415 54.205 270.415 53.595L270.415 53.595L270.415 51.625L270.415 51.625L271.005 51.625L271.005 51.625L271.005 53.715C 271.005 54.535 270.605 54.945 269.855 54.945C 269.515 54.945 269.045 54.795 268.735 54.475L268.735 54.475L268.735 54.875zM274.305 52.205C 274.045 52.045 273.785 51.975 273.505 51.975C 272.715 51.975 272.375 52.615 272.375 53.295C 272.375 54.175 272.975 54.525 273.515 54.525C 273.755 54.525 274.005 54.445 274.185 54.365L274.185 54.365L274.375 54.685C 274.135 54.865 273.835 54.945 273.505 54.945C 272.285 54.945 271.745 54.075 271.745 53.265C 271.745 52.805 271.935 51.545 273.475 51.545C 273.755 51.545 274.145 51.665 274.465 51.885L274.465 51.885L274.305 52.205zM275.105 51.625L275.675 51.625L275.675 54.875L275.105 54.875L275.105 51.625zM275.385 55.545C 275.675 55.545 275.755 55.775 275.755 55.945C 275.755 56.115 275.615 56.295 275.385 56.295C 275.155 56.295 275.015 56.115 275.015 55.945C 275.015 55.775 275.105 55.545 275.385 55.545M278.395 54.655C 278.225 54.825 277.915 54.945 277.605 54.945C 277.025 54.945 276.515 54.625 276.515 54.115C 276.515 53.675 276.845 53.465 277.215 53.185C 277.515 52.965 277.855 52.805 277.855 52.425C 277.855 52.105 277.575 51.965 277.305 51.965C 277.045 51.965 276.785 52.115 276.605 52.285L276.605 52.285L276.315 51.965C 276.535 51.705 276.945 51.545 277.315 51.545C 277.915 51.545 278.455 51.915 278.455 52.465C 278.455 52.915 278.185 53.185 277.765 53.505C 277.395 53.785 277.105 53.925 277.105 54.195C 277.105 54.465 277.365 54.565 277.565 54.565C 277.745 54.565 277.935 54.515 278.165 54.365L278.165 54.365L278.395 54.655z" stroke="none" fill="#221E1F" fill-rule="nonzero" /><path id="11" transform="matrix(1 0 0 -1 0 792)" d="M234.98 51.626L234.98 55.726L236.44 55.726L236.44 56.166L232.89 56.166L232.89 55.726L234.35 55.726L234.35 51.626L234.98 51.626zM238.21 52.186C 238.21 51.966 238.22 51.766 238.31 51.626L238.31 51.626L238.94 51.626C 238.83 51.856 238.79 52.186 238.79 52.416L238.79 52.416L238.79 53.846C 238.79 54.796 238.08 54.956 237.59 54.956C 237.14 54.956 236.81 54.826 236.48 54.516L236.48 54.516L236.71 54.216C 236.94 54.416 237.18 54.566 237.56 54.566C 237.88 54.566 238.18 54.316 238.21 53.916L238.21 53.916L237.42 53.686C 236.75 53.486 236.27 53.116 236.27 52.546C 236.27 51.936 236.64 51.546 237.19 51.546C 237.49 51.546 237.77 51.746 238.01 51.986L238.01 51.986L238.21 52.186zM238.21 53.526C 238.29 52.516 237.75 52.006 237.34 52.006C 237.11 52.006 236.87 52.216 236.87 52.556C 236.87 52.966 237.14 53.216 237.65 53.366L237.65 53.366L238.21 53.526zM239.32 54.786L240.59 51.806C 240.13 50.516 239.84 50.416 239.44 50.416L239.44 50.416L239.21 50.416L239.21 50.416L239.21 49.996L239.21 49.996L239.51 49.996C 240.06 49.996 240.47 50.366 240.77 51.056L240.77 51.056L242.44 54.816L242.44 54.816L241.93 54.936C 241.58 54.116 241.24 53.286 240.91 52.296L240.91 52.296L240.89 52.296C 240.57 53.286 240.23 54.116 239.91 54.936L239.91 54.936L239.32 54.786zM243.54 56.406L242.96 56.406L242.96 51.626L243.54 51.626L243.54 56.406zM245.88 51.546C 246.84 51.546 247.49 52.286 247.49 53.286C 247.49 54.346 246.71 54.956 245.88 54.956C 245.06 54.956 244.28 54.346 244.28 53.286C 244.28 52.286 244.92 51.546 245.88 51.546M245.88 54.536C 246.62 54.536 246.86 53.876 246.86 53.286C 246.86 52.686 246.65 51.966 245.88 51.966C 245.12 51.966 244.91 52.686 244.91 53.286C 244.91 53.876 245.15 54.536 245.88 54.536M248.8 54.876L248.23 54.876L248.23 54.876L248.23 51.626L248.23 51.626L248.81 51.626L248.81 51.626L248.81 53.386C 248.81 54.096 249.06 54.396 249.36 54.396C 249.51 54.396 249.65 54.326 249.79 54.256L249.79 54.256L250.06 54.636C 249.88 54.846 249.66 54.956 249.52 54.956C 249.38 54.956 249.17 54.856 249.03 54.716L249.03 54.716L248.8 54.486L248.8 54.486L248.8 54.876z" stroke="none" fill="#221E1F" fill-rule="nonzero" /><path id="12" transform="matrix(1 0 0 -1 0 792)" d="M233.339 67.597L361.129 67.597" stroke="#221E1F" stroke-width="0.5" fill="none" /></g><g clip-path="url(#3)"><path id="530" transform="matrix(1 0 0 -1 0 792)" d="M278.706 101.416C 278.056 101.906 277.076 102.406 275.676 102.406C 272.166 102.406 270.236 99.836 270.236 97.366C 270.236 94.666 272.016 92.266 275.516 92.266C 276.776 92.266 277.936 92.726 278.596 93.166L278.596 93.166L278.056 93.976C 277.486 93.586 276.646 93.246 275.586 93.246C 273.436 93.246 271.736 94.926 271.736 97.396C 271.736 99.696 273.156 101.426 275.586 101.426C 276.636 101.426 277.686 100.956 278.146 100.576L278.146 100.576L278.706 101.416z" stroke="none" fill="#221E1F" fill-rule="nonzero" /><path id="531" transform="matrix(1 0 0 -1 0 792)" d="M280.313 92.441L281.673 92.441L281.673 92.441L281.673 96.501L281.673 96.501L283.113 96.501L283.113 96.501L285.383 92.271L285.383 92.271L286.753 92.691L286.753 92.691L284.323 96.871C 285.263 97.471 285.953 98.281 285.953 99.721C 285.953 101.411 284.713 102.241 283.113 102.241L283.113 102.241L280.313 102.241L280.313 102.241L280.313 92.441zM281.673 101.261L282.833 101.261C 283.743 101.261 284.503 100.801 284.503 99.591C 284.503 98.771 284.183 97.481 282.443 97.481L282.443 97.481L281.673 97.481L281.673 97.481L281.673 101.261z" stroke="none" fill="#221E1F" fill-rule="nonzero" /><path id="532" transform="matrix(1 0 0 -1 0 792)" d="M296.067 101.416C 295.427 101.906 294.437 102.406 293.037 102.406C 289.527 102.406 287.597 99.836 287.597 97.366C 287.597 94.666 289.377 92.266 292.877 92.266C 294.137 92.266 295.297 92.726 295.957 93.166L295.957 93.166L295.427 93.976C 294.847 93.586 294.007 93.246 292.947 93.246C 290.797 93.246 289.097 94.926 289.097 97.396C 289.097 99.696 290.517 101.426 292.947 101.426C 293.997 101.426 295.047 100.956 295.507 100.576L295.507 100.576L296.067 101.416z" stroke="none" fill="#221E1F" fill-rule="nonzero" /><path id="533" transform="matrix(1 0 0 -1 0 792)" d="M303.049 101.261L303.989 101.261C 305.439 101.261 306.039 100.481 306.039 99.401C 306.039 97.941 305.219 97.251 303.899 97.181L303.899 97.181L303.459 97.17101L303.459 97.17101L303.459 96.271L303.459 96.271L303.889 96.271C 306.089 96.271 307.499 97.771 307.499 99.411C 307.499 101.321 306.229 102.241 304.159 102.241L304.159 102.241L301.689 102.241L301.689 102.241L301.689 92.441L301.689 92.441L303.049 92.441L303.049 92.441L303.049 101.261z" stroke="none" fill="#221E1F" fill-rule="nonzero" /><path id="534" transform="matrix(1 0 0 -1 0 792)" d="M310.301 99.441L309.071 99.441L309.071 99.441L309.071 92.441L309.071 92.441L310.331 92.441L310.331 92.441L310.331 96.201C 310.331 97.761 310.861 98.401 311.491 98.401C 311.831 98.401 312.131 98.261 312.441 98.111L312.441 98.111L313.021 98.92101C 312.631 99.381 312.161 99.611 311.851 99.611C 311.561 99.611 311.091 99.401 310.791 99.10101L310.791 99.10101L310.301 98.571L310.301 98.571L310.301 99.441z" stroke="none" fill="#221E1F" fill-rule="nonzero" /><path id="535" transform="matrix(1 0 0 -1 0 792)" d="M314.846 96.696C 314.896 97.596 315.426 98.716 316.766 98.716C 317.876 98.716 318.336 97.786 318.336 96.696L318.336 96.696L314.846 96.696zM319.486 95.856C 319.626 97.686 318.916 99.606 316.796 99.606C 315.206 99.606 313.466 98.506 313.466 96.076C 313.466 93.616 314.906 92.26601 317.096 92.26601C 317.816 92.26601 318.696 92.566 319.416 93.08601L319.416 93.08601L319.056 93.76601C 318.566 93.40601 317.776 93.166 317.136 93.166C 315.746 93.166 314.756 94.466 314.766 95.856L314.766 95.856L319.486 95.856z" stroke="none" fill="#221E1F" fill-rule="nonzero" /><path id="536" transform="matrix(1 0 0 -1 0 792)" d="M324.819 98.965C 324.459 99.325 323.779 99.615 323.099 99.615C 321.869 99.615 320.769 98.905 320.769 97.80499C 320.769 96.855 321.469 96.375 322.269 95.80499C 322.929 95.325 323.659 94.975 323.659 94.175C 323.659 93.475 323.059 93.175 322.469 93.175C 321.909 93.175 321.359 93.48499 320.959 93.875L320.959 93.875L320.339 93.155C 320.799 92.625 321.699 92.27499 322.499 92.27499C 323.779 92.27499 324.949 93.075 324.949 94.245C 324.949 95.225 324.359 95.80499 323.459 96.48499C 322.659 97.085 322.029 97.38499 322.029 97.975C 322.029 98.55499 322.589 98.77499 323.039 98.77499C 323.429 98.77499 323.829 98.655 324.329 98.31499L324.329 98.31499L324.819 98.965z" stroke="none" fill="#221E1F" fill-rule="nonzero" /><path id="537" transform="matrix(1 0 0 -1 0 792)" d="M330.265 98.965C 329.905 99.325 329.225 99.615 328.545 99.615C 327.315 99.615 326.215 98.905 326.215 97.80499C 326.215 96.855 326.915 96.375 327.715 95.80499C 328.375 95.325 329.105 94.975 329.105 94.175C 329.105 93.475 328.505 93.175 327.915 93.175C 327.355 93.175 326.805 93.48499 326.395 93.875L326.395 93.875L325.785 93.155C 326.245 92.625 327.145 92.27499 327.945 92.27499C 329.225 92.27499 330.395 93.075 330.395 94.245C 330.395 95.225 329.805 95.80499 328.905 96.48499C 328.105 97.085 327.475 97.38499 327.475 97.975C 327.475 98.55499 328.035 98.77499 328.485 98.77499C 328.875 98.77499 329.275 98.655 329.775 98.31499L329.775 98.31499L330.265 98.965z" stroke="none" fill="#221E1F" fill-rule="nonzero" /><path id="538" transform="matrix(1 0 0 -1 0 792)" d="M271.513 82.573L271.513 86.953L269.953 86.953L269.953 87.443L273.753 87.443L273.753 86.953L272.183 86.953L272.183 82.573L271.513 82.573z" stroke="none" fill="#221E1F" fill-rule="nonzero" /><path id="539" transform="matrix(1 0 0 -1 0 792)" d="M274.875 84.43999C 274.325 84.27 274.045 84.00999 274.045 83.57C 274.045 83.21 274.295 82.98 274.545 82.98C 274.995 82.98 275.565 83.53 275.475 84.61L275.475 84.61L274.875 84.43999zM275.255 82.95C 275.015 82.71 274.705 82.49 274.385 82.49C 273.805 82.49 273.395 82.91 273.395 83.56C 273.395 84.17 273.915 84.53999 274.635 84.75999L274.635 84.75999L275.475 85.03C 275.445 85.43999 275.125 85.71999 274.785 85.71999C 274.375 85.71999 274.125 85.56 273.875 85.34L273.875 85.34L273.625 85.66C 273.975 86 274.325 86.13 274.815 86.13C 275.335 86.13 276.105 85.96999 276.105 84.95L276.105 84.95L276.105 83.42C 276.105 83.16 276.135 82.82 276.255 82.57L276.255 82.57L275.575 82.57C 275.495 82.71999 275.475 82.93999 275.475 83.17L275.475 83.17L275.255 82.95z" stroke="none" fill="#221E1F" fill-rule="nonzero" /><path id="540" transform="matrix(1 0 0 -1 0 792)" d="M277.286 86.121C 277.636 85.231 278.006 84.35101 278.346 83.301L278.346 83.301L278.366 83.301C 278.726 84.35101 279.076 85.231 279.456 86.121L279.456 86.121L280.006 85.991L280.006 85.991L278.216 81.961C 277.876 81.231 277.456 80.841 276.866 80.841L276.866 80.841L276.546 80.841L276.546 80.841L276.546 81.28101L276.546 81.28101L276.796 81.28101C 277.226 81.28101 277.526 81.391 278.026 82.771L278.026 82.771L276.656 85.941L276.656 85.941L277.286 86.121z" stroke="none" fill="#221E1F" fill-rule="nonzero" /><path id="541" transform="matrix(1 0 0 -1 0 792)" d="M282.642 84.354C 282.642 83.70399 282.862 82.934 283.682 82.934C 284.502 82.934 284.722 83.70399 284.722 84.354C 284.722 84.98399 284.462 85.684 283.682 85.684C 282.902 85.684 282.642 84.98399 282.642 84.354M281.972 84.354C 281.972 85.48399 282.802 86.134 283.682 86.134C 284.562 86.134 285.402 85.48399 285.402 84.354C 285.402 83.27399 284.712 82.494 283.682 82.494C 282.662 82.494 281.972 83.27399 281.972 84.354" stroke="none" fill="#221E1F" fill-rule="nonzero" /><path id="542" transform="matrix(1 0 0 -1 0 792)" d="M286.803 85.619L287.053 85.87901C 287.193 86.02901 287.433 86.139 287.573 86.139C 287.733 86.139 287.953 86.009 288.153 85.799L288.153 85.799L287.863 85.389C 287.713 85.469 287.563 85.539 287.393 85.539C 287.083 85.539 286.813 85.229 286.813 84.439L286.813 84.439L286.813 82.569L286.813 82.569L286.193 82.569L286.193 82.569L286.193 86.049L286.193 86.049L286.803 86.049L286.803 86.049L286.803 85.619z" stroke="none" fill="#221E1F" fill-rule="nonzero" /><path id="543" transform="matrix(1 0 0 -1 0 792)" d="M298.523 86.954L296.793 86.954L296.793 85.104L298.483 85.104L298.483 84.61401L296.793 84.61401L296.793 82.57401L296.133 82.57401L296.133 87.444L298.523 87.444L298.523 86.954z" stroke="none" fill="#221E1F" fill-rule="nonzero" /><path id="544" transform="matrix(1 0 0 -1 0 792)" d="M300.011 85.619L300.261 85.87901C 300.401 86.02901 300.641 86.139 300.781 86.139C 300.931 86.139 301.161 86.009 301.361 85.799L301.361 85.799L301.071 85.389C 300.921 85.469 300.771 85.539 300.601 85.539C 300.291 85.539 300.021 85.229 300.021 84.439L300.021 84.439L300.021 82.569L300.021 82.569L299.401 82.569L299.401 82.569L299.401 86.049L299.401 86.049L300.011 86.049L300.011 86.049L300.011 85.619z" stroke="none" fill="#221E1F" fill-rule="nonzero" /><path id="545" transform="matrix(1 0 0 -1 0 792)" d="M303.058 84.43999C 302.508 84.27 302.228 84.00999 302.228 83.57C 302.228 83.21 302.478 82.98 302.728 82.98C 303.178 82.98 303.748 83.53 303.658 84.61L303.658 84.61L303.058 84.43999zM303.438 82.95C 303.198 82.71 302.888 82.49 302.568 82.49C 301.988 82.49 301.578 82.91 301.578 83.56C 301.578 84.17 302.098 84.53999 302.818 84.75999L302.818 84.75999L303.658 85.03C 303.628 85.43999 303.308 85.71999 302.968 85.71999C 302.558 85.71999 302.308 85.56 302.058 85.34L302.058 85.34L301.808 85.66C 302.158 86 302.508 86.13 302.998 86.13C 303.518 86.13 304.288 85.96999 304.288 84.95L304.288 84.95L304.288 83.42C 304.288 83.16 304.318 82.82 304.438 82.57L304.438 82.57L303.758 82.57C 303.678 82.71999 303.658 82.93999 303.658 83.17L303.658 83.17L303.438 82.95z" stroke="none" fill="#221E1F" fill-rule="nonzero" /><path id="546" transform="matrix(1 0 0 -1 0 792)" d="M305.913 85.619C 306.243 85.969 306.743 86.139 307.103 86.139C 307.903 86.139 308.333 85.689 308.333 84.80901L308.333 84.80901L308.333 82.569L308.333 82.569L307.703 82.569L307.703 82.569L307.703 84.679C 307.703 85.329 307.433 85.679 306.863 85.679C 306.373 85.679 305.923 85.329 305.923 84.66901L305.923 84.66901L305.923 82.569L305.923 82.569L305.293 82.569L305.293 82.569L305.293 86.049L305.293 86.049L305.913 86.049L305.913 86.049L305.913 85.619z" stroke="none" fill="#221E1F" fill-rule="nonzero" /><path id="547" transform="matrix(1 0 0 -1 0 792)" d="M312.032 82.851C 311.692 82.611 311.282 82.491 310.982 82.491C 309.342 82.491 309.122 83.841 309.122 84.321C 309.122 85.19099 309.702 86.131 311.012 86.131C 311.362 86.131 311.682 86.041 311.942 85.841L311.942 85.841L311.742 85.491C 311.542 85.591 311.272 85.671 311.022 85.671C 310.442 85.671 309.802 85.30099 309.802 84.341C 309.802 83.631 310.172 82.94099 311.012 82.94099C 311.312 82.94099 311.582 83.021 311.862 83.201L311.862 83.201L312.032 82.851z" stroke="none" fill="#221E1F" fill-rule="nonzero" /><path id="548" transform="matrix(1 0 0 -1 0 792)" d="M312.622 87.196C 312.622 87.376 312.772 87.566 313.012 87.566C 313.272 87.566 313.412 87.376 313.412 87.196C 313.412 87.006 313.312 86.776 313.012 86.776C 312.712 86.776 312.622 87.006 312.622 87.196" stroke="none" fill="#221E1F" fill-rule="nonzero" /><path id="549" transform="matrix(1 0 0 -1 0 792)" d="M312.706 86.05L313.336 86.05L313.336 82.56999L312.706 82.56999z" stroke="none" fill="#221E1F" fill-rule="nonzero" /><path id="550" transform="matrix(1 0 0 -1 0 792)" d="M315.994 85.494C 315.744 85.664 315.544 85.714 315.354 85.714C 315.134 85.714 314.844 85.61401 314.844 85.314C 314.844 85.024 315.164 84.884 315.564 84.584C 316.014 84.244 316.304 83.954 316.304 83.47401C 316.304 82.884 315.724 82.494 315.084 82.494C 314.684 82.494 314.244 82.664 314.014 82.924L314.014 82.924L314.314 83.284C 314.524 83.104 314.804 82.93401 315.064 82.93401C 315.364 82.93401 315.664 83.084 315.664 83.424C 315.664 83.834 315.304 84.00401 314.974 84.244C 314.574 84.524 314.224 84.764 314.224 85.234C 314.224 85.784 314.774 86.134 315.384 86.134C 315.724 86.134 316.054 85.984 316.234 85.814L316.234 85.814L315.994 85.494z" stroke="none" fill="#221E1F" fill-rule="nonzero" /><path id="551" transform="matrix(1 0 0 -1 0 792)" d="M322.754 84.798L322.754 82.81799C 322.284 82.64799 321.694 82.488 321.074 82.488C 319.344 82.488 318.464 83.688 318.464 85.018C 318.464 86.24799 319.404 87.528 321.164 87.528C 321.874 87.528 322.424 87.28799 322.714 87.048L322.714 87.048L322.444 86.64799C 322.164 86.848 321.704 87.03799 321.164 87.03799C 319.904 87.03799 319.194 86.17799 319.194 85.03799C 319.194 83.808 320.034 82.978 321.094 82.978C 321.504 82.978 321.804 83.018 322.084 83.14799L322.084 83.14799L322.084 84.798L322.084 84.798L322.754 84.798z" stroke="none" fill="#221E1F" fill-rule="nonzero" /><path id="552" transform="matrix(1 0 0 -1 0 792)" d="M324.38 85.619L324.63 85.87901C 324.77 86.02901 325.01 86.139 325.15 86.139C 325.31 86.139 325.53 86.009 325.73 85.799L325.73 85.799L325.44 85.389C 325.29 85.469 325.14 85.539 324.97 85.539C 324.66 85.539 324.4 85.229 324.4 84.439L324.4 84.439L324.4 82.569L324.4 82.569L323.77 82.569L323.77 82.569L323.77 86.049L323.77 86.049L324.38 86.049L324.38 86.049L324.38 85.619z" stroke="none" fill="#221E1F" fill-rule="nonzero" /><path id="553" transform="matrix(1 0 0 -1 0 792)" d="M326.622 84.354C 326.622 83.70399 326.842 82.934 327.662 82.934C 328.482 82.934 328.702 83.70399 328.702 84.354C 328.702 84.98399 328.442 85.684 327.662 85.684C 326.882 85.684 326.622 84.98399 326.622 84.354M325.952 84.354C 325.952 85.48399 326.782 86.134 327.662 86.134C 328.542 86.134 329.382 85.48399 329.382 84.354C 329.382 83.27399 328.692 82.494 327.662 82.494C 326.642 82.494 325.952 83.27399 325.952 84.354" stroke="none" fill="#221E1F" fill-rule="nonzero" /><path id="554" transform="matrix(1 0 0 -1 0 792)" d="M332.494 82.977C 332.144 82.667 331.824 82.487 331.374 82.487C 330.574 82.487 330.144 82.937 330.144 83.81699L330.144 83.81699L330.144 86.047L330.144 86.047L330.774 86.047L330.774 86.047L330.774 83.947C 330.774 83.297 331.054 82.947 331.614 82.947C 332.104 82.947 332.484 83.347 332.484 84.017L332.484 84.017L332.484 86.047L332.484 86.047L333.114 86.047L333.114 86.047L333.114 82.587L333.114 82.587L332.494 82.587L332.494 82.587L332.494 82.977z" stroke="none" fill="#221E1F" fill-rule="nonzero" /><path id="555" transform="matrix(1 0 0 -1 0 792)" d="M336.828 84.41901C 336.828 85.039 336.508 85.689 335.858 85.689C 335.148 85.689 334.768 85.139 334.768 84.23901C 334.768 83.579 335.078 82.939 335.848 82.939C 336.598 82.939 336.828 83.779 336.828 84.41901M334.768 85.509L334.778 85.509C 335.038 85.929 335.528 86.139 335.918 86.139C 337.278 86.139 337.498 84.91901 337.498 84.41901C 337.498 83.359 336.878 82.48901 335.848 82.48901C 335.418 82.48901 335.038 82.69901 334.778 83.029L334.778 83.029L334.768 83.029L334.768 83.029L334.768 80.839L334.768 80.839L334.138 80.839L334.138 80.839L334.138 86.049L334.138 86.049L334.768 86.049L334.768 86.049L334.768 85.509z" stroke="none" fill="#221E1F" fill-rule="nonzero" /><path id="556" transform="matrix(1 0 0 -1 0 792)" d="M291.598 82.95399C 290.858 82.95399 290.508 83.564 290.508 84.004C 290.508 84.404 290.698 84.77399 291.138 85.004L291.138 85.004L292.778 83.544C 292.578 83.254 292.128 82.95399 291.598 82.95399M293.468 83.714C 293.698 84.174 293.728 84.694 293.648 85.104L293.648 85.104L293.098 85.104C 293.208 84.744 293.228 84.324 293.088 84.044L293.088 84.044L291.538 85.504C 291.058 85.944 290.878 86.194 290.878 86.474C 290.878 86.784 291.108 87.034 291.558 87.034C 291.858 87.034 292.128 86.874 292.248 86.80399L292.248 86.80399L292.498 87.194C 292.188 87.404 291.878 87.52399 291.498 87.52399C 290.718 87.52399 290.198 87.004 290.198 86.444C 290.198 85.944 290.558 85.604 290.828 85.354C 290.258 85.084 289.788 84.584 289.788 83.944C 289.788 83.644 290.008 82.494 291.518 82.494C 292.198 82.494 292.748 82.794 293.118 83.224L293.118 83.224L293.918 82.494L293.918 82.494L294.528 82.80399L294.528 82.80399L293.468 83.714z" stroke="none" fill="#221E1F" fill-rule="nonzero" /><path id="557" transform="matrix(1 0 0 -1 0 792)" d="M280.588 82.58L281.158 82.58L281.158 87.71L280.588 87.71z" stroke="none" fill="#221E1F" fill-rule="nonzero" /><path id="558" transform="matrix(1 0 0 -1 0 792)" d="M233.363 89.006C 233.363 97.696 240.413 104.766 249.123 104.766C 257.823 104.766 264.873 97.696 264.873 89.006C 264.873 80.31599 257.823 73.24599 249.123 73.24599C 240.413 73.24599 233.363 80.31599 233.363 89.006z" stroke="#221E1F" stroke-width="1.008" fill="none" /><path id="559" transform="matrix(1 0 0 -1 0 792)" d="M244.067 90.62L243.777 87.34L243.777 87.34L242.387 86.79C 242.317 87.87 241.427 89.36 240.047 88.38C 238.997 87.64 238.687 86.13 238.687 84.94C 238.687 83.60001 239.277 82.01 240.447 82.07C 241.597 82.13 242.317 83.9 242.317 83.9L242.317 83.9L244.317 84.63C 243.877 83.2 243.187 80.64 240.417 80.59C 237.897 80.54 236.477 82.51 236.477 84.73C 236.477 86.29 236.587 87.44 237.577 88.65C 238.397 89.68 239.337 90.10001 240.677 90.10001C 241.377 90.10001 241.997 89.7 242.407 89.55L242.407 89.55L242.697 90.16L242.697 90.16L244.067 90.62z" stroke="none" fill="#221E1F" fill-rule="nonzero" /><path id="560" transform="matrix(1 0 0 -1 0 792)" d="M260.681 97.69L260.391 94.41L260.391 94.41L259.001 93.86C 258.931 94.94 258.041 96.43 256.651 95.45C 255.611 94.71 255.301 93.2 255.301 92C 255.301 90.67001 255.891 89.08 257.061 89.14C 258.211 89.2 258.931 90.97 258.931 90.97L258.931 90.97L261.061 91.75C 260.651 90.35001 259.851 87.81001 257.031 87.66C 254.511 87.52 253.091 89.60001 253.091 91.8C 253.091 93.36 253.201 94.51 254.191 95.72C 255.011 96.76 255.951 97.17001 257.291 97.17001C 257.991 97.17001 258.611 96.77 259.021 96.61L259.021 96.61L259.241 97.06001L259.241 97.06001L260.681 97.69z" stroke="none" fill="#221E1F" fill-rule="nonzero" /><path id="561" transform="matrix(1 0 0 -1 0 792)" d="M250.005 94.099L244.825 91.989L244.825 91.989L244.685 90.269L244.685 90.269L245.785 90.71899L245.785 90.71899L245.005 83.879L245.005 83.879L244.325 83.619L244.325 83.619L244.225 82.239L244.225 82.239L247.915 83.789L247.915 83.789L247.995 85.089L247.995 85.089L247.235 84.769L247.235 84.769L247.535 87.429L247.535 87.429L248.785 87.959L248.785 87.959L250.175 86.07899L250.175 86.07899L249.475 85.769L249.475 85.769L249.355 84.46899L249.355 84.46899L254.035 86.409L254.035 86.409L254.175 87.699L254.175 87.699L252.575 87.059L252.575 87.059L251.015 89.069C 253.835 90.429 252.815 94.82899 250.005 94.099M249.545 89.949L247.685 89.159L247.685 89.159L247.925 91.71899L247.925 91.71899L249.435 92.339C 250.605 92.819 250.835 90.509 249.545 89.949" stroke="none" fill="#221E1F" fill-rule="nonzero" /></g></g></g></svg>