<svg xmlns="http://www.w3.org/2000/svg" xmlns:xlink="http://www.w3.org/1999/xlink" id="body_2" preserveAspectRatio="xMinYMin meet" viewBox="0 0 792 1056"><defs><clipPath id="1"><path id="" clip-rule="evenodd" transform="matrix(1 0 0 1 0 0)" d="M0 792L0 0L0 0L594 0L594 0L594 792L594 792L0 792z" /></clipPath><clipPath id="2"><path id="" clip-rule="evenodd" transform="matrix(1 0 0 1 0 0)" d="M3.95978 835.56L590.0405 835.56L590.0405 835.56L590.0405 -43.56055L590.0405 -43.56055L3.95978 -43.56055z" /></clipPath><clipPath id="3"><path id="" clip-rule="evenodd" transform="matrix(1 0 0 1 0 0)" d="M3.95978 473.6999L590.043 473.6999L590.043 473.6999L590.043 318.299L590.043 318.299L3.95978 318.299z" /></clipPath><style type="text/css"><![CDATA[
a { cursor: pointer; }
]]></style></defs><g transform="matrix(1.333333 0 0 1.333333 0 0)"><g clip-path="url(#1)"><g><g clip-path="url(#2)"><g><g clip-path="url(#3)"><g transform="matrix(0.3543429 0 0 0.3539883 3.95978 318.299)"><g transform="matrix(1 0 0 1 0 0)"><a xlink:href="https://taylorandfrancis.com" target="_parent"><image x="0" y="0" xlink:href="img_03.png" width="1654" height="439" /></a></g></g></g></g></g></g></g></g></svg>