<svg xmlns="http://www.w3.org/2000/svg" xmlns:xlink="http://www.w3.org/1999/xlink" id="body_72" preserveAspectRatio="xMinYMin meet" viewBox="0 0 792 1056"><defs><clipPath id="1"><path id="" clip-rule="evenodd" transform="matrix(1 0 0 1 0 0)" d="M0 792L0 0L0 0L594 0L594 0L594 792L594 792L0 792z" /></clipPath><clipPath id="2"><path id="" clip-rule="evenodd" transform="matrix(1 0 0 1 0 0)" d="M0 792L594 792L594 792L594 0L594 0L0 0z" /></clipPath><clipPath id="3"><path id="" clip-rule="evenodd" transform="matrix(1 0 0 1 0 0)" d="M147 710.4L447.001 710.4L447.001 710.4L447.001 267.361L447.001 267.361L147 267.361z" /></clipPath></defs><g transform="matrix(1.333333 0 0 1.333333 0 0)"><g clip-path="url(#1)"><g clip-path="url(#2)"></g><g clip-path="url(#3)"><g transform="matrix(0.48 0 0 0.48 147 267.36)"><g transform="matrix(1 0 0 1 0 0)"><image x="0" y="0" xlink:href="img_124.png" width="625" height="923" /></g></g></g></g></g></svg>