<svg xmlns="http://www.w3.org/2000/svg" xmlns:xlink="http://www.w3.org/1999/xlink" id="body_78" preserveAspectRatio="xMinYMin meet" viewBox="0 0 792 1056"><defs><clipPath id="1"><path id="" clip-rule="evenodd" transform="matrix(1 0 0 1 0 0)" d="M0 792L0 0L0 0L594 0L594 0L594 792L594 792L0 792z" /></clipPath><clipPath id="2"><path id="" clip-rule="evenodd" transform="matrix(1 0 0 1 0 0)" d="M141 344.28L452.999 344.28L452.999 344.28L452.999 63L452.999 63L141 63z" /></clipPath></defs><g transform="matrix(1.333333 0 0 1.333333 0 0)"><g clip-path="url(#1)"><g clip-path="url(#2)"><g transform="matrix(0.48 0 0 0.48 141 63)"><g transform="matrix(1 0 0 1 0 0)"><image x="0" y="0" xlink:href="img_136.png" width="650" height="586" /></g></g></g></g></g></svg>