<svg xmlns="http://www.w3.org/2000/svg" xmlns:xlink="http://www.w3.org/1999/xlink" id="body_64" preserveAspectRatio="xMinYMin meet" viewBox="0 0 576 864"><defs><clipPath id="1"><path id="" clip-rule="evenodd" transform="matrix(1 0 0 1 0 0)" d="M0 648L0 0L0 0L432 0L432 0L432 648L432 648L0 648z" /></clipPath></defs><g transform="matrix(1.333333 0 0 1.333333 0 0)"><g clip-path="url(#1)"><path id="664" transform="matrix(1 0 0 -1 0 648)" d="M171 251.5L279 251.5" stroke="#221E1F" stroke-width="0.5" fill="none" /><path id="665" transform="matrix(1 0 0 -1 0 648)" d="M279 510.75L279 545.24" stroke="#221E1F" stroke-width="0.5" fill="none" /><path id="666" transform="matrix(1 0 0 -1 0 648)" d="M279 499.25L279 510.74" stroke="#221E1F" stroke-width="0.5" fill="none" /><path id="667" transform="matrix(1 0 0 -1 0 648)" d="M279 487.75L279 499.24" stroke="#221E1F" stroke-width="0.5" fill="none" /><path id="668" transform="matrix(1 0 0 -1 0 648)" d="M279 464.75L279 487.75" stroke="#221E1F" stroke-width="0.5" fill="none" /><path id="669" transform="matrix(1 0 0 -1 0 648)" d="M279 441.75L279 464.75" stroke="#221E1F" stroke-width="0.5" fill="none" /><path id="670" transform="matrix(1 0 0 -1 0 648)" d="M279 430.25L279 441.74" stroke="#221E1F" stroke-width="0.5" fill="none" /><path id="671" transform="matrix(1 0 0 -1 0 648)" d="M279 395.75L279 430.24" stroke="#221E1F" stroke-width="0.5" fill="none" /><path id="672" transform="matrix(1 0 0 -1 0 648)" d="M279 361.25L279 395.74" stroke="#221E1F" stroke-width="0.5" fill="none" /><path id="673" transform="matrix(1 0 0 -1 0 648)" d="M279 280.75L279 361.24" stroke="#221E1F" stroke-width="0.5" fill="none" /><path id="674" transform="matrix(1 0 0 -1 0 648)" d="M279 269.25L279 280.74" stroke="#221E1F" stroke-width="0.5" fill="none" /><path id="675" transform="matrix(1 0 0 -1 0 648)" d="M171 510.75L171 545.24" stroke="#221E1F" stroke-width="0.5" fill="none" /><path id="676" transform="matrix(1 0 0 -1 0 648)" d="M171 499.25L171 510.74" stroke="#221E1F" stroke-width="0.5" fill="none" /><path id="677" transform="matrix(1 0 0 -1 0 648)" d="M171 487.75L171 499.24" stroke="#221E1F" stroke-width="0.5" fill="none" /><path id="678" transform="matrix(1 0 0 -1 0 648)" d="M171 464.75L171 487.75" stroke="#221E1F" stroke-width="0.5" fill="none" /><path id="679" transform="matrix(1 0 0 -1 0 648)" d="M171 441.75L171 464.75" stroke="#221E1F" stroke-width="0.5" fill="none" /><path id="680" transform="matrix(1 0 0 -1 0 648)" d="M171 430.25L171 441.74" stroke="#221E1F" stroke-width="0.5" fill="none" /><path id="681" transform="matrix(1 0 0 -1 0 648)" d="M171 395.75L171 430.24" stroke="#221E1F" stroke-width="0.5" fill="none" /><path id="682" transform="matrix(1 0 0 -1 0 648)" d="M171 361.25L171 395.74" stroke="#221E1F" stroke-width="0.5" fill="none" /><path id="683" transform="matrix(1 0 0 -1 0 648)" d="M171 280.75L171 361.24" stroke="#221E1F" stroke-width="0.5" fill="none" /><path id="684" transform="matrix(1 0 0 -1 0 648)" d="M171 269.25L171 280.74" stroke="#221E1F" stroke-width="0.5" fill="none" /><path id="685" transform="matrix(1 0 0 -1 0 648)" d="M279 251.75L279 269.24" stroke="#221E1F" stroke-width="0.5" fill="none" /><path id="686" transform="matrix(1 0 0 -1 0 648)" d="M279 251.5L354.49 251.5" stroke="#221E1F" stroke-width="0.5" fill="none" /><path id="687" transform="matrix(1 0 0 -1 0 648)" d="M171 251.75L171 269.24" stroke="#221E1F" stroke-width="0.5" fill="none" /><path id="688" transform="matrix(1 0 0 -1 0 648)" d="M63 251.5L171 251.5" stroke="#221E1F" stroke-width="0.5" fill="none" /><path id="689" transform="matrix(1 0 0 -1 0 648)" d="M171 561L279 561" stroke="#221E1F" stroke-width="0.5" fill="none" /><path id="690" transform="matrix(1 0 0 -1 0 648)" d="M171 545.5L279 545.5" stroke="#221E1F" stroke-width="0.5" fill="none" /><path id="691" transform="matrix(1 0 0 -1 0 648)" d="M279 561L354.49 561" stroke="#221E1F" stroke-width="0.5" fill="none" /><path id="692" transform="matrix(1 0 0 -1 0 648)" d="M279 545.5L354.49 545.5" stroke="#221E1F" stroke-width="0.5" fill="none" /><path id="693" transform="matrix(1 0 0 -1 0 648)" d="M63 561L171 561" stroke="#221E1F" stroke-width="0.5" fill="none" /><path id="694" transform="matrix(1 0 0 -1 0 648)" d="M63 545.5L171 545.5" stroke="#221E1F" stroke-width="0.5" fill="none" /></g></g></svg>