<svg xmlns="http://www.w3.org/2000/svg" xmlns:xlink="http://www.w3.org/1999/xlink" id="body_70" preserveAspectRatio="xMinYMin meet" viewBox="0 0 576 864"><defs><clipPath id="1"><path id="" clip-rule="evenodd" transform="matrix(1 0 0 1 0 0)" d="M0 648L0 0L0 0L432 0L432 0L432 648L432 648L0 648z" /></clipPath></defs><g transform="matrix(1.333333 0 0 1.333333 0 0)"><g clip-path="url(#1)"><path id="148" transform="matrix(1 0 0 -1 0 648)" d="M98 498.25L98 544.25" stroke="#221E1F" stroke-width="0.5" fill="none" /><path id="149" transform="matrix(1 0 0 -1 0 648)" d="M98 446.5L98 498.25" stroke="#221E1F" stroke-width="0.5" fill="none" /><path id="150" transform="matrix(1 0 0 -1 0 648)" d="M98 396L98 430.49" stroke="#221E1F" stroke-width="0.5" fill="none" /><path id="151" transform="matrix(1 0 0 -1 0 648)" d="M98 332.75L98 396" stroke="#221E1F" stroke-width="0.5" fill="none" /><path id="152" transform="matrix(1 0 0 -1 0 648)" d="M98 282.25L98 316.74" stroke="#221E1F" stroke-width="0.5" fill="none" /><path id="153" transform="matrix(1 0 0 -1 0 648)" d="M98 173L98 282.25" stroke="#221E1F" stroke-width="0.5" fill="none" /><path id="154" transform="matrix(1 0 0 -1 0 648)" d="M98 122.5L98 156.99" stroke="#221E1F" stroke-width="0.5" fill="none" /><path id="155" transform="matrix(1 0 0 -1 0 648)" d="M98 59.25L98 122.5" stroke="#221E1F" stroke-width="0.5" fill="none" /><path id="156" transform="matrix(1 0 0 -1 0 648)" d="M63 544.5L98 544.5" stroke="#221E1F" stroke-width="0.5" fill="none" /><path id="157" transform="matrix(1 0 0 -1 0 648)" d="M98 544.5L387 544.5" stroke="#221E1F" stroke-width="0.5" fill="none" /><path id="158" transform="matrix(1 0 0 -1 0 648)" d="M63 560L98 560" stroke="#221E1F" stroke-width="0.5" fill="none" /><path id="159" transform="matrix(1 0 0 -1 0 648)" d="M98 560L387 560" stroke="#221E1F" stroke-width="0.5" fill="none" /><path id="160" transform="matrix(1 0 0 -1 0 648)" d="M63 430.75L98 430.75" stroke="#221E1F" stroke-width="0.5" fill="none" /><path id="161" transform="matrix(1 0 0 -1 0 648)" d="M98 430.75L387 430.75" stroke="#221E1F" stroke-width="0.5" fill="none" /><path id="162" transform="matrix(1 0 0 -1 0 648)" d="M63 446.25L98 446.25" stroke="#221E1F" stroke-width="0.5" fill="none" /><path id="163" transform="matrix(1 0 0 -1 0 648)" d="M98 446.25L387 446.25" stroke="#221E1F" stroke-width="0.5" fill="none" /><path id="164" transform="matrix(1 0 0 -1 0 648)" d="M63 317L98 317" stroke="#221E1F" stroke-width="0.5" fill="none" /><path id="165" transform="matrix(1 0 0 -1 0 648)" d="M98 317L387 317" stroke="#221E1F" stroke-width="0.5" fill="none" /><path id="166" transform="matrix(1 0 0 -1 0 648)" d="M63 332.5L98 332.5" stroke="#221E1F" stroke-width="0.5" fill="none" /><path id="167" transform="matrix(1 0 0 -1 0 648)" d="M98 332.5L387 332.5" stroke="#221E1F" stroke-width="0.5" fill="none" /><path id="168" transform="matrix(1 0 0 -1 0 648)" d="M63 157.25L98 157.25" stroke="#221E1F" stroke-width="0.5" fill="none" /><path id="169" transform="matrix(1 0 0 -1 0 648)" d="M98 157.25L387 157.25" stroke="#221E1F" stroke-width="0.5" fill="none" /><path id="170" transform="matrix(1 0 0 -1 0 648)" d="M63 172.75L98 172.75" stroke="#221E1F" stroke-width="0.5" fill="none" /><path id="171" transform="matrix(1 0 0 -1 0 648)" d="M98 172.75L387 172.75" stroke="#221E1F" stroke-width="0.5" fill="none" /><path id="172" transform="matrix(1 0 0 -1 0 648)" d="M63 59L98 59" stroke="#221E1F" stroke-width="0.5" fill="none" /><path id="173" transform="matrix(1 0 0 -1 0 648)" d="M98 59L387 59" stroke="#221E1F" stroke-width="0.5" fill="none" /></g></g></svg>