<svg xmlns="http://www.w3.org/2000/svg" xmlns:xlink="http://www.w3.org/1999/xlink" id="body_10" preserveAspectRatio="xMinYMin meet" viewBox="0 0 576 864"><defs><clipPath id="1"><path id="" clip-rule="evenodd" transform="matrix(1 0 0 1 0 0)" d="M0 648L0 0L0 0L432 0L432 0L432 648L432 648L0 648z" /></clipPath></defs><g transform="matrix(1.333333 0 0 1.333333 0 0)"><g clip-path="url(#1)"><path id="1191" transform="matrix(1 0 0 -1 0 648)" d="M206.5 399.374L287.5 399.374" stroke="#221E1F" stroke-width="0.5" fill="none" /><path id="1192" transform="matrix(1 0 0 -1 0 648)" d="M206.5 520.624L206.5 532.114" stroke="#221E1F" stroke-width="0.5" fill="none" /><path id="1193" transform="matrix(1 0 0 -1 0 648)" d="M206.5 509.124L206.5 520.614" stroke="#221E1F" stroke-width="0.5" fill="none" /><path id="1194" transform="matrix(1 0 0 -1 0 648)" d="M206.5 497.624L206.5 509.114" stroke="#221E1F" stroke-width="0.5" fill="none" /><path id="1195" transform="matrix(1 0 0 -1 0 648)" d="M206.5 474.624L206.5 497.624" stroke="#221E1F" stroke-width="0.5" fill="none" /><path id="1196" transform="matrix(1 0 0 -1 0 648)" d="M206.5 451.624L206.5 474.624" stroke="#221E1F" stroke-width="0.5" fill="none" /><path id="1197" transform="matrix(1 0 0 -1 0 648)" d="M206.5 399.624L206.5 451.624" stroke="#221E1F" stroke-width="0.5" fill="none" /><path id="1198" transform="matrix(1 0 0 -1 0 648)" d="M125.5 399.374L206.5 399.374" stroke="#221E1F" stroke-width="0.5" fill="none" /><path id="1199" transform="matrix(1 0 0 -1 0 648)" d="M287.5 520.624L287.5 532.114" stroke="#221E1F" stroke-width="0.5" fill="none" /><path id="1200" transform="matrix(1 0 0 -1 0 648)" d="M287.5 509.124L287.5 520.614" stroke="#221E1F" stroke-width="0.5" fill="none" /><path id="1201" transform="matrix(1 0 0 -1 0 648)" d="M287.5 497.624L287.5 509.114" stroke="#221E1F" stroke-width="0.5" fill="none" /><path id="1202" transform="matrix(1 0 0 -1 0 648)" d="M287.5 474.624L287.5 497.624" stroke="#221E1F" stroke-width="0.5" fill="none" /><path id="1203" transform="matrix(1 0 0 -1 0 648)" d="M287.5 451.624L287.5 474.624" stroke="#221E1F" stroke-width="0.5" fill="none" /><path id="1204" transform="matrix(1 0 0 -1 0 648)" d="M125.5 520.624L125.5 532.114" stroke="#221E1F" stroke-width="0.5" fill="none" /><path id="1205" transform="matrix(1 0 0 -1 0 648)" d="M125.5 509.124L125.5 520.614" stroke="#221E1F" stroke-width="0.5" fill="none" /><path id="1206" transform="matrix(1 0 0 -1 0 648)" d="M125.5 497.624L125.5 509.114" stroke="#221E1F" stroke-width="0.5" fill="none" /><path id="1207" transform="matrix(1 0 0 -1 0 648)" d="M125.5 474.624L125.5 497.624" stroke="#221E1F" stroke-width="0.5" fill="none" /><path id="1208" transform="matrix(1 0 0 -1 0 648)" d="M125.5 451.624L125.5 474.624" stroke="#221E1F" stroke-width="0.5" fill="none" /><path id="1209" transform="matrix(1 0 0 -1 0 648)" d="M287.5 399.624L287.5 451.624" stroke="#221E1F" stroke-width="0.5" fill="none" /><path id="1210" transform="matrix(1 0 0 -1 0 648)" d="M287.5 399.374L368.5 399.374" stroke="#221E1F" stroke-width="0.5" fill="none" /><path id="1211" transform="matrix(1 0 0 -1 0 648)" d="M125.5 399.624L125.5 451.624" stroke="#221E1F" stroke-width="0.5" fill="none" /><path id="1212" transform="matrix(1 0 0 -1 0 648)" d="M44.5 399.374L125.5 399.374" stroke="#221E1F" stroke-width="0.5" fill="none" /><path id="1213" transform="matrix(1 0 0 -1 0 648)" d="M125.5 558.874L206.5 558.874" stroke="#221E1F" stroke-width="0.5" fill="none" /><path id="1214" transform="matrix(1 0 0 -1 0 648)" d="M125.5 532.374L206.5 532.374" stroke="#221E1F" stroke-width="0.5" fill="none" /><path id="1215" transform="matrix(1 0 0 -1 0 648)" d="M206.5 558.874L287.5 558.874" stroke="#221E1F" stroke-width="0.5" fill="none" /><path id="1216" transform="matrix(1 0 0 -1 0 648)" d="M206.5 532.374L287.5 532.374" stroke="#221E1F" stroke-width="0.5" fill="none" /><path id="1217" transform="matrix(1 0 0 -1 0 648)" d="M287.5 558.874L368.5 558.874" stroke="#221E1F" stroke-width="0.5" fill="none" /><path id="1218" transform="matrix(1 0 0 -1 0 648)" d="M287.5 532.374L368.5 532.374" stroke="#221E1F" stroke-width="0.5" fill="none" /><path id="1219" transform="matrix(1 0 0 -1 0 648)" d="M44.5 558.874L125.5 558.874" stroke="#221E1F" stroke-width="0.5" fill="none" /><path id="1220" transform="matrix(1 0 0 -1 0 648)" d="M44.5 532.374L125.5 532.374" stroke="#221E1F" stroke-width="0.5" fill="none" /></g></g></svg>