<svg xmlns="http://www.w3.org/2000/svg" xmlns:xlink="http://www.w3.org/1999/xlink" id="body_46" preserveAspectRatio="xMinYMin meet" viewBox="0 0 576 864"><defs><clipPath id="1"><path id="" clip-rule="evenodd" transform="matrix(1 0 0 1 0 0)" d="M0 648L0 0L0 0L432 0L432 0L432 648L432 648L0 648z" /></clipPath></defs><g transform="matrix(1.333333 0 0 1.333333 0 0)"><g clip-path="url(#1)"><g transform="matrix(0.36 0 0 0.359881 79.92 65)"><g transform="matrix(1 0 0 1 0 0)"><image x="0" y="0" xlink:href="img_79.png" width="806" height="605" /></g></g><g transform="matrix(0.3599188 0 0 0.3595325 65.376 360.75)"><g transform="matrix(1 0 0 1 0 0)"><image x="0" y="0" xlink:href="img_80.png" width="887" height="308" /></g></g></g></g></svg>