<svg xmlns="http://www.w3.org/2000/svg" xmlns:xlink="http://www.w3.org/1999/xlink" id="body_66" preserveAspectRatio="xMinYMin meet" viewBox="0 0 864 575"><defs><clipPath id="1"><path id="" clip-rule="evenodd" transform="matrix(1 0 0 1 0 0)" d="M0 -1L648 -1L648 -1L648 431L648 431L2.64515E-14 431L2.64515E-14 431L0 -1z" /></clipPath></defs><g transform="matrix(1.333333 0 0 1.333333 0 0)"><g clip-path="url(#1)"><path id="1" transform="matrix(1 0 0 -1 0 431)" d="M408.333 154.25L408.333 315.25" stroke="#221E1F" stroke-width="0.5" fill="none" /><path id="2" transform="matrix(1 0 0 -1 0 431)" d="M408.333 131.25L408.333 154.25" stroke="#221E1F" stroke-width="0.5" fill="none" /><path id="3" transform="matrix(1 0 0 -1 0 431)" d="M408.333 85.25L408.333 131.25" stroke="#221E1F" stroke-width="0.5" fill="none" /><path id="4" transform="matrix(1 0 0 -1 0 431)" d="M408.333 62.25L408.333 85.25" stroke="#221E1F" stroke-width="0.5" fill="none" /><path id="5" transform="matrix(1 0 0 -1 0 431)" d="M321 154.25L321 315.25" stroke="#221E1F" stroke-width="0.5" fill="none" /><path id="6" transform="matrix(1 0 0 -1 0 431)" d="M321 131.25L321 154.25" stroke="#221E1F" stroke-width="0.5" fill="none" /><path id="7" transform="matrix(1 0 0 -1 0 431)" d="M321 85.25L321 131.25" stroke="#221E1F" stroke-width="0.5" fill="none" /><path id="8" transform="matrix(1 0 0 -1 0 431)" d="M321 62.25L321 85.25" stroke="#221E1F" stroke-width="0.5" fill="none" /><path id="9" transform="matrix(1 0 0 -1 0 431)" d="M233.667 154.25L233.667 315.25" stroke="#221E1F" stroke-width="0.5" fill="none" /><path id="10" transform="matrix(1 0 0 -1 0 431)" d="M233.667 131.25L233.667 154.25" stroke="#221E1F" stroke-width="0.5" fill="none" /><path id="11" transform="matrix(1 0 0 -1 0 431)" d="M233.667 85.25L233.667 131.25" stroke="#221E1F" stroke-width="0.5" fill="none" /><path id="12" transform="matrix(1 0 0 -1 0 431)" d="M233.667 62.25L233.667 85.25" stroke="#221E1F" stroke-width="0.5" fill="none" /><path id="13" transform="matrix(1 0 0 -1 0 431)" d="M495.667 154.25L495.667 315.25" stroke="#221E1F" stroke-width="0.5" fill="none" /><path id="14" transform="matrix(1 0 0 -1 0 431)" d="M495.667 131.25L495.667 154.25" stroke="#221E1F" stroke-width="0.5" fill="none" /><path id="15" transform="matrix(1 0 0 -1 0 431)" d="M495.667 85.25L495.667 131.25" stroke="#221E1F" stroke-width="0.5" fill="none" /><path id="16" transform="matrix(1 0 0 -1 0 431)" d="M495.667 62.25L495.667 85.25" stroke="#221E1F" stroke-width="0.5" fill="none" /><path id="17" transform="matrix(1 0 0 -1 0 431)" d="M146.333 154.25L146.333 315.25" stroke="#221E1F" stroke-width="0.5" fill="none" /><path id="18" transform="matrix(1 0 0 -1 0 431)" d="M146.333 131.25L146.333 154.25" stroke="#221E1F" stroke-width="0.5" fill="none" /><path id="19" transform="matrix(1 0 0 -1 0 431)" d="M146.333 85.25L146.333 131.25" stroke="#221E1F" stroke-width="0.5" fill="none" /><path id="20" transform="matrix(1 0 0 -1 0 431)" d="M146.333 62.25L146.333 85.25" stroke="#221E1F" stroke-width="0.5" fill="none" /><path id="21" transform="matrix(1 0 0 -1 0 431)" d="M146.333 331L233.663 331" stroke="#221E1F" stroke-width="0.5" fill="none" /><path id="22" transform="matrix(1 0 0 -1 0 431)" d="M146.333 315.5L233.663 315.5" stroke="#221E1F" stroke-width="0.5" fill="none" /><path id="23" transform="matrix(1 0 0 -1 0 431)" d="M233.667 331L320.997 331" stroke="#221E1F" stroke-width="0.5" fill="none" /><path id="24" transform="matrix(1 0 0 -1 0 431)" d="M233.667 315.5L320.997 315.5" stroke="#221E1F" stroke-width="0.5" fill="none" /><path id="25" transform="matrix(1 0 0 -1 0 431)" d="M321 331L408.33 331" stroke="#221E1F" stroke-width="0.5" fill="none" /><path id="26" transform="matrix(1 0 0 -1 0 431)" d="M321 315.5L408.33 315.5" stroke="#221E1F" stroke-width="0.5" fill="none" /><path id="27" transform="matrix(1 0 0 -1 0 431)" d="M408.333 331L495.663 331" stroke="#221E1F" stroke-width="0.5" fill="none" /><path id="28" transform="matrix(1 0 0 -1 0 431)" d="M408.333 315.5L495.663 315.5" stroke="#221E1F" stroke-width="0.5" fill="none" /><path id="29" transform="matrix(1 0 0 -1 0 431)" d="M495.667 331L582.997 331" stroke="#221E1F" stroke-width="0.5" fill="none" /><path id="30" transform="matrix(1 0 0 -1 0 431)" d="M495.667 315.5L582.997 315.5" stroke="#221E1F" stroke-width="0.5" fill="none" /><path id="31" transform="matrix(1 0 0 -1 0 431)" d="M59 331L146.33 331" stroke="#221E1F" stroke-width="0.5" fill="none" /><path id="32" transform="matrix(1 0 0 -1 0 431)" d="M59 315.5L146.33 315.5" stroke="#221E1F" stroke-width="0.5" fill="none" /></g></g></svg>