<svg xmlns="http://www.w3.org/2000/svg" xmlns:xlink="http://www.w3.org/1999/xlink" id="body_34" preserveAspectRatio="xMinYMin meet" viewBox="0 0 576 864"><defs><clipPath id="1"><path id="" clip-rule="evenodd" transform="matrix(1 0 0 1 0 0)" d="M0 648L0 0L0 0L432 0L432 0L432 648L432 648L0 648z" /></clipPath></defs><g transform="matrix(1.333333 0 0 1.333333 0 0)"><g clip-path="url(#1)"><path id="883" transform="matrix(1 0 0 -1 0 648)" d="M171 87.626L279 87.626" stroke="#221E1F" stroke-width="0.5" fill="none" /><path id="884" transform="matrix(1 0 0 -1 0 648)" d="M279 220.376L279 266.376" stroke="#221E1F" stroke-width="0.5" fill="none" /><path id="885" transform="matrix(1 0 0 -1 0 648)" d="M279 185.876L279 220.366" stroke="#221E1F" stroke-width="0.5" fill="none" /><path id="886" transform="matrix(1 0 0 -1 0 648)" d="M279 162.876L279 185.876" stroke="#221E1F" stroke-width="0.5" fill="none" /><path id="887" transform="matrix(1 0 0 -1 0 648)" d="M279 128.376L279 162.866" stroke="#221E1F" stroke-width="0.5" fill="none" /><path id="888" transform="matrix(1 0 0 -1 0 648)" d="M171 220.376L171 266.376" stroke="#221E1F" stroke-width="0.5" fill="none" /><path id="889" transform="matrix(1 0 0 -1 0 648)" d="M171 185.876L171 220.366" stroke="#221E1F" stroke-width="0.5" fill="none" /><path id="890" transform="matrix(1 0 0 -1 0 648)" d="M171 162.876L171 185.876" stroke="#221E1F" stroke-width="0.5" fill="none" /><path id="891" transform="matrix(1 0 0 -1 0 648)" d="M171 128.376L171 162.866" stroke="#221E1F" stroke-width="0.5" fill="none" /><path id="892" transform="matrix(1 0 0 -1 0 648)" d="M279 87.876L279 128.366" stroke="#221E1F" stroke-width="0.5" fill="none" /><path id="893" transform="matrix(1 0 0 -1 0 648)" d="M279 87.626L387 87.626" stroke="#221E1F" stroke-width="0.5" fill="none" /><path id="894" transform="matrix(1 0 0 -1 0 648)" d="M171 87.876L171 128.366" stroke="#221E1F" stroke-width="0.5" fill="none" /><path id="895" transform="matrix(1 0 0 -1 0 648)" d="M63 87.626L171 87.626" stroke="#221E1F" stroke-width="0.5" fill="none" /><path id="896" transform="matrix(1 0 0 -1 0 648)" d="M171 293.126L279 293.126" stroke="#221E1F" stroke-width="0.5" fill="none" /><path id="897" transform="matrix(1 0 0 -1 0 648)" d="M171 266.626L279 266.626" stroke="#221E1F" stroke-width="0.5" fill="none" /><path id="898" transform="matrix(1 0 0 -1 0 648)" d="M279 293.126L387 293.126" stroke="#221E1F" stroke-width="0.5" fill="none" /><path id="899" transform="matrix(1 0 0 -1 0 648)" d="M279 266.626L387 266.626" stroke="#221E1F" stroke-width="0.5" fill="none" /><path id="900" transform="matrix(1 0 0 -1 0 648)" d="M63 293.126L171 293.126" stroke="#221E1F" stroke-width="0.5" fill="none" /><path id="901" transform="matrix(1 0 0 -1 0 648)" d="M63 266.626L171 266.626" stroke="#221E1F" stroke-width="0.5" fill="none" /></g></g></svg>