<svg xmlns="http://www.w3.org/2000/svg" xmlns:xlink="http://www.w3.org/1999/xlink" id="body_38" preserveAspectRatio="xMinYMin meet" viewBox="0 0 576 864"><defs><clipPath id="1"><path id="" clip-rule="evenodd" transform="matrix(1 0 0 1 0 0)" d="M0 648L0 0L0 0L432 0L432 0L432 648L432 648L0 648z" /></clipPath></defs><g transform="matrix(1.333333 0 0 1.333333 0 0)"><g clip-path="url(#1)"><path id="1505" transform="matrix(1 0 0 -1 0 648)" d="M204.25 133.752L204.25 145.242" stroke="#221E1F" stroke-width="0.5" fill="none" /><path id="1506" transform="matrix(1 0 0 -1 0 648)" d="M204.25 122.252L204.25 133.742" stroke="#221E1F" stroke-width="0.5" fill="none" /><path id="1507" transform="matrix(1 0 0 -1 0 648)" d="M204.25 110.752L204.25 122.242" stroke="#221E1F" stroke-width="0.5" fill="none" /><path id="1508" transform="matrix(1 0 0 -1 0 648)" d="M204.25 99.252L204.25 110.742" stroke="#221E1F" stroke-width="0.5" fill="none" /><path id="1509" transform="matrix(1 0 0 -1 0 648)" d="M204.25 87.752L204.25 99.242" stroke="#221E1F" stroke-width="0.5" fill="none" /><path id="1510" transform="matrix(1 0 0 -1 0 648)" d="M204.25 70.002L339.74 70.002" stroke="#221E1F" stroke-width="0.5" fill="none" /><path id="1511" transform="matrix(1 0 0 -1 0 648)" d="M204.25 70.252L204.25 87.742" stroke="#221E1F" stroke-width="0.5" fill="none" /><path id="1512" transform="matrix(1 0 0 -1 0 648)" d="M110.25 70.002L204.25 70.002" stroke="#221E1F" stroke-width="0.5" fill="none" /><path id="1513" transform="matrix(1 0 0 -1 0 648)" d="M204.25 161.002L339.74 161.002" stroke="#221E1F" stroke-width="0.5" fill="none" /><path id="1514" transform="matrix(1 0 0 -1 0 648)" d="M204.25 145.502L339.74 145.502" stroke="#221E1F" stroke-width="0.5" fill="none" /><path id="1515" transform="matrix(1 0 0 -1 0 648)" d="M110.25 161.002L204.25 161.002" stroke="#221E1F" stroke-width="0.5" fill="none" /><path id="1516" transform="matrix(1 0 0 -1 0 648)" d="M110.25 145.502L204.25 145.502" stroke="#221E1F" stroke-width="0.5" fill="none" /></g></g></svg>