<svg xmlns="http://www.w3.org/2000/svg" xmlns:xlink="http://www.w3.org/1999/xlink" id="body_40" preserveAspectRatio="xMinYMin meet" viewBox="0 0 576 864"><defs><clipPath id="1"><path id="" clip-rule="evenodd" transform="matrix(1 0 0 1 0 0)" d="M0 648L0 0L0 0L432 0L432 0L432 648L432 648L0 648z" /></clipPath></defs><g transform="matrix(1.333333 0 0 1.333333 0 0)"><g clip-path="url(#1)"><path id="1837" transform="matrix(1 0 0 -1 0 648)" d="M206 544.75L206 556.24" stroke="#221E1F" stroke-width="0.5" fill="none" /><path id="1838" transform="matrix(1 0 0 -1 0 648)" d="M206 533.25L206 544.74" stroke="#221E1F" stroke-width="0.5" fill="none" /><path id="1839" transform="matrix(1 0 0 -1 0 648)" d="M206 521.75L206 533.24" stroke="#221E1F" stroke-width="0.5" fill="none" /><path id="1840" transform="matrix(1 0 0 -1 0 648)" d="M206 504L368.75 504" stroke="#221E1F" stroke-width="0.5" fill="none" /><path id="1841" transform="matrix(1 0 0 -1 0 648)" d="M206 504.25L206 521.74" stroke="#221E1F" stroke-width="0.5" fill="none" /><path id="1842" transform="matrix(1 0 0 -1 0 648)" d="M81.25 504L206 504" stroke="#221E1F" stroke-width="0.5" fill="none" /><path id="1843" transform="matrix(1 0 0 -1 0 648)" d="M206 572L368.75 572" stroke="#221E1F" stroke-width="0.5" fill="none" /><path id="1844" transform="matrix(1 0 0 -1 0 648)" d="M206 556.5L368.75 556.5" stroke="#221E1F" stroke-width="0.5" fill="none" /><path id="1845" transform="matrix(1 0 0 -1 0 648)" d="M81.25 572L206 572" stroke="#221E1F" stroke-width="0.5" fill="none" /><path id="1846" transform="matrix(1 0 0 -1 0 648)" d="M81.25 556.5L206 556.5" stroke="#221E1F" stroke-width="0.5" fill="none" /></g></g></svg>