<svg xmlns="http://www.w3.org/2000/svg" xmlns:xlink="http://www.w3.org/1999/xlink" id="body_59" preserveAspectRatio="xMinYMin meet" viewBox="0 0 576 864"><defs><clipPath id="1"><path id="" clip-rule="evenodd" transform="matrix(1 0 0 1 0 0)" d="M0 648L0 0L0 0L432 0L432 0L432 648L432 648L0 648z" /></clipPath></defs><g transform="matrix(1.333333 0 0 1.333333 0 0)"><g clip-path="url(#1)"><path id="902" transform="matrix(1 0 0 -1 0 648)" d="M171 320.5L279 320.5" stroke="#221E1F" stroke-width="0.5" fill="none" /><path id="903" transform="matrix(1 0 0 -1 0 648)" d="M279 499.25L279 545.25" stroke="#221E1F" stroke-width="0.5" fill="none" /><path id="904" transform="matrix(1 0 0 -1 0 648)" d="M279 487.75L279 499.24" stroke="#221E1F" stroke-width="0.5" fill="none" /><path id="905" transform="matrix(1 0 0 -1 0 648)" d="M279 476.25L279 487.74" stroke="#221E1F" stroke-width="0.5" fill="none" /><path id="906" transform="matrix(1 0 0 -1 0 648)" d="M279 441.75L279 476.24" stroke="#221E1F" stroke-width="0.5" fill="none" /><path id="907" transform="matrix(1 0 0 -1 0 648)" d="M279 407.25L279 441.74" stroke="#221E1F" stroke-width="0.5" fill="none" /><path id="908" transform="matrix(1 0 0 -1 0 648)" d="M279 395.75L279 407.24" stroke="#221E1F" stroke-width="0.5" fill="none" /><path id="909" transform="matrix(1 0 0 -1 0 648)" d="M279 372.75L279 395.75" stroke="#221E1F" stroke-width="0.5" fill="none" /><path id="910" transform="matrix(1 0 0 -1 0 648)" d="M279 361.25L279 372.74" stroke="#221E1F" stroke-width="0.5" fill="none" /><path id="911" transform="matrix(1 0 0 -1 0 648)" d="M279 338.25L279 361.25" stroke="#221E1F" stroke-width="0.5" fill="none" /><path id="912" transform="matrix(1 0 0 -1 0 648)" d="M171 499.25L171 545.25" stroke="#221E1F" stroke-width="0.5" fill="none" /><path id="913" transform="matrix(1 0 0 -1 0 648)" d="M171 487.75L171 499.24" stroke="#221E1F" stroke-width="0.5" fill="none" /><path id="914" transform="matrix(1 0 0 -1 0 648)" d="M171 476.25L171 487.74" stroke="#221E1F" stroke-width="0.5" fill="none" /><path id="915" transform="matrix(1 0 0 -1 0 648)" d="M171 441.75L171 476.24" stroke="#221E1F" stroke-width="0.5" fill="none" /><path id="916" transform="matrix(1 0 0 -1 0 648)" d="M171 407.25L171 441.74" stroke="#221E1F" stroke-width="0.5" fill="none" /><path id="917" transform="matrix(1 0 0 -1 0 648)" d="M171 395.75L171 407.24" stroke="#221E1F" stroke-width="0.5" fill="none" /><path id="918" transform="matrix(1 0 0 -1 0 648)" d="M171 372.75L171 395.75" stroke="#221E1F" stroke-width="0.5" fill="none" /><path id="919" transform="matrix(1 0 0 -1 0 648)" d="M171 361.25L171 372.74" stroke="#221E1F" stroke-width="0.5" fill="none" /><path id="920" transform="matrix(1 0 0 -1 0 648)" d="M171 338.25L171 361.25" stroke="#221E1F" stroke-width="0.5" fill="none" /><path id="921" transform="matrix(1 0 0 -1 0 648)" d="M279 320.75L279 338.24" stroke="#221E1F" stroke-width="0.5" fill="none" /><path id="922" transform="matrix(1 0 0 -1 0 648)" d="M279 320.5L387 320.5" stroke="#221E1F" stroke-width="0.5" fill="none" /><path id="923" transform="matrix(1 0 0 -1 0 648)" d="M171 320.75L171 338.24" stroke="#221E1F" stroke-width="0.5" fill="none" /><path id="924" transform="matrix(1 0 0 -1 0 648)" d="M63 320.5L171 320.5" stroke="#221E1F" stroke-width="0.5" fill="none" /><path id="925" transform="matrix(1 0 0 -1 0 648)" d="M171 561L279 561" stroke="#221E1F" stroke-width="0.5" fill="none" /><path id="926" transform="matrix(1 0 0 -1 0 648)" d="M171 545.5L279 545.5" stroke="#221E1F" stroke-width="0.5" fill="none" /><path id="927" transform="matrix(1 0 0 -1 0 648)" d="M279 561L387 561" stroke="#221E1F" stroke-width="0.5" fill="none" /><path id="928" transform="matrix(1 0 0 -1 0 648)" d="M279 545.5L387 545.5" stroke="#221E1F" stroke-width="0.5" fill="none" /><path id="929" transform="matrix(1 0 0 -1 0 648)" d="M63 561L171 561" stroke="#221E1F" stroke-width="0.5" fill="none" /><path id="930" transform="matrix(1 0 0 -1 0 648)" d="M63 545.5L171 545.5" stroke="#221E1F" stroke-width="0.5" fill="none" /></g></g></svg>