<svg xmlns="http://www.w3.org/2000/svg" xmlns:xlink="http://www.w3.org/1999/xlink" id="body_17" preserveAspectRatio="xMinYMin meet" viewBox="0 0 576 864"><defs><clipPath id="1"><path id="" clip-rule="evenodd" transform="matrix(1 0 0 1 0 0)" d="M0 648L0 0L0 0L432 0L432 0L432 648L432 648L0 648z" /></clipPath></defs><g transform="matrix(1.333333 0 0 1.333333 0 0)"><g clip-path="url(#1)"><path id="1138" transform="matrix(1 0 0 -1 0 648)" d="M102 560.25L102 571.74" stroke="#221E1F" stroke-width="0.5" fill="none" /><path id="1139" transform="matrix(1 0 0 -1 0 648)" d="M102 537.25L102 560.25" stroke="#221E1F" stroke-width="0.5" fill="none" /><path id="1140" transform="matrix(1 0 0 -1 0 648)" d="M102 525.75L102 537.24" stroke="#221E1F" stroke-width="0.5" fill="none" /><path id="1141" transform="matrix(1 0 0 -1 0 648)" d="M102 514.25L102 525.74" stroke="#221E1F" stroke-width="0.5" fill="none" /><path id="1142" transform="matrix(1 0 0 -1 0 648)" d="M102 502.75L102 514.24" stroke="#221E1F" stroke-width="0.5" fill="none" /><path id="1143" transform="matrix(1 0 0 -1 0 648)" d="M102 491.25L102 502.74" stroke="#221E1F" stroke-width="0.5" fill="none" /><path id="1144" transform="matrix(1 0 0 -1 0 648)" d="M102 479.75L102 491.24" stroke="#221E1F" stroke-width="0.5" fill="none" /><path id="1145" transform="matrix(1 0 0 -1 0 648)" d="M102 456.75L102 479.75" stroke="#221E1F" stroke-width="0.5" fill="none" /><path id="1146" transform="matrix(1 0 0 -1 0 648)" d="M102 445.25L102 456.74" stroke="#221E1F" stroke-width="0.5" fill="none" /><path id="1147" transform="matrix(1 0 0 -1 0 648)" d="M102 433.75L102 445.24" stroke="#221E1F" stroke-width="0.5" fill="none" /><path id="1148" transform="matrix(1 0 0 -1 0 648)" d="M102 393L369.49 393" stroke="#221E1F" stroke-width="0.5" fill="none" /><path id="1149" transform="matrix(1 0 0 -1 0 648)" d="M102 422.25L102 433.74" stroke="#221E1F" stroke-width="0.5" fill="none" /><path id="1150" transform="matrix(1 0 0 -1 0 648)" d="M102 410.75L102 422.24" stroke="#221E1F" stroke-width="0.5" fill="none" /><path id="1151" transform="matrix(1 0 0 -1 0 648)" d="M102 393.25L102 410.74" stroke="#221E1F" stroke-width="0.5" fill="none" /><path id="1152" transform="matrix(1 0 0 -1 0 648)" d="M45 393L102 393" stroke="#221E1F" stroke-width="0.5" fill="none" /><path id="1153" transform="matrix(1 0 0 -1 0 648)" d="M102 572L369.49 572" stroke="#221E1F" stroke-width="0.5" fill="none" /><path id="1154" transform="matrix(1 0 0 -1 0 648)" d="M45 572L102 572" stroke="#221E1F" stroke-width="0.5" fill="none" /></g></g></svg>