<svg xmlns="http://www.w3.org/2000/svg" xmlns:xlink="http://www.w3.org/1999/xlink" id="body_49" preserveAspectRatio="xMinYMin meet" viewBox="0 0 576 864"><defs><clipPath id="1"><path id="" clip-rule="evenodd" transform="matrix(1 0 0 1 0 0)" d="M0 648L0 0L0 0L432 0L432 0L432 648L432 648L0 648z" /></clipPath></defs><g transform="matrix(1.333333 0 0 1.333333 0 0)"><g clip-path="url(#1)"><path id="284" transform="matrix(1 0 0 -1 0 648)" d="M63 216.25L387 216.25" stroke="#221E1F" stroke-width="0.5" fill="none" /><path id="285" transform="matrix(1 0 0 -1 0 648)" d="M63 561.25L387 561.25" stroke="#221E1F" stroke-width="0.5" fill="none" /><path id="286" transform="matrix(1 0 0 -1 0 648)" d="M63 545.75L387 545.75" stroke="#221E1F" stroke-width="0.5" fill="none" /><path id="287" transform="matrix(1 0 0 -1 0 648)" d="M63 477.75L387 477.75" stroke="#221E1F" stroke-width="0.5" fill="none" /><path id="288" transform="matrix(1 0 0 -1 0 648)" d="M63 432.75L387 432.75" stroke="#221E1F" stroke-width="0.5" fill="none" /><path id="289" transform="matrix(1 0 0 -1 0 648)" d="M63 493.25L387 493.25" stroke="#221E1F" stroke-width="0.5" fill="none" /><path id="290" transform="matrix(1 0 0 -1 0 648)" d="M63 448.25L387 448.25" stroke="#221E1F" stroke-width="0.5" fill="none" /></g></g></svg>