<svg xmlns="http://www.w3.org/2000/svg" xmlns:xlink="http://www.w3.org/1999/xlink" id="body_67" preserveAspectRatio="xMinYMin meet" viewBox="0 0 864 575"><defs><clipPath id="1"><path id="" clip-rule="evenodd" transform="matrix(1 0 0 1 0 0)" d="M0 -1L648 -1L648 -1L648 431L648 431L2.64515E-14 431L2.64515E-14 431L0 -1z" /></clipPath></defs><g transform="matrix(1.333333 0 0 1.333333 0 0)"><g clip-path="url(#1)"><path id="1" transform="matrix(1 0 0 -1 0 431)" d="M408.333 86.75L495.663 86.75" stroke="#221E1F" stroke-width="0.5" fill="none" /><path id="2" transform="matrix(1 0 0 -1 0 431)" d="M408.333 323L408.333 369" stroke="#221E1F" stroke-width="0.5" fill="none" /><path id="3" transform="matrix(1 0 0 -1 0 431)" d="M408.333 311.5L408.333 322.99" stroke="#221E1F" stroke-width="0.5" fill="none" /><path id="4" transform="matrix(1 0 0 -1 0 431)" d="M408.333 254L408.333 311.49" stroke="#221E1F" stroke-width="0.5" fill="none" /><path id="5" transform="matrix(1 0 0 -1 0 431)" d="M408.333 185L408.333 254" stroke="#221E1F" stroke-width="0.5" fill="none" /><path id="6" transform="matrix(1 0 0 -1 0 431)" d="M408.333 127.5L408.333 184.99" stroke="#221E1F" stroke-width="0.5" fill="none" /><path id="7" transform="matrix(1 0 0 -1 0 431)" d="M408.333 87L408.333 127.49" stroke="#221E1F" stroke-width="0.5" fill="none" /><path id="8" transform="matrix(1 0 0 -1 0 431)" d="M321 86.75L408.33 86.75" stroke="#221E1F" stroke-width="0.5" fill="none" /><path id="9" transform="matrix(1 0 0 -1 0 431)" d="M321 323L321 369" stroke="#221E1F" stroke-width="0.5" fill="none" /><path id="10" transform="matrix(1 0 0 -1 0 431)" d="M321 311.5L321 322.99" stroke="#221E1F" stroke-width="0.5" fill="none" /><path id="11" transform="matrix(1 0 0 -1 0 431)" d="M321 254L321 311.49" stroke="#221E1F" stroke-width="0.5" fill="none" /><path id="12" transform="matrix(1 0 0 -1 0 431)" d="M321 185L321 254" stroke="#221E1F" stroke-width="0.5" fill="none" /><path id="13" transform="matrix(1 0 0 -1 0 431)" d="M321 127.5L321 184.99" stroke="#221E1F" stroke-width="0.5" fill="none" /><path id="14" transform="matrix(1 0 0 -1 0 431)" d="M321 87L321 127.49" stroke="#221E1F" stroke-width="0.5" fill="none" /><path id="15" transform="matrix(1 0 0 -1 0 431)" d="M233.667 86.75L320.997 86.75" stroke="#221E1F" stroke-width="0.5" fill="none" /><path id="16" transform="matrix(1 0 0 -1 0 431)" d="M233.667 323L233.667 369" stroke="#221E1F" stroke-width="0.5" fill="none" /><path id="17" transform="matrix(1 0 0 -1 0 431)" d="M233.667 311.5L233.667 322.99" stroke="#221E1F" stroke-width="0.5" fill="none" /><path id="18" transform="matrix(1 0 0 -1 0 431)" d="M233.667 254L233.667 311.49" stroke="#221E1F" stroke-width="0.5" fill="none" /><path id="19" transform="matrix(1 0 0 -1 0 431)" d="M233.667 185L233.667 254" stroke="#221E1F" stroke-width="0.5" fill="none" /><path id="20" transform="matrix(1 0 0 -1 0 431)" d="M233.667 127.5L233.667 184.99" stroke="#221E1F" stroke-width="0.5" fill="none" /><path id="21" transform="matrix(1 0 0 -1 0 431)" d="M233.667 87L233.667 127.49" stroke="#221E1F" stroke-width="0.5" fill="none" /><path id="22" transform="matrix(1 0 0 -1 0 431)" d="M146.333 86.75L233.663 86.75" stroke="#221E1F" stroke-width="0.5" fill="none" /><path id="23" transform="matrix(1 0 0 -1 0 431)" d="M495.667 323L495.667 369" stroke="#221E1F" stroke-width="0.5" fill="none" /><path id="24" transform="matrix(1 0 0 -1 0 431)" d="M495.667 311.5L495.667 322.99" stroke="#221E1F" stroke-width="0.5" fill="none" /><path id="25" transform="matrix(1 0 0 -1 0 431)" d="M495.667 254L495.667 311.49" stroke="#221E1F" stroke-width="0.5" fill="none" /><path id="26" transform="matrix(1 0 0 -1 0 431)" d="M495.667 185L495.667 254" stroke="#221E1F" stroke-width="0.5" fill="none" /><path id="27" transform="matrix(1 0 0 -1 0 431)" d="M495.667 127.5L495.667 184.99" stroke="#221E1F" stroke-width="0.5" fill="none" /><path id="28" transform="matrix(1 0 0 -1 0 431)" d="M146.333 323L146.333 369" stroke="#221E1F" stroke-width="0.5" fill="none" /><path id="29" transform="matrix(1 0 0 -1 0 431)" d="M146.333 311.5L146.333 322.99" stroke="#221E1F" stroke-width="0.5" fill="none" /><path id="30" transform="matrix(1 0 0 -1 0 431)" d="M146.333 254L146.333 311.49" stroke="#221E1F" stroke-width="0.5" fill="none" /><path id="31" transform="matrix(1 0 0 -1 0 431)" d="M146.333 185L146.333 254" stroke="#221E1F" stroke-width="0.5" fill="none" /><path id="32" transform="matrix(1 0 0 -1 0 431)" d="M146.333 127.5L146.333 184.99" stroke="#221E1F" stroke-width="0.5" fill="none" /><path id="33" transform="matrix(1 0 0 -1 0 431)" d="M495.667 87L495.667 127.49" stroke="#221E1F" stroke-width="0.5" fill="none" /><path id="34" transform="matrix(1 0 0 -1 0 431)" d="M495.667 86.75L582.997 86.75" stroke="#221E1F" stroke-width="0.5" fill="none" /><path id="35" transform="matrix(1 0 0 -1 0 431)" d="M146.333 87L146.333 127.49" stroke="#221E1F" stroke-width="0.5" fill="none" /><path id="36" transform="matrix(1 0 0 -1 0 431)" d="M59 86.75L146.33 86.75" stroke="#221E1F" stroke-width="0.5" fill="none" /></g></g></svg>