<svg xmlns="http://www.w3.org/2000/svg" xmlns:xlink="http://www.w3.org/1999/xlink" id="body_35" preserveAspectRatio="xMinYMin meet" viewBox="0 0 576 864"><defs><clipPath id="1"><path id="" clip-rule="evenodd" transform="matrix(1 0 0 1 0 0)" d="M0 648L0 0L0 0L432 0L432 0L432 648L432 648L0 648z" /></clipPath></defs><g transform="matrix(1.333333 0 0 1.333333 0 0)"><g clip-path="url(#1)"><path id="340" transform="matrix(1 0 0 -1 0 648)" d="M144 216.75L261 216.75" stroke="#221E1F" stroke-width="0.5" fill="none" /><path id="341" transform="matrix(1 0 0 -1 0 648)" d="M261 533.5L261 544.99" stroke="#221E1F" stroke-width="0.5" fill="none" /><path id="342" transform="matrix(1 0 0 -1 0 648)" d="M261 522L261 533.49" stroke="#221E1F" stroke-width="0.5" fill="none" /><path id="343" transform="matrix(1 0 0 -1 0 648)" d="M261 510.5L261 521.99" stroke="#221E1F" stroke-width="0.5" fill="none" /><path id="344" transform="matrix(1 0 0 -1 0 648)" d="M261 499L261 510.49" stroke="#221E1F" stroke-width="0.5" fill="none" /><path id="345" transform="matrix(1 0 0 -1 0 648)" d="M261 487.5L261 498.99" stroke="#221E1F" stroke-width="0.5" fill="none" /><path id="346" transform="matrix(1 0 0 -1 0 648)" d="M261 476L261 487.49" stroke="#221E1F" stroke-width="0.5" fill="none" /><path id="347" transform="matrix(1 0 0 -1 0 648)" d="M261 464.5L261 475.99" stroke="#221E1F" stroke-width="0.5" fill="none" /><path id="348" transform="matrix(1 0 0 -1 0 648)" d="M261 453L261 464.49" stroke="#221E1F" stroke-width="0.5" fill="none" /><path id="349" transform="matrix(1 0 0 -1 0 648)" d="M261 441.5L261 452.99" stroke="#221E1F" stroke-width="0.5" fill="none" /><path id="350" transform="matrix(1 0 0 -1 0 648)" d="M261 430L261 441.49" stroke="#221E1F" stroke-width="0.5" fill="none" /><path id="351" transform="matrix(1 0 0 -1 0 648)" d="M261 418.5L261 429.99" stroke="#221E1F" stroke-width="0.5" fill="none" /><path id="352" transform="matrix(1 0 0 -1 0 648)" d="M261 407L261 418.49" stroke="#221E1F" stroke-width="0.5" fill="none" /><path id="353" transform="matrix(1 0 0 -1 0 648)" d="M261 395.5L261 406.99" stroke="#221E1F" stroke-width="0.5" fill="none" /><path id="354" transform="matrix(1 0 0 -1 0 648)" d="M261 384L261 395.49" stroke="#221E1F" stroke-width="0.5" fill="none" /><path id="355" transform="matrix(1 0 0 -1 0 648)" d="M261 372.5L261 383.99" stroke="#221E1F" stroke-width="0.5" fill="none" /><path id="356" transform="matrix(1 0 0 -1 0 648)" d="M261 361L261 372.49" stroke="#221E1F" stroke-width="0.5" fill="none" /><path id="357" transform="matrix(1 0 0 -1 0 648)" d="M261 349.5L261 360.99" stroke="#221E1F" stroke-width="0.5" fill="none" /><path id="358" transform="matrix(1 0 0 -1 0 648)" d="M261 338L261 349.49" stroke="#221E1F" stroke-width="0.5" fill="none" /><path id="359" transform="matrix(1 0 0 -1 0 648)" d="M261 326.5L261 337.99" stroke="#221E1F" stroke-width="0.5" fill="none" /><path id="360" transform="matrix(1 0 0 -1 0 648)" d="M261 315L261 326.49" stroke="#221E1F" stroke-width="0.5" fill="none" /><path id="361" transform="matrix(1 0 0 -1 0 648)" d="M261 303.5L261 314.99" stroke="#221E1F" stroke-width="0.5" fill="none" /><path id="362" transform="matrix(1 0 0 -1 0 648)" d="M261 292L261 303.49" stroke="#221E1F" stroke-width="0.5" fill="none" /><path id="363" transform="matrix(1 0 0 -1 0 648)" d="M261 280.5L261 291.99" stroke="#221E1F" stroke-width="0.5" fill="none" /><path id="364" transform="matrix(1 0 0 -1 0 648)" d="M261 269L261 280.49" stroke="#221E1F" stroke-width="0.5" fill="none" /><path id="365" transform="matrix(1 0 0 -1 0 648)" d="M261 257.5L261 268.99" stroke="#221E1F" stroke-width="0.5" fill="none" /><path id="366" transform="matrix(1 0 0 -1 0 648)" d="M261 246L261 257.49" stroke="#221E1F" stroke-width="0.5" fill="none" /><path id="367" transform="matrix(1 0 0 -1 0 648)" d="M261 234.5L261 245.99" stroke="#221E1F" stroke-width="0.5" fill="none" /><path id="368" transform="matrix(1 0 0 -1 0 648)" d="M144 533.5L144 544.99" stroke="#221E1F" stroke-width="0.5" fill="none" /><path id="369" transform="matrix(1 0 0 -1 0 648)" d="M144 522L144 533.49" stroke="#221E1F" stroke-width="0.5" fill="none" /><path id="370" transform="matrix(1 0 0 -1 0 648)" d="M144 510.5L144 521.99" stroke="#221E1F" stroke-width="0.5" fill="none" /><path id="371" transform="matrix(1 0 0 -1 0 648)" d="M144 499L144 510.49" stroke="#221E1F" stroke-width="0.5" fill="none" /><path id="372" transform="matrix(1 0 0 -1 0 648)" d="M144 487.5L144 498.99" stroke="#221E1F" stroke-width="0.5" fill="none" /><path id="373" transform="matrix(1 0 0 -1 0 648)" d="M144 476L144 487.49" stroke="#221E1F" stroke-width="0.5" fill="none" /><path id="374" transform="matrix(1 0 0 -1 0 648)" d="M144 464.5L144 475.99" stroke="#221E1F" stroke-width="0.5" fill="none" /><path id="375" transform="matrix(1 0 0 -1 0 648)" d="M144 453L144 464.49" stroke="#221E1F" stroke-width="0.5" fill="none" /><path id="376" transform="matrix(1 0 0 -1 0 648)" d="M144 441.5L144 452.99" stroke="#221E1F" stroke-width="0.5" fill="none" /><path id="377" transform="matrix(1 0 0 -1 0 648)" d="M144 430L144 441.49" stroke="#221E1F" stroke-width="0.5" fill="none" /><path id="378" transform="matrix(1 0 0 -1 0 648)" d="M144 418.5L144 429.99" stroke="#221E1F" stroke-width="0.5" fill="none" /><path id="379" transform="matrix(1 0 0 -1 0 648)" d="M144 407L144 418.49" stroke="#221E1F" stroke-width="0.5" fill="none" /><path id="380" transform="matrix(1 0 0 -1 0 648)" d="M144 395.5L144 406.99" stroke="#221E1F" stroke-width="0.5" fill="none" /><path id="381" transform="matrix(1 0 0 -1 0 648)" d="M144 384L144 395.49" stroke="#221E1F" stroke-width="0.5" fill="none" /><path id="382" transform="matrix(1 0 0 -1 0 648)" d="M144 372.5L144 383.99" stroke="#221E1F" stroke-width="0.5" fill="none" /><path id="383" transform="matrix(1 0 0 -1 0 648)" d="M144 361L144 372.49" stroke="#221E1F" stroke-width="0.5" fill="none" /><path id="384" transform="matrix(1 0 0 -1 0 648)" d="M144 349.5L144 360.99" stroke="#221E1F" stroke-width="0.5" fill="none" /><path id="385" transform="matrix(1 0 0 -1 0 648)" d="M144 338L144 349.49" stroke="#221E1F" stroke-width="0.5" fill="none" /><path id="386" transform="matrix(1 0 0 -1 0 648)" d="M144 326.5L144 337.99" stroke="#221E1F" stroke-width="0.5" fill="none" /><path id="387" transform="matrix(1 0 0 -1 0 648)" d="M144 315L144 326.49" stroke="#221E1F" stroke-width="0.5" fill="none" /><path id="388" transform="matrix(1 0 0 -1 0 648)" d="M144 303.5L144 314.99" stroke="#221E1F" stroke-width="0.5" fill="none" /><path id="389" transform="matrix(1 0 0 -1 0 648)" d="M144 292L144 303.49" stroke="#221E1F" stroke-width="0.5" fill="none" /><path id="390" transform="matrix(1 0 0 -1 0 648)" d="M144 280.5L144 291.99" stroke="#221E1F" stroke-width="0.5" fill="none" /><path id="391" transform="matrix(1 0 0 -1 0 648)" d="M144 269L144 280.49" stroke="#221E1F" stroke-width="0.5" fill="none" /><path id="392" transform="matrix(1 0 0 -1 0 648)" d="M144 257.5L144 268.99" stroke="#221E1F" stroke-width="0.5" fill="none" /><path id="393" transform="matrix(1 0 0 -1 0 648)" d="M144 246L144 257.49" stroke="#221E1F" stroke-width="0.5" fill="none" /><path id="394" transform="matrix(1 0 0 -1 0 648)" d="M261 217L261 234.49" stroke="#221E1F" stroke-width="0.5" fill="none" /><path id="395" transform="matrix(1 0 0 -1 0 648)" d="M261 216.75L369 216.75" stroke="#221E1F" stroke-width="0.5" fill="none" /><path id="396" transform="matrix(1 0 0 -1 0 648)" d="M144 234.5L144 245.99" stroke="#221E1F" stroke-width="0.5" fill="none" /><path id="397" transform="matrix(1 0 0 -1 0 648)" d="M144 217L144 234.49" stroke="#221E1F" stroke-width="0.5" fill="none" /><path id="398" transform="matrix(1 0 0 -1 0 648)" d="M44.75 216.75L144 216.75" stroke="#221E1F" stroke-width="0.5" fill="none" /><path id="399" transform="matrix(1 0 0 -1 0 648)" d="M144 560.75L261 560.75" stroke="#221E1F" stroke-width="0.5" fill="none" /><path id="400" transform="matrix(1 0 0 -1 0 648)" d="M144 545.25L261 545.25" stroke="#221E1F" stroke-width="0.5" fill="none" /><path id="401" transform="matrix(1 0 0 -1 0 648)" d="M261 560.75L369 560.75" stroke="#221E1F" stroke-width="0.5" fill="none" /><path id="402" transform="matrix(1 0 0 -1 0 648)" d="M261 545.25L369 545.25" stroke="#221E1F" stroke-width="0.5" fill="none" /><path id="403" transform="matrix(1 0 0 -1 0 648)" d="M44.75 560.75L144 560.75" stroke="#221E1F" stroke-width="0.5" fill="none" /><path id="404" transform="matrix(1 0 0 -1 0 648)" d="M44.75 545.25L144 545.25" stroke="#221E1F" stroke-width="0.5" fill="none" /></g></g></svg>