<svg xmlns="http://www.w3.org/2000/svg" xmlns:xlink="http://www.w3.org/1999/xlink" id="body_42" preserveAspectRatio="xMinYMin meet" viewBox="0 0 576 864"><defs><clipPath id="1"><path id="" clip-rule="evenodd" transform="matrix(1 0 0 1 0 0)" d="M0 648L0 0L0 0L432 0L432 0L432 648L432 648L0 648z" /></clipPath></defs><g transform="matrix(1.333333 0 0 1.333333 0 0)"><g clip-path="url(#1)"><path id="1828" transform="matrix(1 0 0 -1 0 648)" d="M255 106.376L317.33 106.376" stroke="#221E1F" stroke-width="0.5" fill="none" /><path id="1829" transform="matrix(1 0 0 -1 0 648)" d="M255 135.626L255 147.116" stroke="#221E1F" stroke-width="0.5" fill="none" /><path id="1830" transform="matrix(1 0 0 -1 0 648)" d="M255 124.126L255 135.616" stroke="#221E1F" stroke-width="0.5" fill="none" /><path id="1831" transform="matrix(1 0 0 -1 0 648)" d="M255 106.626L255 124.116" stroke="#221E1F" stroke-width="0.5" fill="none" /><path id="1832" transform="matrix(1 0 0 -1 0 648)" d="M195 106.376L255 106.376" stroke="#221E1F" stroke-width="0.5" fill="none" /><path id="1833" transform="matrix(1 0 0 -1 0 648)" d="M317.333 135.626L317.333 147.116" stroke="#221E1F" stroke-width="0.5" fill="none" /><path id="1834" transform="matrix(1 0 0 -1 0 648)" d="M317.333 124.126L317.333 135.616" stroke="#221E1F" stroke-width="0.5" fill="none" /><path id="1835" transform="matrix(1 0 0 -1 0 648)" d="M195 135.626L195 147.116" stroke="#221E1F" stroke-width="0.5" fill="none" /><path id="1836" transform="matrix(1 0 0 -1 0 648)" d="M195 124.126L195 135.616" stroke="#221E1F" stroke-width="0.5" fill="none" /><path id="1837" transform="matrix(1 0 0 -1 0 648)" d="M317.333 106.626L317.333 124.116" stroke="#221E1F" stroke-width="0.5" fill="none" /><path id="1838" transform="matrix(1 0 0 -1 0 648)" d="M317.333 106.376L386.663 106.376" stroke="#221E1F" stroke-width="0.5" fill="none" /><path id="1839" transform="matrix(1 0 0 -1 0 648)" d="M195 106.626L195 124.116" stroke="#221E1F" stroke-width="0.5" fill="none" /><path id="1840" transform="matrix(1 0 0 -1 0 648)" d="M63 106.376L195 106.376" stroke="#221E1F" stroke-width="0.5" fill="none" /><path id="1841" transform="matrix(1 0 0 -1 0 648)" d="M195 162.876L255 162.876" stroke="#221E1F" stroke-width="0.5" fill="none" /><path id="1842" transform="matrix(1 0 0 -1 0 648)" d="M195 147.376L255 147.376" stroke="#221E1F" stroke-width="0.5" fill="none" /><path id="1843" transform="matrix(1 0 0 -1 0 648)" d="M255 162.876L317.33 162.876" stroke="#221E1F" stroke-width="0.5" fill="none" /><path id="1844" transform="matrix(1 0 0 -1 0 648)" d="M255 147.376L317.33 147.376" stroke="#221E1F" stroke-width="0.5" fill="none" /><path id="1845" transform="matrix(1 0 0 -1 0 648)" d="M317.333 162.876L386.663 162.876" stroke="#221E1F" stroke-width="0.5" fill="none" /><path id="1846" transform="matrix(1 0 0 -1 0 648)" d="M317.333 147.376L386.663 147.376" stroke="#221E1F" stroke-width="0.5" fill="none" /><path id="1847" transform="matrix(1 0 0 -1 0 648)" d="M63 162.876L195 162.876" stroke="#221E1F" stroke-width="0.5" fill="none" /><path id="1848" transform="matrix(1 0 0 -1 0 648)" d="M63 147.376L195 147.376" stroke="#221E1F" stroke-width="0.5" fill="none" /></g></g></svg>