<svg xmlns="http://www.w3.org/2000/svg" xmlns:xlink="http://www.w3.org/1999/xlink" id="body_69" preserveAspectRatio="xMinYMin meet" viewBox="0 0 576 864"><defs><clipPath id="1"><path id="" clip-rule="evenodd" transform="matrix(1 0 0 1 0 0)" d="M0 648L0 0L0 0L432 0L432 0L432 648L432 648L0 648z" /></clipPath></defs><g transform="matrix(1.333333 0 0 1.333333 0 0)"><g clip-path="url(#1)"><path id="721" transform="matrix(1 0 0 -1 0 648)" d="M80 218.75L80 402.75" stroke="#221E1F" stroke-width="0.5" fill="none" /><path id="722" transform="matrix(1 0 0 -1 0 648)" d="M80 52L80 218.75" stroke="#221E1F" stroke-width="0.5" fill="none" /><path id="723" transform="matrix(1 0 0 -1 0 648)" d="M45 403L80 403" stroke="#221E1F" stroke-width="0.5" fill="none" /><path id="724" transform="matrix(1 0 0 -1 0 648)" d="M80 403L369 403" stroke="#221E1F" stroke-width="0.5" fill="none" /><path id="725" transform="matrix(1 0 0 -1 0 648)" d="M45 51.75L80 51.75" stroke="#221E1F" stroke-width="0.5" fill="none" /><path id="726" transform="matrix(1 0 0 -1 0 648)" d="M80 51.75L369 51.75" stroke="#221E1F" stroke-width="0.5" fill="none" /><path id="727" transform="matrix(1 0 0 -1 0 648)" d="M45 418.5L80 418.5" stroke="#221E1F" stroke-width="0.5" fill="none" /><path id="728" transform="matrix(1 0 0 -1 0 648)" d="M80 418.5L369 418.5" stroke="#221E1F" stroke-width="0.5" fill="none" /></g></g></svg>