<svg xmlns="http://www.w3.org/2000/svg" xmlns:xlink="http://www.w3.org/1999/xlink" id="body_4" preserveAspectRatio="xMinYMin meet" viewBox="0 0 576 864"><defs><clipPath id="1"><path id="" clip-rule="evenodd" transform="matrix(1 0 0 1 0 0)" d="M0 648L0 0L0 0L432 0L432 0L432 648L432 648L0 648z" /></clipPath></defs><g transform="matrix(1.333333 0 0 1.333333 0 0)"><g clip-path="url(#1)"><path id="1240" transform="matrix(1 0 0 -1 0 648)" d="M225 544.75L225 556.24" stroke="#221E1F" stroke-width="0.5" fill="none" /><path id="1241" transform="matrix(1 0 0 -1 0 648)" d="M225 533.25L225 544.74" stroke="#221E1F" stroke-width="0.5" fill="none" /><path id="1242" transform="matrix(1 0 0 -1 0 648)" d="M225 521.75L225 533.24" stroke="#221E1F" stroke-width="0.5" fill="none" /><path id="1243" transform="matrix(1 0 0 -1 0 648)" d="M225 498.75L225 521.75" stroke="#221E1F" stroke-width="0.5" fill="none" /><path id="1244" transform="matrix(1 0 0 -1 0 648)" d="M225 487.25L225 498.74" stroke="#221E1F" stroke-width="0.5" fill="none" /><path id="1245" transform="matrix(1 0 0 -1 0 648)" d="M225 475.75L225 487.24" stroke="#221E1F" stroke-width="0.5" fill="none" /><path id="1246" transform="matrix(1 0 0 -1 0 648)" d="M225 464.25L225 475.74" stroke="#221E1F" stroke-width="0.5" fill="none" /><path id="1247" transform="matrix(1 0 0 -1 0 648)" d="M225 452.75L225 464.24" stroke="#221E1F" stroke-width="0.5" fill="none" /><path id="1248" transform="matrix(1 0 0 -1 0 648)" d="M225 435L387 435" stroke="#221E1F" stroke-width="0.5" fill="none" /><path id="1249" transform="matrix(1 0 0 -1 0 648)" d="M225 435.25L225 452.74" stroke="#221E1F" stroke-width="0.5" fill="none" /><path id="1250" transform="matrix(1 0 0 -1 0 648)" d="M63 435L225 435" stroke="#221E1F" stroke-width="0.5" fill="none" /><path id="1251" transform="matrix(1 0 0 -1 0 648)" d="M225 572L387 572" stroke="#221E1F" stroke-width="0.5" fill="none" /><path id="1252" transform="matrix(1 0 0 -1 0 648)" d="M225 556.5L387 556.5" stroke="#221E1F" stroke-width="0.5" fill="none" /><path id="1253" transform="matrix(1 0 0 -1 0 648)" d="M63 572L225 572" stroke="#221E1F" stroke-width="0.5" fill="none" /><path id="1254" transform="matrix(1 0 0 -1 0 648)" d="M63 556.5L225 556.5" stroke="#221E1F" stroke-width="0.5" fill="none" /></g></g></svg>