<svg xmlns="http://www.w3.org/2000/svg" xmlns:xlink="http://www.w3.org/1999/xlink" id="body_62" preserveAspectRatio="xMinYMin meet" viewBox="0 0 576 864"><defs><clipPath id="1"><path id="" clip-rule="evenodd" transform="matrix(1 0 0 1 0 0)" d="M0 648L0 0L0 0L432 0L432 0L432 648L432 648L0 648z" /></clipPath></defs><g transform="matrix(1.333333 0 0 1.333333 0 0)"><g clip-path="url(#1)"><path id="1650" transform="matrix(1 0 0 -1 0 648)" d="M153 436L261 436" stroke="#221E1F" stroke-width="0.5" fill="none" /><path id="1651" transform="matrix(1 0 0 -1 0 648)" d="M261 511.25L261 534.25" stroke="#221E1F" stroke-width="0.5" fill="none" /><path id="1652" transform="matrix(1 0 0 -1 0 648)" d="M261 488.25L261 511.25" stroke="#221E1F" stroke-width="0.5" fill="none" /><path id="1653" transform="matrix(1 0 0 -1 0 648)" d="M261 453.75L261 488.24" stroke="#221E1F" stroke-width="0.5" fill="none" /><path id="1654" transform="matrix(1 0 0 -1 0 648)" d="M153 511.25L153 534.25" stroke="#221E1F" stroke-width="0.5" fill="none" /><path id="1655" transform="matrix(1 0 0 -1 0 648)" d="M153 488.25L153 511.25" stroke="#221E1F" stroke-width="0.5" fill="none" /><path id="1656" transform="matrix(1 0 0 -1 0 648)" d="M153 453.75L153 488.24" stroke="#221E1F" stroke-width="0.5" fill="none" /><path id="1657" transform="matrix(1 0 0 -1 0 648)" d="M261 436.25L261 453.74" stroke="#221E1F" stroke-width="0.5" fill="none" /><path id="1658" transform="matrix(1 0 0 -1 0 648)" d="M261 436L369 436" stroke="#221E1F" stroke-width="0.5" fill="none" /><path id="1659" transform="matrix(1 0 0 -1 0 648)" d="M153 436.25L153 453.74" stroke="#221E1F" stroke-width="0.5" fill="none" /><path id="1660" transform="matrix(1 0 0 -1 0 648)" d="M45 436L153 436" stroke="#221E1F" stroke-width="0.5" fill="none" /><path id="1661" transform="matrix(1 0 0 -1 0 648)" d="M153 561L261 561" stroke="#221E1F" stroke-width="0.5" fill="none" /><path id="1662" transform="matrix(1 0 0 -1 0 648)" d="M153 534.5L261 534.5" stroke="#221E1F" stroke-width="0.5" fill="none" /><path id="1663" transform="matrix(1 0 0 -1 0 648)" d="M261 561L369 561" stroke="#221E1F" stroke-width="0.5" fill="none" /><path id="1664" transform="matrix(1 0 0 -1 0 648)" d="M261 534.5L369 534.5" stroke="#221E1F" stroke-width="0.5" fill="none" /><path id="1665" transform="matrix(1 0 0 -1 0 648)" d="M45 561L153 561" stroke="#221E1F" stroke-width="0.5" fill="none" /><path id="1666" transform="matrix(1 0 0 -1 0 648)" d="M45 534.5L153 534.5" stroke="#221E1F" stroke-width="0.5" fill="none" /></g></g></svg>