<svg xmlns="http://www.w3.org/2000/svg" xmlns:xlink="http://www.w3.org/1999/xlink" id="body_8" preserveAspectRatio="xMinYMin meet" viewBox="0 0 576 864"><defs><clipPath id="1"><path id="" clip-rule="evenodd" transform="matrix(1 0 0 1 0 0)" d="M0 648L0 0L0 0L432 0L432 0L432 648L432 648L0 648z" /></clipPath></defs><g transform="matrix(1.333333 0 0 1.333333 0 0)"><g clip-path="url(#1)"><path id="1458" transform="matrix(1 0 0 -1 0 648)" d="M196.5 79.126L263.99 79.126" stroke="#221E1F" stroke-width="0.5" fill="none" /><path id="1459" transform="matrix(1 0 0 -1 0 648)" d="M196.5 188.876L196.5 200.366" stroke="#221E1F" stroke-width="0.5" fill="none" /><path id="1460" transform="matrix(1 0 0 -1 0 648)" d="M196.5 177.376L196.5 188.866" stroke="#221E1F" stroke-width="0.5" fill="none" /><path id="1461" transform="matrix(1 0 0 -1 0 648)" d="M196.5 165.876L196.5 177.366" stroke="#221E1F" stroke-width="0.5" fill="none" /><path id="1462" transform="matrix(1 0 0 -1 0 648)" d="M196.5 131.376L196.5 165.866" stroke="#221E1F" stroke-width="0.5" fill="none" /><path id="1463" transform="matrix(1 0 0 -1 0 648)" d="M196.5 108.376L196.5 131.376" stroke="#221E1F" stroke-width="0.5" fill="none" /><path id="1464" transform="matrix(1 0 0 -1 0 648)" d="M196.5 79.376L196.5 108.376" stroke="#221E1F" stroke-width="0.5" fill="none" /><path id="1465" transform="matrix(1 0 0 -1 0 648)" d="M115.5 79.126L196.5 79.126" stroke="#221E1F" stroke-width="0.5" fill="none" /><path id="1466" transform="matrix(1 0 0 -1 0 648)" d="M264 188.876L264 200.366" stroke="#221E1F" stroke-width="0.5" fill="none" /><path id="1467" transform="matrix(1 0 0 -1 0 648)" d="M264 177.376L264 188.866" stroke="#221E1F" stroke-width="0.5" fill="none" /><path id="1468" transform="matrix(1 0 0 -1 0 648)" d="M264 165.876L264 177.366" stroke="#221E1F" stroke-width="0.5" fill="none" /><path id="1469" transform="matrix(1 0 0 -1 0 648)" d="M264 131.376L264 165.866" stroke="#221E1F" stroke-width="0.5" fill="none" /><path id="1470" transform="matrix(1 0 0 -1 0 648)" d="M264 108.376L264 131.376" stroke="#221E1F" stroke-width="0.5" fill="none" /><path id="1471" transform="matrix(1 0 0 -1 0 648)" d="M115.5 188.876L115.5 200.366" stroke="#221E1F" stroke-width="0.5" fill="none" /><path id="1472" transform="matrix(1 0 0 -1 0 648)" d="M115.5 177.376L115.5 188.866" stroke="#221E1F" stroke-width="0.5" fill="none" /><path id="1473" transform="matrix(1 0 0 -1 0 648)" d="M264 79.376L264 108.376" stroke="#221E1F" stroke-width="0.5" fill="none" /><path id="1474" transform="matrix(1 0 0 -1 0 648)" d="M264 79.126L369 79.126" stroke="#221E1F" stroke-width="0.5" fill="none" /><path id="1475" transform="matrix(1 0 0 -1 0 648)" d="M115.5 165.876L115.5 177.366" stroke="#221E1F" stroke-width="0.5" fill="none" /><path id="1476" transform="matrix(1 0 0 -1 0 648)" d="M115.5 131.376L115.5 165.866" stroke="#221E1F" stroke-width="0.5" fill="none" /><path id="1477" transform="matrix(1 0 0 -1 0 648)" d="M115.5 108.376L115.5 131.376" stroke="#221E1F" stroke-width="0.5" fill="none" /><path id="1478" transform="matrix(1 0 0 -1 0 648)" d="M115.5 79.376L115.5 108.376" stroke="#221E1F" stroke-width="0.5" fill="none" /><path id="1479" transform="matrix(1 0 0 -1 0 648)" d="M45 79.126L115.49 79.126" stroke="#221E1F" stroke-width="0.5" fill="none" /><path id="1480" transform="matrix(1 0 0 -1 0 648)" d="M196.5 200.626L263.99 200.626" stroke="#221E1F" stroke-width="0.5" fill="none" /><path id="1481" transform="matrix(1 0 0 -1 0 648)" d="M264 200.626L369 200.626" stroke="#221E1F" stroke-width="0.5" fill="none" /><path id="1482" transform="matrix(1 0 0 -1 0 648)" d="M45 200.626L115.49 200.626" stroke="#221E1F" stroke-width="0.5" fill="none" /><path id="1483" transform="matrix(1 0 0 -1 0 648)" d="M115.5 200.626L196.5 200.626" stroke="#221E1F" stroke-width="0.5" fill="none" /></g></g></svg>