<svg xmlns="http://www.w3.org/2000/svg" xmlns:xlink="http://www.w3.org/1999/xlink" id="body_16" preserveAspectRatio="xMinYMin meet" viewBox="0 0 576 864"><defs><clipPath id="1"><path id="" clip-rule="evenodd" transform="matrix(1 0 0 1 0 0)" d="M0 648L0 0L0 0L432 0L432 0L432 648L432 648L0 648z" /></clipPath></defs><g transform="matrix(1.333333 0 0 1.333333 0 0)"><g clip-path="url(#1)"><path id="673" transform="matrix(1 0 0 -1 0 648)" d="M145 361.126L145 372.616" stroke="#221E1F" stroke-width="0.5" fill="none" /><path id="674" transform="matrix(1 0 0 -1 0 648)" d="M145 349.626L145 361.116" stroke="#221E1F" stroke-width="0.5" fill="none" /><path id="675" transform="matrix(1 0 0 -1 0 648)" d="M145 338.126L145 349.616" stroke="#221E1F" stroke-width="0.5" fill="none" /><path id="676" transform="matrix(1 0 0 -1 0 648)" d="M145 326.626L145 338.116" stroke="#221E1F" stroke-width="0.5" fill="none" /><path id="677" transform="matrix(1 0 0 -1 0 648)" d="M145 303.626L145 326.626" stroke="#221E1F" stroke-width="0.5" fill="none" /><path id="678" transform="matrix(1 0 0 -1 0 648)" d="M145 292.126L145 303.616" stroke="#221E1F" stroke-width="0.5" fill="none" /><path id="679" transform="matrix(1 0 0 -1 0 648)" d="M145 280.626L145 292.116" stroke="#221E1F" stroke-width="0.5" fill="none" /><path id="680" transform="matrix(1 0 0 -1 0 648)" d="M145 269.126L145 280.616" stroke="#221E1F" stroke-width="0.5" fill="none" /><path id="681" transform="matrix(1 0 0 -1 0 648)" d="M145 257.626L145 269.116" stroke="#221E1F" stroke-width="0.5" fill="none" /><path id="682" transform="matrix(1 0 0 -1 0 648)" d="M145 246.126L145 257.616" stroke="#221E1F" stroke-width="0.5" fill="none" /><path id="683" transform="matrix(1 0 0 -1 0 648)" d="M145 234.626L145 246.116" stroke="#221E1F" stroke-width="0.5" fill="none" /><path id="684" transform="matrix(1 0 0 -1 0 648)" d="M145 223.126L145 234.616" stroke="#221E1F" stroke-width="0.5" fill="none" /><path id="685" transform="matrix(1 0 0 -1 0 648)" d="M145 211.626L145 223.116" stroke="#221E1F" stroke-width="0.5" fill="none" /><path id="686" transform="matrix(1 0 0 -1 0 648)" d="M145 200.126L145 211.616" stroke="#221E1F" stroke-width="0.5" fill="none" /><path id="687" transform="matrix(1 0 0 -1 0 648)" d="M145 188.626L145 200.116" stroke="#221E1F" stroke-width="0.5" fill="none" /><path id="688" transform="matrix(1 0 0 -1 0 648)" d="M145 177.126L145 188.616" stroke="#221E1F" stroke-width="0.5" fill="none" /><path id="689" transform="matrix(1 0 0 -1 0 648)" d="M145 165.626L145 177.116" stroke="#221E1F" stroke-width="0.5" fill="none" /><path id="690" transform="matrix(1 0 0 -1 0 648)" d="M145 142.626L145 165.626" stroke="#221E1F" stroke-width="0.5" fill="none" /><path id="691" transform="matrix(1 0 0 -1 0 648)" d="M145 119.626L145 142.626" stroke="#221E1F" stroke-width="0.5" fill="none" /><path id="692" transform="matrix(1 0 0 -1 0 648)" d="M145 78.876L387.49 78.876" stroke="#221E1F" stroke-width="0.5" fill="none" /><path id="693" transform="matrix(1 0 0 -1 0 648)" d="M145 108.126L145 119.616" stroke="#221E1F" stroke-width="0.5" fill="none" /><path id="694" transform="matrix(1 0 0 -1 0 648)" d="M145 96.626L145 108.116" stroke="#221E1F" stroke-width="0.5" fill="none" /><path id="695" transform="matrix(1 0 0 -1 0 648)" d="M145 79.126L145 96.616" stroke="#221E1F" stroke-width="0.5" fill="none" /><path id="696" transform="matrix(1 0 0 -1 0 648)" d="M63 78.876L145 78.876" stroke="#221E1F" stroke-width="0.5" fill="none" /><path id="697" transform="matrix(1 0 0 -1 0 648)" d="M145 372.876L387.49 372.876" stroke="#221E1F" stroke-width="0.5" fill="none" /><path id="698" transform="matrix(1 0 0 -1 0 648)" d="M63 372.876L145 372.876" stroke="#221E1F" stroke-width="0.5" fill="none" /></g></g></svg>