<svg xmlns="http://www.w3.org/2000/svg" xmlns:xlink="http://www.w3.org/1999/xlink" id="body_61" preserveAspectRatio="xMinYMin meet" viewBox="0 0 576 864"><defs><clipPath id="1"><path id="" clip-rule="evenodd" transform="matrix(1 0 0 1 0 0)" d="M0 648L0 0L0 0L432 0L432 0L432 648L432 648L0 648z" /></clipPath></defs><g transform="matrix(1.333333 0 0 1.333333 0 0)"><g clip-path="url(#1)"><path id="1330" transform="matrix(1 0 0 -1 0 648)" d="M153 75.376L261 75.376" stroke="#221E1F" stroke-width="0.5" fill="none" /><path id="1331" transform="matrix(1 0 0 -1 0 648)" d="M261 219.626L261 231.116" stroke="#221E1F" stroke-width="0.5" fill="none" /><path id="1332" transform="matrix(1 0 0 -1 0 648)" d="M261 196.626L261 219.626" stroke="#221E1F" stroke-width="0.5" fill="none" /><path id="1333" transform="matrix(1 0 0 -1 0 648)" d="M261 173.626L261 196.626" stroke="#221E1F" stroke-width="0.5" fill="none" /><path id="1334" transform="matrix(1 0 0 -1 0 648)" d="M261 162.126L261 173.616" stroke="#221E1F" stroke-width="0.5" fill="none" /><path id="1335" transform="matrix(1 0 0 -1 0 648)" d="M261 139.126L261 162.126" stroke="#221E1F" stroke-width="0.5" fill="none" /><path id="1336" transform="matrix(1 0 0 -1 0 648)" d="M261 116.126L261 139.126" stroke="#221E1F" stroke-width="0.5" fill="none" /><path id="1337" transform="matrix(1 0 0 -1 0 648)" d="M261 104.626L261 116.116" stroke="#221E1F" stroke-width="0.5" fill="none" /><path id="1338" transform="matrix(1 0 0 -1 0 648)" d="M153 219.626L153 231.116" stroke="#221E1F" stroke-width="0.5" fill="none" /><path id="1339" transform="matrix(1 0 0 -1 0 648)" d="M153 196.626L153 219.626" stroke="#221E1F" stroke-width="0.5" fill="none" /><path id="1340" transform="matrix(1 0 0 -1 0 648)" d="M153 173.626L153 196.626" stroke="#221E1F" stroke-width="0.5" fill="none" /><path id="1341" transform="matrix(1 0 0 -1 0 648)" d="M153 162.126L153 173.616" stroke="#221E1F" stroke-width="0.5" fill="none" /><path id="1342" transform="matrix(1 0 0 -1 0 648)" d="M153 139.126L153 162.126" stroke="#221E1F" stroke-width="0.5" fill="none" /><path id="1343" transform="matrix(1 0 0 -1 0 648)" d="M153 116.126L153 139.126" stroke="#221E1F" stroke-width="0.5" fill="none" /><path id="1344" transform="matrix(1 0 0 -1 0 648)" d="M153 104.626L153 116.116" stroke="#221E1F" stroke-width="0.5" fill="none" /><path id="1345" transform="matrix(1 0 0 -1 0 648)" d="M261 75.626L261 104.626" stroke="#221E1F" stroke-width="0.5" fill="none" /><path id="1346" transform="matrix(1 0 0 -1 0 648)" d="M261 75.376L369 75.376" stroke="#221E1F" stroke-width="0.5" fill="none" /><path id="1347" transform="matrix(1 0 0 -1 0 648)" d="M153 75.626L153 104.626" stroke="#221E1F" stroke-width="0.5" fill="none" /><path id="1348" transform="matrix(1 0 0 -1 0 648)" d="M45 75.376L153 75.376" stroke="#221E1F" stroke-width="0.5" fill="none" /><path id="1349" transform="matrix(1 0 0 -1 0 648)" d="M153 246.876L261 246.876" stroke="#221E1F" stroke-width="0.5" fill="none" /><path id="1350" transform="matrix(1 0 0 -1 0 648)" d="M153 231.376L261 231.376" stroke="#221E1F" stroke-width="0.5" fill="none" /><path id="1351" transform="matrix(1 0 0 -1 0 648)" d="M261 246.876L369 246.876" stroke="#221E1F" stroke-width="0.5" fill="none" /><path id="1352" transform="matrix(1 0 0 -1 0 648)" d="M261 231.376L369 231.376" stroke="#221E1F" stroke-width="0.5" fill="none" /><path id="1353" transform="matrix(1 0 0 -1 0 648)" d="M45 246.876L153 246.876" stroke="#221E1F" stroke-width="0.5" fill="none" /><path id="1354" transform="matrix(1 0 0 -1 0 648)" d="M45 231.376L153 231.376" stroke="#221E1F" stroke-width="0.5" fill="none" /></g></g></svg>