<svg xmlns="http://www.w3.org/2000/svg" xmlns:xlink="http://www.w3.org/1999/xlink" id="body_72" preserveAspectRatio="xMinYMin meet" viewBox="0 0 576 864"><defs><clipPath id="1"><path id="" clip-rule="evenodd" transform="matrix(1 0 0 1 0 0)" d="M0 648L0 0L0 0L432 0L432 0L432 648L432 648L0 648z" /></clipPath></defs><g transform="matrix(1.333333 0 0 1.333333 0 0)"><g clip-path="url(#1)"><path id="633" transform="matrix(1 0 0 -1 0 648)" d="M307 529.25L307 540.74" stroke="#221E1F" stroke-width="0.5" fill="none" /><path id="634" transform="matrix(1 0 0 -1 0 648)" d="M307 517.75L307 529.24" stroke="#221E1F" stroke-width="0.5" fill="none" /><path id="635" transform="matrix(1 0 0 -1 0 648)" d="M307 506.25L307 517.74" stroke="#221E1F" stroke-width="0.5" fill="none" /><path id="636" transform="matrix(1 0 0 -1 0 648)" d="M307 483.25L307 506.25" stroke="#221E1F" stroke-width="0.5" fill="none" /><path id="637" transform="matrix(1 0 0 -1 0 648)" d="M307 471.75L307 483.24" stroke="#221E1F" stroke-width="0.5" fill="none" /><path id="638" transform="matrix(1 0 0 -1 0 648)" d="M307 460.25L307 471.74" stroke="#221E1F" stroke-width="0.5" fill="none" /><path id="639" transform="matrix(1 0 0 -1 0 648)" d="M307 448.75L307 460.24" stroke="#221E1F" stroke-width="0.5" fill="none" /><path id="640" transform="matrix(1 0 0 -1 0 648)" d="M307 431.5L307 448.75" stroke="#221E1F" stroke-width="0.5" fill="none" /><path id="641" transform="matrix(1 0 0 -1 0 648)" d="M307 404L307 415.49" stroke="#221E1F" stroke-width="0.5" fill="none" /><path id="642" transform="matrix(1 0 0 -1 0 648)" d="M307 392.5L307 403.99" stroke="#221E1F" stroke-width="0.5" fill="none" /><path id="643" transform="matrix(1 0 0 -1 0 648)" d="M307 381L307 392.49" stroke="#221E1F" stroke-width="0.5" fill="none" /><path id="644" transform="matrix(1 0 0 -1 0 648)" d="M307 363.75L307 381" stroke="#221E1F" stroke-width="0.5" fill="none" /><path id="645" transform="matrix(1 0 0 -1 0 648)" d="M307 336.25L307 347.74" stroke="#221E1F" stroke-width="0.5" fill="none" /><path id="646" transform="matrix(1 0 0 -1 0 648)" d="M307 307L387 307" stroke="#221E1F" stroke-width="0.5" fill="none" /><path id="647" transform="matrix(1 0 0 -1 0 648)" d="M307 307.25L307 336.25" stroke="#221E1F" stroke-width="0.5" fill="none" /><path id="648" transform="matrix(1 0 0 -1 0 648)" d="M63 307L307 307" stroke="#221E1F" stroke-width="0.5" fill="none" /><path id="649" transform="matrix(1 0 0 -1 0 648)" d="M307 572L387 572" stroke="#221E1F" stroke-width="0.5" fill="none" /><path id="650" transform="matrix(1 0 0 -1 0 648)" d="M307 556.5L387 556.5" stroke="#221E1F" stroke-width="0.5" fill="none" /><path id="651" transform="matrix(1 0 0 -1 0 648)" d="M63 572L307 572" stroke="#221E1F" stroke-width="0.5" fill="none" /><path id="652" transform="matrix(1 0 0 -1 0 648)" d="M63 556.5L307 556.5" stroke="#221E1F" stroke-width="0.5" fill="none" /><path id="653" transform="matrix(1 0 0 -1 0 648)" d="M63 541L307 541" stroke="#221E1F" stroke-width="0.5" fill="none" /><path id="654" transform="matrix(1 0 0 -1 0 648)" d="M307 541L387 541" stroke="#221E1F" stroke-width="0.5" fill="none" /><path id="655" transform="matrix(1 0 0 -1 0 648)" d="M63 415.75L307 415.75" stroke="#221E1F" stroke-width="0.5" fill="none" /><path id="656" transform="matrix(1 0 0 -1 0 648)" d="M307 415.75L387 415.75" stroke="#221E1F" stroke-width="0.5" fill="none" /><path id="657" transform="matrix(1 0 0 -1 0 648)" d="M63 431.25L307 431.25" stroke="#221E1F" stroke-width="0.5" fill="none" /><path id="658" transform="matrix(1 0 0 -1 0 648)" d="M307 431.25L387 431.25" stroke="#221E1F" stroke-width="0.5" fill="none" /><path id="659" transform="matrix(1 0 0 -1 0 648)" d="M63 348L307 348" stroke="#221E1F" stroke-width="0.5" fill="none" /><path id="660" transform="matrix(1 0 0 -1 0 648)" d="M307 348L387 348" stroke="#221E1F" stroke-width="0.5" fill="none" /><path id="661" transform="matrix(1 0 0 -1 0 648)" d="M63 363.5L307 363.5" stroke="#221E1F" stroke-width="0.5" fill="none" /><path id="662" transform="matrix(1 0 0 -1 0 648)" d="M307 363.5L387 363.5" stroke="#221E1F" stroke-width="0.5" fill="none" /></g></g></svg>