<svg xmlns="http://www.w3.org/2000/svg" xmlns:xlink="http://www.w3.org/1999/xlink" id="body_71" preserveAspectRatio="xMinYMin meet" viewBox="0 0 576 864"><defs><clipPath id="1"><path id="" clip-rule="evenodd" transform="matrix(1 0 0 1 0 0)" d="M0 648L0 0L0 0L432 0L432 0L432 648L432 648L0 648z" /></clipPath></defs><g transform="matrix(1.333333 0 0 1.333333 0 0)"><g clip-path="url(#1)"><path id="1262" transform="matrix(1 0 0 -1 0 648)" d="M80 475.25L80 544.25" stroke="#221E1F" stroke-width="0.5" fill="none" /><path id="1263" transform="matrix(1 0 0 -1 0 648)" d="M80 389L80 475.25" stroke="#221E1F" stroke-width="0.5" fill="none" /><path id="1264" transform="matrix(1 0 0 -1 0 648)" d="M45 313.25L80 313.25" stroke="#221E1F" stroke-width="0.5" fill="none" /><path id="1265" transform="matrix(1 0 0 -1 0 648)" d="M80 313.25L369 313.25" stroke="#221E1F" stroke-width="0.5" fill="none" /><path id="1266" transform="matrix(1 0 0 -1 0 648)" d="M45 388.75L80 388.75" stroke="#221E1F" stroke-width="0.5" fill="none" /><path id="1267" transform="matrix(1 0 0 -1 0 648)" d="M80 388.75L369 388.75" stroke="#221E1F" stroke-width="0.5" fill="none" /><path id="1268" transform="matrix(1 0 0 -1 0 648)" d="M45 544.5L80 544.5" stroke="#221E1F" stroke-width="0.5" fill="none" /><path id="1269" transform="matrix(1 0 0 -1 0 648)" d="M80 544.5L369 544.5" stroke="#221E1F" stroke-width="0.5" fill="none" /><path id="1270" transform="matrix(1 0 0 -1 0 648)" d="M45 560L80 560" stroke="#221E1F" stroke-width="0.5" fill="none" /><path id="1271" transform="matrix(1 0 0 -1 0 648)" d="M80 560L369 560" stroke="#221E1F" stroke-width="0.5" fill="none" /></g></g></svg>