<svg xmlns="http://www.w3.org/2000/svg" xmlns:xlink="http://www.w3.org/1999/xlink" id="body_44" preserveAspectRatio="xMinYMin meet" viewBox="0 0 576 864"><defs><clipPath id="1"><path id="" clip-rule="evenodd" transform="matrix(1 0 0 1 0 0)" d="M0 648L0 0L0 0L432 0L432 0L432 648L432 648L0 648z" /></clipPath></defs><g transform="matrix(1.333333 0 0 1.333333 0 0)"><g clip-path="url(#1)"><path id="1915" transform="matrix(1 0 0 -1 0 648)" d="M226 127.876L226 139.366" stroke="#221E1F" stroke-width="0.5" fill="none" /><path id="1916" transform="matrix(1 0 0 -1 0 648)" d="M226 110.126L345.25 110.126" stroke="#221E1F" stroke-width="0.5" fill="none" /><path id="1917" transform="matrix(1 0 0 -1 0 648)" d="M226 110.376L226 127.866" stroke="#221E1F" stroke-width="0.5" fill="none" /><path id="1918" transform="matrix(1 0 0 -1 0 648)" d="M104.75 110.126L226 110.126" stroke="#221E1F" stroke-width="0.5" fill="none" /><path id="1919" transform="matrix(1 0 0 -1 0 648)" d="M226 155.126L345.25 155.126" stroke="#221E1F" stroke-width="0.5" fill="none" /><path id="1920" transform="matrix(1 0 0 -1 0 648)" d="M226 139.626L345.25 139.626" stroke="#221E1F" stroke-width="0.5" fill="none" /><path id="1921" transform="matrix(1 0 0 -1 0 648)" d="M104.75 155.126L226 155.126" stroke="#221E1F" stroke-width="0.5" fill="none" /><path id="1922" transform="matrix(1 0 0 -1 0 648)" d="M104.75 139.626L226 139.626" stroke="#221E1F" stroke-width="0.5" fill="none" /></g></g></svg>