<svg xmlns="http://www.w3.org/2000/svg" xmlns:xlink="http://www.w3.org/1999/xlink" id="body_68" preserveAspectRatio="xMinYMin meet" viewBox="0 0 864 575"><defs><clipPath id="1"><path id="" clip-rule="evenodd" transform="matrix(1 0 0 1 0 0)" d="M0 -1L648 -1L648 -1L648 431L648 431L2.64515E-14 431L2.64515E-14 431L0 -1z" /></clipPath><clipPath id="2"><path id="" clip-rule="evenodd" transform="matrix(1 0 0 1 0 0)" d="M131.892 108.806L131.892 314.193L131.892 314.193L510.107 314.193L510.107 314.193L510.107 108.806z" /></clipPath><clipPath id="3"><path id="" clip-rule="evenodd" transform="matrix(1 0 0 1 0 0)" d="M131.892 108.806L131.892 314.193L131.892 314.193L510.107 314.193L510.107 314.193L510.107 108.806z" /></clipPath></defs><g transform="matrix(1.333333 0 0 1.333333 0 0)"><g clip-path="url(#1)"><g clip-path="url(#2)"><path id="1" transform="matrix(1 0 0 -1 0 431)" d="M320.723 252.656C 234.763 252.656 165.083 282.136 165.083 318.536C 165.083 319.766 165.163 320.986 165.333 322.196L165.333 322.196L476.083 322.196C 476.233 320.986 476.313 319.766 476.313 318.536C 476.313 282.136 406.643 252.656 320.723 252.656" stroke="none" fill="#E1E3E7" fill-rule="nonzero" /><path id="2" transform="matrix(1 0 0 -1 0 431)" d="M178.284 258.646L160.024 258.646C 154.774 258.646 149.904 255.916 147.164 251.426L147.164 251.426L138.764 237.686C 135.824 232.866 135.824 226.836 138.764 222.036L138.764 222.036L147.164 208.256C 149.904 203.786 154.774 201.056 160.024 201.056L160.024 201.056L178.284 201.056C 183.534 201.056 188.404 203.786 191.144 208.256L191.144 208.256L199.544 222.036C 202.474 226.836 202.474 232.866 199.544 237.686L199.544 237.686L191.144 251.426C 188.404 255.916 183.534 258.646 178.284 258.646" stroke="none" fill="#264551" fill-rule="evenodd" /><path id="3" transform="matrix(1 0 0 -1 0 431)" d="M179.503 262.744L158.713 262.744C 152.713 262.744 147.113 259.614 143.983 254.474L143.983 254.474L143.983 254.474L143.983 254.474L134.423 238.774L134.423 238.774L134.423 238.774C 132.733 236.004 131.893 232.894 131.893 229.784C 131.893 226.674 132.733 223.564 134.423 220.794L134.423 220.794L134.423 220.794L134.423 220.794L143.983 205.094L143.983 205.094L143.983 205.094C 147.113 199.994 152.713 196.854 158.713 196.854L158.713 196.854L179.503 196.854C 185.513 196.854 191.093 199.994 194.233 205.094L194.233 205.094L203.793 220.794C 205.473 223.564 206.313 226.674 206.313 229.784C 206.313 232.894 205.473 236.004 203.793 238.774L203.793 238.774L194.233 254.474C 191.093 259.614 185.513 262.744 179.503 262.744L179.503 262.744L179.503 262.524C 185.443 262.524 190.963 259.434 194.053 254.354L194.053 254.354L203.613 238.654C 205.263 235.934 206.093 232.854 206.093 229.784C 206.093 226.714 205.263 223.654 203.613 220.914L203.613 220.914L194.053 205.214C 190.963 200.174 185.443 197.064 179.503 197.064L179.503 197.064L158.713 197.064C 152.783 197.064 147.263 200.174 144.173 205.214L144.173 205.214L144.173 205.214L144.173 205.214L134.613 220.914L134.613 220.914L134.613 220.914C 132.943 223.654 132.113 226.714 132.113 229.784C 132.113 232.854 132.943 235.934 134.613 238.654L134.613 238.654L134.613 238.654L134.613 238.654L144.173 254.354L144.173 254.354L144.173 254.354C 147.263 259.434 152.783 262.524 158.713 262.524L158.713 262.524L179.503 262.524L179.503 262.524L179.503 262.744z" stroke="none" fill="#264551" fill-rule="nonzero" /><path id="4" transform="matrix(1 0 0 -1 0 431)" d="M251.17 229.69L232.92 229.69C 227.65 229.69 222.8 226.94 220.06 222.5L220.06 222.5L211.66 208.7C 208.73 203.9 208.73 197.87 211.66 193.06L211.66 193.06L220.06 179.3C 222.8 174.83 227.65 172.1 232.92 172.1L232.92 172.1L251.17 172.1C 256.42 172.1 261.29 174.83 264 179.3L264 179.3L272.42 193.06C 275.35 197.87 275.35 203.9 272.42 208.7L272.42 208.7L264 222.5C 261.29 226.94 256.42 229.69 251.17 229.69" stroke="none" fill="#479E8B" fill-rule="evenodd" /><path id="5" transform="matrix(1 0 0 -1 0 431)" d="M252.406 233.788L231.596 233.788C 225.586 233.788 220.016 230.658 216.866 225.528L216.866 225.528L216.866 225.528L216.866 225.528L207.296 209.808C 205.626 207.048 204.786 203.948 204.786 200.848C 204.786 197.738 205.626 194.638 207.296 191.868L207.296 191.868L216.866 176.168C 220.016 171.018 225.586 167.898 231.596 167.898L231.596 167.898L252.406 167.898C 258.396 167.898 263.986 171.018 267.116 176.168L267.116 176.168L276.676 191.868C 278.366 194.638 279.196 197.738 279.196 200.848C 279.196 203.948 278.366 207.058 276.676 209.808L276.676 209.808L267.116 225.528C 263.986 230.658 258.396 233.788 252.406 233.788L252.406 233.788L252.406 233.568C 258.316 233.568 263.836 230.478 266.926 225.418L266.926 225.418L276.496 209.698C 278.156 206.978 278.996 203.908 278.996 200.848C 278.996 197.778 278.156 194.708 276.496 191.998L276.496 191.998L266.926 176.278C 263.836 171.198 258.316 168.108 252.406 168.108L252.406 168.108L231.596 168.108C 225.656 168.108 220.166 171.198 217.056 176.278L217.056 176.278L207.486 191.998C 205.826 194.708 205.016 197.778 205.016 200.848C 205.016 203.918 205.826 206.978 207.486 209.698L207.486 209.698L217.056 225.418L217.056 225.418L217.056 225.418C 220.166 230.478 225.656 233.568 231.596 233.568L231.596 233.568L252.406 233.568L252.406 233.568L252.406 233.788z" stroke="none" fill="#479E8B" fill-rule="nonzero" /><path id="6" transform="matrix(1 0 0 -1 0 431)" d="M329.297 223.139L311.077 223.139C 305.837 223.139 301.007 220.409 298.237 215.929L298.237 215.929L289.847 202.129C 286.917 197.369 286.917 191.309 289.847 186.529L289.847 186.529L298.237 172.729C 301.007 168.249 305.837 165.519 311.077 165.519L311.077 165.519L329.297 165.519C 334.537 165.519 339.407 168.249 342.137 172.729L342.137 172.729L350.527 186.529C 353.457 191.309 353.457 197.369 350.527 202.129L350.527 202.129L342.137 215.929C 339.407 220.409 334.537 223.139 329.297 223.139" stroke="none" fill="#E9C363" fill-rule="evenodd" /><path id="7" transform="matrix(1 0 0 -1 0 431)" d="M331.501 227.264L310.731 227.264C 304.721 227.264 299.131 224.134 296.011 219.014L296.011 219.014L286.431 203.294L286.431 203.294L286.431 203.294C 284.741 200.554 283.911 197.444 283.911 194.334C 283.911 191.224 284.741 188.114 286.431 185.374L286.431 185.374L296.011 169.674C 299.131 164.544 304.721 161.394 310.731 161.394L310.731 161.394L331.501 161.394C 337.511 161.394 343.111 164.544 346.231 169.674L346.231 169.674L355.791 185.374C 357.481 188.114 358.321 191.224 358.321 194.334C 358.321 197.444 357.481 200.554 355.791 203.294L355.791 203.294L346.231 219.014C 343.091 224.134 337.511 227.264 331.501 227.264L331.501 227.264L331.501 227.044C 337.441 227.044 342.961 223.954 346.051 218.904L346.051 218.904L355.621 203.184C 357.271 200.474 358.091 197.404 358.091 194.334C 358.091 191.274 357.271 188.194 355.621 185.474L355.621 185.474L346.051 169.784C 342.961 164.724 337.441 161.614 331.501 161.614L331.501 161.614L310.731 161.614C 304.791 161.614 299.271 164.724 296.181 169.784L296.181 169.784L286.611 185.474C 284.951 188.194 284.111 191.274 284.111 194.334C 284.111 197.404 284.951 200.474 286.611 203.184L286.611 203.184L286.611 203.184L286.611 203.184L296.181 218.904C 299.271 223.954 304.791 227.044 310.731 227.044L310.731 227.044L331.501 227.044L331.501 227.044L331.501 227.264z" stroke="none" fill="#E9C363" fill-rule="nonzero" /><path id="8" transform="matrix(1 0 0 -1 0 431)" d="M408.665 229.825L390.425 229.825C 385.175 229.825 380.315 227.075 377.585 222.635L377.585 222.635L369.175 208.835C 366.275 204.035 366.275 197.995 369.175 193.195L369.175 193.195L377.585 179.435C 380.315 174.965 385.175 172.235 390.425 172.235L390.425 172.235L408.665 172.235C 413.905 172.235 418.775 174.965 421.505 179.435L421.505 179.435L429.895 193.195C 432.805 197.995 432.805 204.035 429.895 208.835L429.895 208.835L421.505 222.635C 418.775 227.075 413.905 229.825 408.665 229.825" stroke="none" fill="#F1A357" fill-rule="evenodd" /><path id="9" transform="matrix(1 0 0 -1 0 431)" d="M410.492 233.788L389.712 233.788C 383.702 233.788 378.132 230.658 374.982 225.528L374.982 225.528L374.982 225.528L374.982 225.528L365.422 209.808C 363.732 207.058 362.902 203.948 362.902 200.848C 362.902 197.738 363.732 194.638 365.422 191.868L365.422 191.868L374.982 176.168C 378.132 171.018 383.702 167.898 389.712 167.898L389.712 167.898L410.492 167.898C 416.502 167.898 422.082 171.018 425.212 176.168L425.212 176.168L434.782 191.868C 436.462 194.638 437.302 197.738 437.302 200.848C 437.302 203.948 436.462 207.058 434.782 209.808L434.782 209.808L425.212 225.528C 422.082 230.658 416.502 233.788 410.492 233.788L410.492 233.788L410.492 233.568C 416.422 233.568 421.942 230.478 425.032 225.418L425.032 225.418L434.582 209.698C 436.262 206.978 437.082 203.908 437.082 200.848C 437.082 197.778 436.262 194.708 434.582 191.998L434.582 191.998L425.032 176.278C 421.942 171.198 416.422 168.108 410.492 168.108L410.492 168.108L389.712 168.108C 383.772 168.108 378.282 171.198 375.172 176.278L375.172 176.278L365.602 191.998C 363.942 194.708 363.112 197.778 363.112 200.848C 363.112 203.908 363.942 206.978 365.602 209.698L365.602 209.698L375.172 225.418L375.172 225.418L375.172 225.418C 378.282 230.478 383.772 233.568 389.712 233.568L389.712 233.568L410.492 233.568L410.492 233.568L410.492 233.788z" stroke="none" fill="#F1A357" fill-rule="nonzero" /><path id="10" transform="matrix(1 0 0 -1 0 431)" d="M482.064 258.646L463.814 258.646C 458.574 258.646 453.714 255.916 450.954 251.426L450.954 251.426L442.554 237.686C 439.624 232.866 439.624 226.836 442.554 222.036L442.554 222.036L450.954 208.256C 453.714 203.786 458.574 201.056 463.814 201.056L463.814 201.056L482.064 201.056C 487.314 201.056 492.184 203.786 494.914 208.256L494.914 208.256L503.314 222.036C 506.244 226.836 506.244 232.866 503.314 237.686L503.314 237.686L494.914 251.426C 492.184 255.916 487.314 258.646 482.064 258.646" stroke="none" fill="#E86D48" fill-rule="evenodd" /><path id="11" transform="matrix(1 0 0 -1 0 431)" d="M483.3 262.744L462.51 262.744C 456.51 262.744 450.91 259.614 447.78 254.474L447.78 254.474L438.22 238.774C 436.53 236.004 435.69 232.894 435.69 229.784C 435.69 226.674 436.53 223.564 438.22 220.794L438.22 220.794L447.78 205.094C 450.91 199.994 456.51 196.854 462.51 196.854L462.51 196.854L483.3 196.854C 489.31 196.854 494.89 199.994 498.03 205.094L498.03 205.094L507.59 220.794C 509.27 223.564 510.11 226.674 510.11 229.784C 510.11 232.894 509.27 236.004 507.59 238.774L507.59 238.774L498.03 254.474C 494.89 259.614 489.31 262.744 483.3 262.744L483.3 262.744L483.3 262.524C 489.24 262.524 494.76 259.434 497.85 254.354L497.85 254.354L507.41 238.654C 509.06 235.934 509.89 232.854 509.89 229.784C 509.89 226.714 509.06 223.654 507.41 220.914L507.41 220.914L497.85 205.214C 494.76 200.174 489.24 197.064 483.3 197.064L483.3 197.064L462.51 197.064C 456.58 197.064 451.06 200.174 447.97 205.214L447.97 205.214L438.41 220.914C 436.74 223.654 435.91 226.714 435.91 229.784C 435.91 232.854 436.74 235.934 438.41 238.654L438.41 238.654L447.97 254.354C 451.06 259.434 456.58 262.524 462.51 262.524L462.51 262.524L483.3 262.524L483.3 262.524L483.3 262.744z" stroke="none" fill="#E86D48" fill-rule="nonzero" /></g><g clip-path="url(#3)"></g></g></g></svg>