<svg xmlns="http://www.w3.org/2000/svg" xmlns:xlink="http://www.w3.org/1999/xlink" id="body_6" preserveAspectRatio="xMinYMin meet" viewBox="0 0 576 864"><defs><clipPath id="1"><path id="" clip-rule="evenodd" transform="matrix(1 0 0 1 0 0)" d="M0 648L0 0L0 0L432 0L432 0L432 648L432 648L0 648z" /></clipPath></defs><g transform="matrix(1.333333 0 0 1.333333 0 0)"><g clip-path="url(#1)"><path id="500" transform="matrix(1 0 0 -1 0 648)" d="M172 441.75L172 545.24" stroke="#221E1F" stroke-width="0.5" fill="none" /><path id="501" transform="matrix(1 0 0 -1 0 648)" d="M172 384.25L172 441.74" stroke="#221E1F" stroke-width="0.5" fill="none" /><path id="502" transform="matrix(1 0 0 -1 0 648)" d="M172 292.25L172 384.25" stroke="#221E1F" stroke-width="0.5" fill="none" /><path id="503" transform="matrix(1 0 0 -1 0 648)" d="M172 182.5L387 182.5" stroke="#221E1F" stroke-width="0.5" fill="none" /><path id="504" transform="matrix(1 0 0 -1 0 648)" d="M172 182.75L172 292.24" stroke="#221E1F" stroke-width="0.5" fill="none" /><path id="505" transform="matrix(1 0 0 -1 0 648)" d="M63 182.5L172 182.5" stroke="#221E1F" stroke-width="0.5" fill="none" /><path id="506" transform="matrix(1 0 0 -1 0 648)" d="M172 561L387 561" stroke="#221E1F" stroke-width="0.5" fill="none" /><path id="507" transform="matrix(1 0 0 -1 0 648)" d="M172 545.5L387 545.5" stroke="#221E1F" stroke-width="0.5" fill="none" /><path id="508" transform="matrix(1 0 0 -1 0 648)" d="M63 561L172 561" stroke="#221E1F" stroke-width="0.5" fill="none" /><path id="509" transform="matrix(1 0 0 -1 0 648)" d="M63 545.5L172 545.5" stroke="#221E1F" stroke-width="0.5" fill="none" /></g></g></svg>