<svg xmlns="http://www.w3.org/2000/svg" xmlns:xlink="http://www.w3.org/1999/xlink" id="body_39" preserveAspectRatio="xMinYMin meet" viewBox="0 0 576 864"><defs><clipPath id="1"><path id="" clip-rule="evenodd" transform="matrix(1 0 0 1 0 0)" d="M0 648L0 0L0 0L432 0L432 0L432 648L432 648L0 648z" /></clipPath></defs><g transform="matrix(1.333333 0 0 1.333333 0 0)"><g clip-path="url(#1)"><path id="894" transform="matrix(1 0 0 -1 0 648)" d="M211.5 331.5L269.25 331.5" stroke="#221E1F" stroke-width="0.5" fill="none" /><path id="895" transform="matrix(1 0 0 -1 0 648)" d="M211.5 544.75L211.5 556.24" stroke="#221E1F" stroke-width="0.5" fill="none" /><path id="896" transform="matrix(1 0 0 -1 0 648)" d="M211.5 533.25L211.5 544.74" stroke="#221E1F" stroke-width="0.5" fill="none" /><path id="897" transform="matrix(1 0 0 -1 0 648)" d="M211.5 521.75L211.5 533.24" stroke="#221E1F" stroke-width="0.5" fill="none" /><path id="898" transform="matrix(1 0 0 -1 0 648)" d="M211.5 510.25L211.5 521.74" stroke="#221E1F" stroke-width="0.5" fill="none" /><path id="899" transform="matrix(1 0 0 -1 0 648)" d="M211.5 498.75L211.5 510.24" stroke="#221E1F" stroke-width="0.5" fill="none" /><path id="900" transform="matrix(1 0 0 -1 0 648)" d="M211.5 487.25L211.5 498.74" stroke="#221E1F" stroke-width="0.5" fill="none" /><path id="901" transform="matrix(1 0 0 -1 0 648)" d="M211.5 475.75L211.5 487.24" stroke="#221E1F" stroke-width="0.5" fill="none" /><path id="902" transform="matrix(1 0 0 -1 0 648)" d="M211.5 464.25L211.5 475.74" stroke="#221E1F" stroke-width="0.5" fill="none" /><path id="903" transform="matrix(1 0 0 -1 0 648)" d="M211.5 452.75L211.5 464.24" stroke="#221E1F" stroke-width="0.5" fill="none" /><path id="904" transform="matrix(1 0 0 -1 0 648)" d="M211.5 441.25L211.5 452.74" stroke="#221E1F" stroke-width="0.5" fill="none" /><path id="905" transform="matrix(1 0 0 -1 0 648)" d="M211.5 429.75L211.5 441.24" stroke="#221E1F" stroke-width="0.5" fill="none" /><path id="906" transform="matrix(1 0 0 -1 0 648)" d="M211.5 418.25L211.5 429.74" stroke="#221E1F" stroke-width="0.5" fill="none" /><path id="907" transform="matrix(1 0 0 -1 0 648)" d="M211.5 406.75L211.5 418.24" stroke="#221E1F" stroke-width="0.5" fill="none" /><path id="908" transform="matrix(1 0 0 -1 0 648)" d="M211.5 395.25L211.5 406.74" stroke="#221E1F" stroke-width="0.5" fill="none" /><path id="909" transform="matrix(1 0 0 -1 0 648)" d="M211.5 383.75L211.5 395.24" stroke="#221E1F" stroke-width="0.5" fill="none" /><path id="910" transform="matrix(1 0 0 -1 0 648)" d="M211.5 372.25L211.5 383.74" stroke="#221E1F" stroke-width="0.5" fill="none" /><path id="911" transform="matrix(1 0 0 -1 0 648)" d="M211.5 360.75L211.5 372.24" stroke="#221E1F" stroke-width="0.5" fill="none" /><path id="912" transform="matrix(1 0 0 -1 0 648)" d="M211.5 349.25L211.5 360.74" stroke="#221E1F" stroke-width="0.5" fill="none" /><path id="913" transform="matrix(1 0 0 -1 0 648)" d="M211.5 331.75L211.5 349.24" stroke="#221E1F" stroke-width="0.5" fill="none" /><path id="914" transform="matrix(1 0 0 -1 0 648)" d="M147.75 331.5L211.5 331.5" stroke="#221E1F" stroke-width="0.5" fill="none" /><path id="915" transform="matrix(1 0 0 -1 0 648)" d="M269.25 544.75L269.25 556.24" stroke="#221E1F" stroke-width="0.5" fill="none" /><path id="916" transform="matrix(1 0 0 -1 0 648)" d="M269.25 533.25L269.25 544.74" stroke="#221E1F" stroke-width="0.5" fill="none" /><path id="917" transform="matrix(1 0 0 -1 0 648)" d="M269.25 521.75L269.25 533.24" stroke="#221E1F" stroke-width="0.5" fill="none" /><path id="918" transform="matrix(1 0 0 -1 0 648)" d="M269.25 510.25L269.25 521.74" stroke="#221E1F" stroke-width="0.5" fill="none" /><path id="919" transform="matrix(1 0 0 -1 0 648)" d="M269.25 498.75L269.25 510.24" stroke="#221E1F" stroke-width="0.5" fill="none" /><path id="920" transform="matrix(1 0 0 -1 0 648)" d="M269.25 487.25L269.25 498.74" stroke="#221E1F" stroke-width="0.5" fill="none" /><path id="921" transform="matrix(1 0 0 -1 0 648)" d="M269.25 475.75L269.25 487.24" stroke="#221E1F" stroke-width="0.5" fill="none" /><path id="922" transform="matrix(1 0 0 -1 0 648)" d="M269.25 464.25L269.25 475.74" stroke="#221E1F" stroke-width="0.5" fill="none" /><path id="923" transform="matrix(1 0 0 -1 0 648)" d="M269.25 452.75L269.25 464.24" stroke="#221E1F" stroke-width="0.5" fill="none" /><path id="924" transform="matrix(1 0 0 -1 0 648)" d="M269.25 441.25L269.25 452.74" stroke="#221E1F" stroke-width="0.5" fill="none" /><path id="925" transform="matrix(1 0 0 -1 0 648)" d="M269.25 429.75L269.25 441.24" stroke="#221E1F" stroke-width="0.5" fill="none" /><path id="926" transform="matrix(1 0 0 -1 0 648)" d="M269.25 418.25L269.25 429.74" stroke="#221E1F" stroke-width="0.5" fill="none" /><path id="927" transform="matrix(1 0 0 -1 0 648)" d="M269.25 406.75L269.25 418.24" stroke="#221E1F" stroke-width="0.5" fill="none" /><path id="928" transform="matrix(1 0 0 -1 0 648)" d="M269.25 395.25L269.25 406.74" stroke="#221E1F" stroke-width="0.5" fill="none" /><path id="929" transform="matrix(1 0 0 -1 0 648)" d="M269.25 383.75L269.25 395.24" stroke="#221E1F" stroke-width="0.5" fill="none" /><path id="930" transform="matrix(1 0 0 -1 0 648)" d="M269.25 372.25L269.25 383.74" stroke="#221E1F" stroke-width="0.5" fill="none" /><path id="931" transform="matrix(1 0 0 -1 0 648)" d="M269.25 360.75L269.25 372.24" stroke="#221E1F" stroke-width="0.5" fill="none" /><path id="932" transform="matrix(1 0 0 -1 0 648)" d="M269.25 349.25L269.25 360.74" stroke="#221E1F" stroke-width="0.5" fill="none" /><path id="933" transform="matrix(1 0 0 -1 0 648)" d="M147.75 544.75L147.75 556.24" stroke="#221E1F" stroke-width="0.5" fill="none" /><path id="934" transform="matrix(1 0 0 -1 0 648)" d="M147.75 533.25L147.75 544.74" stroke="#221E1F" stroke-width="0.5" fill="none" /><path id="935" transform="matrix(1 0 0 -1 0 648)" d="M147.75 521.75L147.75 533.24" stroke="#221E1F" stroke-width="0.5" fill="none" /><path id="936" transform="matrix(1 0 0 -1 0 648)" d="M147.75 510.25L147.75 521.74" stroke="#221E1F" stroke-width="0.5" fill="none" /><path id="937" transform="matrix(1 0 0 -1 0 648)" d="M147.75 498.75L147.75 510.24" stroke="#221E1F" stroke-width="0.5" fill="none" /><path id="938" transform="matrix(1 0 0 -1 0 648)" d="M147.75 487.25L147.75 498.74" stroke="#221E1F" stroke-width="0.5" fill="none" /><path id="939" transform="matrix(1 0 0 -1 0 648)" d="M147.75 475.75L147.75 487.24" stroke="#221E1F" stroke-width="0.5" fill="none" /><path id="940" transform="matrix(1 0 0 -1 0 648)" d="M147.75 464.25L147.75 475.74" stroke="#221E1F" stroke-width="0.5" fill="none" /><path id="941" transform="matrix(1 0 0 -1 0 648)" d="M147.75 452.75L147.75 464.24" stroke="#221E1F" stroke-width="0.5" fill="none" /><path id="942" transform="matrix(1 0 0 -1 0 648)" d="M147.75 441.25L147.75 452.74" stroke="#221E1F" stroke-width="0.5" fill="none" /><path id="943" transform="matrix(1 0 0 -1 0 648)" d="M147.75 429.75L147.75 441.24" stroke="#221E1F" stroke-width="0.5" fill="none" /><path id="944" transform="matrix(1 0 0 -1 0 648)" d="M147.75 418.25L147.75 429.74" stroke="#221E1F" stroke-width="0.5" fill="none" /><path id="945" transform="matrix(1 0 0 -1 0 648)" d="M147.75 406.75L147.75 418.24" stroke="#221E1F" stroke-width="0.5" fill="none" /><path id="946" transform="matrix(1 0 0 -1 0 648)" d="M147.75 395.25L147.75 406.74" stroke="#221E1F" stroke-width="0.5" fill="none" /><path id="947" transform="matrix(1 0 0 -1 0 648)" d="M147.75 383.75L147.75 395.24" stroke="#221E1F" stroke-width="0.5" fill="none" /><path id="948" transform="matrix(1 0 0 -1 0 648)" d="M147.75 372.25L147.75 383.74" stroke="#221E1F" stroke-width="0.5" fill="none" /><path id="949" transform="matrix(1 0 0 -1 0 648)" d="M147.75 360.75L147.75 372.24" stroke="#221E1F" stroke-width="0.5" fill="none" /><path id="950" transform="matrix(1 0 0 -1 0 648)" d="M269.25 331.75L269.25 349.24" stroke="#221E1F" stroke-width="0.5" fill="none" /><path id="951" transform="matrix(1 0 0 -1 0 648)" d="M269.25 331.5L369.5 331.5" stroke="#221E1F" stroke-width="0.5" fill="none" /><path id="952" transform="matrix(1 0 0 -1 0 648)" d="M147.75 349.25L147.75 360.74" stroke="#221E1F" stroke-width="0.5" fill="none" /><path id="953" transform="matrix(1 0 0 -1 0 648)" d="M147.75 331.75L147.75 349.24" stroke="#221E1F" stroke-width="0.5" fill="none" /><path id="954" transform="matrix(1 0 0 -1 0 648)" d="M45 331.5L147.75 331.5" stroke="#221E1F" stroke-width="0.5" fill="none" /><path id="955" transform="matrix(1 0 0 -1 0 648)" d="M147.75 572L211.5 572" stroke="#221E1F" stroke-width="0.5" fill="none" /><path id="956" transform="matrix(1 0 0 -1 0 648)" d="M147.75 556.5L211.5 556.5" stroke="#221E1F" stroke-width="0.5" fill="none" /><path id="957" transform="matrix(1 0 0 -1 0 648)" d="M211.5 572L269.25 572" stroke="#221E1F" stroke-width="0.5" fill="none" /><path id="958" transform="matrix(1 0 0 -1 0 648)" d="M211.5 556.5L269.25 556.5" stroke="#221E1F" stroke-width="0.5" fill="none" /><path id="959" transform="matrix(1 0 0 -1 0 648)" d="M269.25 572L369.5 572" stroke="#221E1F" stroke-width="0.5" fill="none" /><path id="960" transform="matrix(1 0 0 -1 0 648)" d="M269.25 556.5L369.5 556.5" stroke="#221E1F" stroke-width="0.5" fill="none" /><path id="961" transform="matrix(1 0 0 -1 0 648)" d="M45 572L147.75 572" stroke="#221E1F" stroke-width="0.5" fill="none" /><path id="962" transform="matrix(1 0 0 -1 0 648)" d="M45 556.5L147.75 556.5" stroke="#221E1F" stroke-width="0.5" fill="none" /></g></g></svg>