<svg xmlns="http://www.w3.org/2000/svg" xmlns:xlink="http://www.w3.org/1999/xlink" id="body_51" preserveAspectRatio="xMinYMin meet" viewBox="0 0 576 864"><defs><clipPath id="1"><path id="" clip-rule="evenodd" transform="matrix(1 0 0 1 0 0)" d="M0 648L0 0L0 0L432 0L432 0L432 648L432 648L0 648z" /></clipPath><clipPath id="2"><path id="" clip-rule="evenodd" transform="matrix(1 0 0 1 0 0)" d="M51.08 564L362.919 564L362.919 564L362.919 408.96L362.919 408.96L51.08 408.96z" /></clipPath></defs><g transform="matrix(1.333333 0 0 1.333333 0 0)"><g clip-path="url(#1)"><g clip-path="url(#2)"><g transform="matrix(0.3600924 0 0 0.3597215 51.08 408.96)"><g transform="matrix(1 0 0 1 0 0)"><image x="0" y="0" xlink:href="img_89.png" width="866" height="431" /></g></g></g></g></g></svg>