<svg xmlns="http://www.w3.org/2000/svg" xmlns:xlink="http://www.w3.org/1999/xlink" id="body_73" preserveAspectRatio="xMinYMin meet" viewBox="0 0 864 575"><defs><clipPath id="1"><path id="" clip-rule="evenodd" transform="matrix(1 0 0 1 0 0)" d="M0 -1L648 -1L648 -1L648 431L648 431L2.64515E-14 431L2.64515E-14 431L0 -1z" /></clipPath><clipPath id="2"><path id="" clip-rule="evenodd" transform="matrix(1 0 0 1 0 0)" d="M65.882 90.79001L65.882 296.21L65.882 296.21L576.118 296.21L576.118 296.21L576.118 90.79001z" /></clipPath><clipPath id="3"><path id="" clip-rule="evenodd" transform="matrix(1 0 0 1 0 0)" d="M65.882 90.79001L65.882 296.21L65.882 296.21L576.118 296.21L576.118 296.21L576.118 90.79001z" /></clipPath><clipPath id="4"><path id="" clip-rule="evenodd" transform="matrix(1 0 0 1 0 0)" d="M65.882 90.79001L65.882 296.21L65.882 296.21L576.118 296.21L576.118 296.21L576.118 90.79001z" /></clipPath><clipPath id="5"><path id="" clip-rule="evenodd" transform="matrix(1 0 0 1 0 0)" d="M65.882 90.79001L65.882 296.21L65.882 296.21L576.118 296.21L576.118 296.21L576.118 90.79001z" /></clipPath><clipPath id="6"><path id="" clip-rule="evenodd" transform="matrix(1 0 0 1 0 0)" d="M65.882 90.79001L65.882 296.21L65.882 296.21L576.118 296.21L576.118 296.21L576.118 90.79001z" /></clipPath><clipPath id="7"><path id="" clip-rule="evenodd" transform="matrix(1 0 0 1 0 0)" d="M65.882 90.79001L65.882 296.21L65.882 296.21L576.118 296.21L576.118 296.21L576.118 90.79001z" /></clipPath><clipPath id="8"><path id="" clip-rule="evenodd" transform="matrix(1 0 0 1 0 0)" d="M65.882 90.79001L65.882 296.21L65.882 296.21L576.118 296.21L576.118 296.21L576.118 90.79001z" /></clipPath><clipPath id="9"><path id="" clip-rule="evenodd" transform="matrix(1 0 0 1 0 0)" d="M65.882 90.79001L65.882 296.21L65.882 296.21L576.118 296.21L576.118 296.21L576.118 90.79001z" /></clipPath><clipPath id="10"><path id="" clip-rule="evenodd" transform="matrix(1 0 0 1 0 0)" d="M65.882 90.79001L65.882 296.21L65.882 296.21L576.118 296.21L576.118 296.21L576.118 90.79001z" /></clipPath><clipPath id="11"><path id="" clip-rule="evenodd" transform="matrix(1 0 0 1 0 0)" d="M65.882 90.79001L65.882 296.21L65.882 296.21L576.118 296.21L576.118 296.21L576.118 90.79001z" /></clipPath></defs><g transform="matrix(1.333333 0 0 1.333333 0 0)"><g clip-path="url(#1)"><g clip-path="url(#2)"><path id="1" transform="matrix(1 0 0 -1 0 431)" d="M120.799 193.359C 120.799 194.449 121.679 195.329 122.769 195.329L122.769 195.329L177.229 195.329C 178.309 195.329 179.189 194.449 179.189 193.359L179.189 193.359L179.189 182.509C 179.189 181.429 178.309 180.539 177.229 180.539L177.229 180.539L122.769 180.539C 121.679 180.539 120.799 181.429 120.799 182.509L120.799 182.509L120.799 193.359z" stroke="none" fill="#EF2D23" fill-rule="evenodd" /><path id="2" transform="matrix(1 0 0 -1 0 431)" d="M149.015 167.367L149.015 180.547M148.825 195.287L148.825 195.917L148.825 195.917L148.825 210.177L148.825 210.177L493.135 210.177L493.135 210.177L493.135 195.287" stroke="#3D5266" stroke-width="0.535" fill="none" /><path id="3" transform="matrix(1 0 0 -1 0 431)" d="M174.244 180.945L174.244 194.655L174.244 194.655L123.274 194.655L123.274 194.655L123.274 180.945z" stroke="none" fill="#EF2D23" fill-rule="evenodd" /></g><g clip-path="url(#3)"><path id="7" transform="matrix(1 0 0 -1 0 431)" d="M293.04 192.617C 293.04 193.707 293.93 194.587 295.01 194.587L295.01 194.587L349.46 194.587C 350.55 194.587 351.43 193.707 351.43 192.617L351.43 192.617L351.43 181.727C 351.43 180.627 350.55 179.737 349.46 179.737L349.46 179.737L295.01 179.737C 293.93 179.737 293.04 180.627 293.04 181.727L293.04 181.727L293.04 192.617z" stroke="none" fill="#FEBE24" fill-rule="evenodd" /><path id="8" transform="matrix(1 0 0 -1 0 431)" d="M346.485 180.209L346.485 193.919L346.485 193.919L295.515 193.919L295.515 193.919L295.515 180.209z" stroke="none" fill="#FEBE24" fill-rule="evenodd" /></g><g clip-path="url(#4)"><path id="21" transform="matrix(1 0 0 -1 0 431)" d="M462.74 193.755C 462.74 194.845 463.63 195.725 464.71 195.725L464.71 195.725L519.16 195.725C 520.25 195.725 521.13 194.845 521.13 193.755L521.13 193.755L521.13 182.865C 521.13 181.765 520.25 180.875 519.16 180.875L519.16 180.875L464.71 180.875C 463.63 180.875 462.74 181.765 462.74 182.865L462.74 182.865L462.74 193.755z" stroke="none" fill="#27B35C" fill-rule="evenodd" /><path id="22" transform="matrix(1 0 0 -1 0 431)" d="M518.66 181.346L518.66 194.996L518.66 194.996L467.69 194.996L467.69 194.996L467.69 181.346z" stroke="none" fill="#27B35C" fill-rule="evenodd" /></g><g clip-path="url(#5)"><path id="27" transform="matrix(1 0 0 -1 0 431)" d="M65.882 331.57C 65.882 336.34 69.75201 340.21 74.522 340.21L74.522 340.21L210.352 340.21C 215.122 340.21 218.992 336.34 218.992 331.57L218.992 331.57L218.992 283.9C 218.992 279.13 215.122 275.26 210.352 275.26L210.352 275.26L74.522 275.26C 69.75201 275.26 65.882 279.13 65.882 283.9L65.882 283.9L65.882 331.57z" stroke="none" fill="#4073B9" fill-rule="evenodd" /></g><g clip-path="url(#6)"><path id="130" transform="matrix(1 0 0 -1 0 431)" d="M147.889 262.082L147.889 275.262" stroke="#3D5266" stroke-width="0.535" fill="none" /><path id="131" transform="matrix(1 0 0 -1 0 431)" d="M244.478 331.57C 244.478 336.34 248.348 340.21 253.118 340.21L253.118 340.21L388.868 340.21C 393.658 340.21 397.518 336.34 397.518 331.57L397.518 331.57L397.518 283.9C 397.518 279.13 393.658 275.26 388.868 275.26L388.868 275.26L253.118 275.26C 248.348 275.26 244.478 279.13 244.478 283.9L244.478 283.9L244.478 331.57z" stroke="none" fill="#4073B9" fill-rule="evenodd" /></g><g clip-path="url(#7)"><path id="292" transform="matrix(1 0 0 -1 0 431)" d="M321 245.092L321 274.782" stroke="#3D5266" stroke-width="0.535" fill="none" /><path id="293" transform="matrix(1 0 0 -1 0 431)" d="M423.007 331.101C 423.007 335.871 426.877 339.741 431.647 339.741L431.647 339.741L567.477 339.741C 572.247 339.741 576.117 335.871 576.117 331.101L576.117 331.101L576.117 283.431C 576.117 278.661 572.247 274.791 567.477 274.791L567.477 274.791L431.647 274.791C 426.877 274.791 423.007 278.661 423.007 283.431L423.007 283.431L423.007 331.101z" stroke="none" fill="#4073B9" fill-rule="evenodd" /></g><g clip-path="url(#8)"><path id="429" transform="matrix(1 0 0 -1 0 431)" d="M505.014 261.681L505.014 274.791" stroke="#3D5266" stroke-width="0.535" fill="none" /><path id="430" transform="matrix(1 0 0 -1 0 431)" d="M147.889 262.082L505.029 261.642" stroke="#3D5266" stroke-width="0.268" fill="none" /><path id="431" transform="matrix(1 0 0 -1 0 431)" d="M233.04 236.932C 233.04 241.072 236.4 244.422 240.53 244.422L240.53 244.422L401.47 244.422C 405.61 244.422 408.96 241.072 408.96 236.932C 408.96 232.792 405.61 229.442 401.47 229.442L401.47 229.442L240.53 229.442C 236.4 229.442 233.04 232.792 233.04 236.932" stroke="none" fill="#4073B9" fill-rule="evenodd" /></g><g clip-path="url(#9)"><path id="452" transform="matrix(1 0 0 -1 0 431)" d="M321 193.922L321 229.442" stroke="#3D5266" stroke-width="0.535" fill="none" /><path id="453" transform="matrix(1 0 0 -1 0 431)" d="M107.822 162.322C 107.822 164.552 109.632 166.362 111.862 166.362L111.862 166.362L185.652 166.362C 187.882 166.362 189.692 164.552 189.692 162.322L189.692 162.322L189.692 140.032C 189.692 137.802 187.882 135.992 185.652 135.992L185.652 135.992L111.862 135.992C 109.632 135.992 107.822 137.802 107.822 140.032L107.822 140.032L107.822 162.322z" stroke="none" fill="#EF2D23" fill-rule="evenodd" /></g><g clip-path="url(#10)"><path id="488" transform="matrix(1 0 0 -1 0 431)" d="M321.268 166.162L321.268 179.342" stroke="#3D5266" stroke-width="0.535" fill="none" /><path id="489" transform="matrix(1 0 0 -1 0 431)" d="M280.063 161.118C 280.063 163.348 281.873 165.158 284.103 165.158L284.103 165.158L357.893 165.158C 360.123 165.158 361.933 163.348 361.933 161.118L361.933 161.118L361.933 138.828C 361.933 136.598 360.123 134.788 357.893 134.788L357.893 134.788L284.103 134.788C 281.873 134.788 280.063 136.598 280.063 138.828L280.063 138.828L280.063 161.118z" stroke="none" fill="#FEBE24" fill-rule="evenodd" /></g><g clip-path="url(#11)"><path id="523" transform="matrix(1 0 0 -1 0 431)" d="M491.77 167.166L491.77 180.346" stroke="#3D5266" stroke-width="0.535" fill="none" /><path id="524" transform="matrix(1 0 0 -1 0 431)" d="M450.566 162.121C 450.566 164.351 452.376 166.161 454.606 166.161L454.606 166.161L528.396 166.161C 530.626 166.161 532.436 164.351 532.436 162.121L532.436 162.121L532.436 139.831C 532.436 137.601 530.626 135.791 528.396 135.791L528.396 135.791L454.606 135.791C 452.376 135.791 450.566 137.601 450.566 139.831L450.566 139.831L450.566 162.121z" stroke="none" fill="#27B35C" fill-rule="evenodd" /><path id="525" transform="matrix(1 0 0 -1 0 431)" d="M529.028 138.069L529.028 161.879L529.028 161.879L450.568 161.879L450.568 161.879L450.568 138.069z" stroke="none" fill="#27B35C" fill-rule="evenodd" /></g></g></g></svg>