<svg xmlns="http://www.w3.org/2000/svg" xmlns:xlink="http://www.w3.org/1999/xlink" id="body_29" preserveAspectRatio="xMinYMin meet" viewBox="0 0 576 864"><defs><clipPath id="1"><path id="" clip-rule="evenodd" transform="matrix(1 0 0 1 0 0)" d="M0 648L0 0L0 0L432 0L432 0L432 648L432 648L0 648z" /></clipPath></defs><g transform="matrix(1.333333 0 0 1.333333 0 0)"><g clip-path="url(#1)"><g transform="matrix(0.3599188 0 0 0.3598891 65.376 65)"><g transform="matrix(1 0 0 1 0 0)"><image x="0" y="0" xlink:href="img_52.png" width="887" height="649" /></g></g><g transform="matrix(0.3601629 0 0 0.36 65.808 352.69)"><g transform="matrix(1 0 0 1 0 0)"><image x="0" y="0" xlink:href="img_53.png" width="884" height="496" /></g></g></g></g></svg>