<svg xmlns="http://www.w3.org/2000/svg" xmlns:xlink="http://www.w3.org/1999/xlink" id="body_19" preserveAspectRatio="xMinYMin meet" viewBox="0 0 576 864"><defs><clipPath id="1"><path id="" clip-rule="evenodd" transform="matrix(1 0 0 1 0 0)" d="M0 648L0 0L0 0L432 0L432 0L432 648L432 648L0 648z" /></clipPath></defs><g transform="matrix(1.333333 0 0 1.333333 0 0)"><g clip-path="url(#1)"><path id="1041" transform="matrix(1 0 0 -1 0 648)" d="M45 193.5L368.75 193.5" stroke="#221E1F" stroke-width="0.5" fill="none" /><path id="1042" transform="matrix(1 0 0 -1 0 648)" d="M45 269L368.75 269" stroke="#221E1F" stroke-width="0.5" fill="none" /><g transform="matrix(0.3599188 0 0 0.3597154 47.376 488.992)"><g transform="matrix(1 0 0 1 0 0)"><image x="0" y="0" xlink:href="img_28.png" width="887" height="253" /></g></g></g></g></svg>