<svg xmlns="http://www.w3.org/2000/svg" xmlns:xlink="http://www.w3.org/1999/xlink" id="body_41" preserveAspectRatio="xMinYMin meet" viewBox="0 0 576 864"><defs><clipPath id="1"><path id="" clip-rule="evenodd" transform="matrix(1 0 0 1 0 0)" d="M0 648L0 0L0 0L432 0L432 0L432 648L432 648L0 648z" /></clipPath></defs><g transform="matrix(1.333333 0 0 1.333333 0 0)"><g clip-path="url(#1)"><path id="721" transform="matrix(1 0 0 -1 0 648)" d="M214.5 343L269.99 343" stroke="#221E1F" stroke-width="0.5" fill="none" /><path id="722" transform="matrix(1 0 0 -1 0 648)" d="M214.5 544.75L214.5 556.24" stroke="#221E1F" stroke-width="0.5" fill="none" /><path id="723" transform="matrix(1 0 0 -1 0 648)" d="M214.5 533.25L214.5 544.74" stroke="#221E1F" stroke-width="0.5" fill="none" /><path id="724" transform="matrix(1 0 0 -1 0 648)" d="M214.5 521.75L214.5 533.24" stroke="#221E1F" stroke-width="0.5" fill="none" /><path id="725" transform="matrix(1 0 0 -1 0 648)" d="M214.5 510.25L214.5 521.74" stroke="#221E1F" stroke-width="0.5" fill="none" /><path id="726" transform="matrix(1 0 0 -1 0 648)" d="M214.5 498.75L214.5 510.24" stroke="#221E1F" stroke-width="0.5" fill="none" /><path id="727" transform="matrix(1 0 0 -1 0 648)" d="M214.5 487.25L214.5 498.74" stroke="#221E1F" stroke-width="0.5" fill="none" /><path id="728" transform="matrix(1 0 0 -1 0 648)" d="M214.5 475.75L214.5 487.24" stroke="#221E1F" stroke-width="0.5" fill="none" /><path id="729" transform="matrix(1 0 0 -1 0 648)" d="M214.5 464.25L214.5 475.74" stroke="#221E1F" stroke-width="0.5" fill="none" /><path id="730" transform="matrix(1 0 0 -1 0 648)" d="M214.5 452.75L214.5 464.24" stroke="#221E1F" stroke-width="0.5" fill="none" /><path id="731" transform="matrix(1 0 0 -1 0 648)" d="M214.5 441.25L214.5 452.74" stroke="#221E1F" stroke-width="0.5" fill="none" /><path id="732" transform="matrix(1 0 0 -1 0 648)" d="M214.5 429.75L214.5 441.24" stroke="#221E1F" stroke-width="0.5" fill="none" /><path id="733" transform="matrix(1 0 0 -1 0 648)" d="M214.5 418.25L214.5 429.74" stroke="#221E1F" stroke-width="0.5" fill="none" /><path id="734" transform="matrix(1 0 0 -1 0 648)" d="M214.5 406.75L214.5 418.24" stroke="#221E1F" stroke-width="0.5" fill="none" /><path id="735" transform="matrix(1 0 0 -1 0 648)" d="M214.5 395.25L214.5 406.74" stroke="#221E1F" stroke-width="0.5" fill="none" /><path id="736" transform="matrix(1 0 0 -1 0 648)" d="M214.5 383.75L214.5 395.24" stroke="#221E1F" stroke-width="0.5" fill="none" /><path id="737" transform="matrix(1 0 0 -1 0 648)" d="M214.5 372.25L214.5 383.74" stroke="#221E1F" stroke-width="0.5" fill="none" /><path id="738" transform="matrix(1 0 0 -1 0 648)" d="M214.5 360.75L214.5 372.24" stroke="#221E1F" stroke-width="0.5" fill="none" /><path id="739" transform="matrix(1 0 0 -1 0 648)" d="M214.5 343.25L214.5 360.74" stroke="#221E1F" stroke-width="0.5" fill="none" /><path id="740" transform="matrix(1 0 0 -1 0 648)" d="M158.25 343L214.5 343" stroke="#221E1F" stroke-width="0.5" fill="none" /><path id="741" transform="matrix(1 0 0 -1 0 648)" d="M270 544.75L270 556.24" stroke="#221E1F" stroke-width="0.5" fill="none" /><path id="742" transform="matrix(1 0 0 -1 0 648)" d="M270 533.25L270 544.74" stroke="#221E1F" stroke-width="0.5" fill="none" /><path id="743" transform="matrix(1 0 0 -1 0 648)" d="M270 521.75L270 533.24" stroke="#221E1F" stroke-width="0.5" fill="none" /><path id="744" transform="matrix(1 0 0 -1 0 648)" d="M270 510.25L270 521.74" stroke="#221E1F" stroke-width="0.5" fill="none" /><path id="745" transform="matrix(1 0 0 -1 0 648)" d="M270 498.75L270 510.24" stroke="#221E1F" stroke-width="0.5" fill="none" /><path id="746" transform="matrix(1 0 0 -1 0 648)" d="M270 487.25L270 498.74" stroke="#221E1F" stroke-width="0.5" fill="none" /><path id="747" transform="matrix(1 0 0 -1 0 648)" d="M270 475.75L270 487.24" stroke="#221E1F" stroke-width="0.5" fill="none" /><path id="748" transform="matrix(1 0 0 -1 0 648)" d="M270 464.25L270 475.74" stroke="#221E1F" stroke-width="0.5" fill="none" /><path id="749" transform="matrix(1 0 0 -1 0 648)" d="M270 452.75L270 464.24" stroke="#221E1F" stroke-width="0.5" fill="none" /><path id="750" transform="matrix(1 0 0 -1 0 648)" d="M270 441.25L270 452.74" stroke="#221E1F" stroke-width="0.5" fill="none" /><path id="751" transform="matrix(1 0 0 -1 0 648)" d="M270 429.75L270 441.24" stroke="#221E1F" stroke-width="0.5" fill="none" /><path id="752" transform="matrix(1 0 0 -1 0 648)" d="M270 418.25L270 429.74" stroke="#221E1F" stroke-width="0.5" fill="none" /><path id="753" transform="matrix(1 0 0 -1 0 648)" d="M270 406.75L270 418.24" stroke="#221E1F" stroke-width="0.5" fill="none" /><path id="754" transform="matrix(1 0 0 -1 0 648)" d="M270 395.25L270 406.74" stroke="#221E1F" stroke-width="0.5" fill="none" /><path id="755" transform="matrix(1 0 0 -1 0 648)" d="M270 383.75L270 395.24" stroke="#221E1F" stroke-width="0.5" fill="none" /><path id="756" transform="matrix(1 0 0 -1 0 648)" d="M270 372.25L270 383.74" stroke="#221E1F" stroke-width="0.5" fill="none" /><path id="757" transform="matrix(1 0 0 -1 0 648)" d="M270 360.75L270 372.24" stroke="#221E1F" stroke-width="0.5" fill="none" /><path id="758" transform="matrix(1 0 0 -1 0 648)" d="M158.25 544.75L158.25 556.24" stroke="#221E1F" stroke-width="0.5" fill="none" /><path id="759" transform="matrix(1 0 0 -1 0 648)" d="M158.25 533.25L158.25 544.74" stroke="#221E1F" stroke-width="0.5" fill="none" /><path id="760" transform="matrix(1 0 0 -1 0 648)" d="M158.25 521.75L158.25 533.24" stroke="#221E1F" stroke-width="0.5" fill="none" /><path id="761" transform="matrix(1 0 0 -1 0 648)" d="M158.25 510.25L158.25 521.74" stroke="#221E1F" stroke-width="0.5" fill="none" /><path id="762" transform="matrix(1 0 0 -1 0 648)" d="M158.25 498.75L158.25 510.24" stroke="#221E1F" stroke-width="0.5" fill="none" /><path id="763" transform="matrix(1 0 0 -1 0 648)" d="M158.25 487.25L158.25 498.74" stroke="#221E1F" stroke-width="0.5" fill="none" /><path id="764" transform="matrix(1 0 0 -1 0 648)" d="M158.25 475.75L158.25 487.24" stroke="#221E1F" stroke-width="0.5" fill="none" /><path id="765" transform="matrix(1 0 0 -1 0 648)" d="M158.25 464.25L158.25 475.74" stroke="#221E1F" stroke-width="0.5" fill="none" /><path id="766" transform="matrix(1 0 0 -1 0 648)" d="M158.25 452.75L158.25 464.24" stroke="#221E1F" stroke-width="0.5" fill="none" /><path id="767" transform="matrix(1 0 0 -1 0 648)" d="M158.25 441.25L158.25 452.74" stroke="#221E1F" stroke-width="0.5" fill="none" /><path id="768" transform="matrix(1 0 0 -1 0 648)" d="M158.25 429.75L158.25 441.24" stroke="#221E1F" stroke-width="0.5" fill="none" /><path id="769" transform="matrix(1 0 0 -1 0 648)" d="M158.25 418.25L158.25 429.74" stroke="#221E1F" stroke-width="0.5" fill="none" /><path id="770" transform="matrix(1 0 0 -1 0 648)" d="M158.25 406.75L158.25 418.24" stroke="#221E1F" stroke-width="0.5" fill="none" /><path id="771" transform="matrix(1 0 0 -1 0 648)" d="M158.25 395.25L158.25 406.74" stroke="#221E1F" stroke-width="0.5" fill="none" /><path id="772" transform="matrix(1 0 0 -1 0 648)" d="M158.25 383.75L158.25 395.24" stroke="#221E1F" stroke-width="0.5" fill="none" /><path id="773" transform="matrix(1 0 0 -1 0 648)" d="M158.25 372.25L158.25 383.74" stroke="#221E1F" stroke-width="0.5" fill="none" /><path id="774" transform="matrix(1 0 0 -1 0 648)" d="M270 343.25L270 360.74" stroke="#221E1F" stroke-width="0.5" fill="none" /><path id="775" transform="matrix(1 0 0 -1 0 648)" d="M270 343L369 343" stroke="#221E1F" stroke-width="0.5" fill="none" /><path id="776" transform="matrix(1 0 0 -1 0 648)" d="M158.25 360.75L158.25 372.24" stroke="#221E1F" stroke-width="0.5" fill="none" /><path id="777" transform="matrix(1 0 0 -1 0 648)" d="M158.25 343.25L158.25 360.74" stroke="#221E1F" stroke-width="0.5" fill="none" /><path id="778" transform="matrix(1 0 0 -1 0 648)" d="M45 343L158.25 343" stroke="#221E1F" stroke-width="0.5" fill="none" /><path id="779" transform="matrix(1 0 0 -1 0 648)" d="M158.25 572L214.5 572" stroke="#221E1F" stroke-width="0.5" fill="none" /><path id="780" transform="matrix(1 0 0 -1 0 648)" d="M158.25 556.5L214.5 556.5" stroke="#221E1F" stroke-width="0.5" fill="none" /><path id="781" transform="matrix(1 0 0 -1 0 648)" d="M214.5 572L269.99 572" stroke="#221E1F" stroke-width="0.5" fill="none" /><path id="782" transform="matrix(1 0 0 -1 0 648)" d="M214.5 556.5L269.99 556.5" stroke="#221E1F" stroke-width="0.5" fill="none" /><path id="783" transform="matrix(1 0 0 -1 0 648)" d="M270 572L369 572" stroke="#221E1F" stroke-width="0.5" fill="none" /><path id="784" transform="matrix(1 0 0 -1 0 648)" d="M270 556.5L369 556.5" stroke="#221E1F" stroke-width="0.5" fill="none" /><path id="785" transform="matrix(1 0 0 -1 0 648)" d="M45 572L158.25 572" stroke="#221E1F" stroke-width="0.5" fill="none" /><path id="786" transform="matrix(1 0 0 -1 0 648)" d="M45 556.5L158.25 556.5" stroke="#221E1F" stroke-width="0.5" fill="none" /></g></g></svg>