<svg xmlns="http://www.w3.org/2000/svg" xmlns:xlink="http://www.w3.org/1999/xlink" id="body_43" preserveAspectRatio="xMinYMin meet" viewBox="0 0 576 864"><defs><clipPath id="1"><path id="" clip-rule="evenodd" transform="matrix(1 0 0 1 0 0)" d="M0 648L0 0L0 0L432 0L432 0L432 648L432 648L0 648z" /></clipPath></defs><g transform="matrix(1.333333 0 0 1.333333 0 0)"><g clip-path="url(#1)"><path id="1329" transform="matrix(1 0 0 -1 0 648)" d="M153 195.002L153 206.492" stroke="#221E1F" stroke-width="0.5" fill="none" /><path id="1330" transform="matrix(1 0 0 -1 0 648)" d="M153 172.002L153 195.002" stroke="#221E1F" stroke-width="0.5" fill="none" /><path id="1331" transform="matrix(1 0 0 -1 0 648)" d="M153 149.002L153 172.002" stroke="#221E1F" stroke-width="0.5" fill="none" /><path id="1332" transform="matrix(1 0 0 -1 0 648)" d="M153 126.002L153 149.002" stroke="#221E1F" stroke-width="0.5" fill="none" /><path id="1333" transform="matrix(1 0 0 -1 0 648)" d="M153 73.752L369.49 73.752" stroke="#221E1F" stroke-width="0.5" fill="none" /><path id="1334" transform="matrix(1 0 0 -1 0 648)" d="M153 114.502L153 125.992" stroke="#221E1F" stroke-width="0.5" fill="none" /><path id="1335" transform="matrix(1 0 0 -1 0 648)" d="M153 103.002L153 114.492" stroke="#221E1F" stroke-width="0.5" fill="none" /><path id="1336" transform="matrix(1 0 0 -1 0 648)" d="M153 74.002L153 103.002" stroke="#221E1F" stroke-width="0.5" fill="none" /><path id="1337" transform="matrix(1 0 0 -1 0 648)" d="M45 73.752L153 73.752" stroke="#221E1F" stroke-width="0.5" fill="none" /><path id="1338" transform="matrix(1 0 0 -1 0 648)" d="M153 222.252L369.49 222.252" stroke="#221E1F" stroke-width="0.5" fill="none" /><path id="1339" transform="matrix(1 0 0 -1 0 648)" d="M153 206.752L369.49 206.752" stroke="#221E1F" stroke-width="0.5" fill="none" /><path id="1340" transform="matrix(1 0 0 -1 0 648)" d="M45 222.252L153 222.252" stroke="#221E1F" stroke-width="0.5" fill="none" /><path id="1341" transform="matrix(1 0 0 -1 0 648)" d="M45 206.752L153 206.752" stroke="#221E1F" stroke-width="0.5" fill="none" /></g></g></svg>